G04 GENERATED BY PULSONIX 12.5 GERBER.DLL 9449*
G04 #@! TF.GenerationSoftware,Pulsonix,Pulsonix,12.5.9449*
G04 #@! TF.CreationDate,2024-10-09T20:32:21--1:00*
G04 #@! TF.Part,Single*
%FSLAX35Y35*%
%LPD*%
%MOMM*%
G04 #@! TF.FileFunction,Legend,Bot*
G04 #@! TF.FilePolarity,Positive*
G04 #@! TA.AperFunction,Profile*
%ADD98C,0.30000*%
G04 #@! TD.AperFunction*
%ADD99C,0.45000*%
G04 #@! TA.AperFunction,Material*
%ADD102C,0.20000*%
G04 #@! TD.AperFunction*
%ADD111C,0.20000*%
G04 #@! TD.AperFunction*
X0Y0D02*
D02*
D98*
X1051797Y5922545D02*
X2026797D01*
G75*
G03*
X2426797Y6322545I0J400000D01*
G01*
Y7253045D01*
G75*
G02*
X2826797Y7653045I400000J0D01*
G01*
X3026797D01*
G75*
G02*
X3426797Y7253045I0J-400000D01*
G01*
Y6322545D01*
G75*
G03*
X3826797Y5922545I400000J0D01*
G01*
X4801797D01*
G75*
G02*
X4901797Y5822545I0J-100000D01*
G01*
Y4922545D01*
G75*
G03*
X4965297Y4859045I63500J0D01*
G01*
X8826797D01*
G75*
G02*
X8926797Y4759045I0J-100000D01*
G01*
Y2165045D01*
G75*
G02*
X8826797Y2065045I-100000J0D01*
G01*
X1051797D01*
G75*
G02*
X951797Y2165045I0J100000D01*
G01*
Y5822545D01*
G75*
G02*
X1051797Y5922545I100000J0D01*
G01*
D02*
D99*
X8636415Y3215310D02*
X8501944Y3215310D01*
X8472062Y3230251D01*
X8457121Y3260134D01*
Y3319898D01*
X8472062Y3349781D01*
X8501944Y3364722D01*
X8636415D01*
X8501944Y3421050D02*
X8472062Y3435991D01*
X8457121Y3465874D01*
Y3525638D01*
X8472062Y3555521D01*
X8501944Y3570462D01*
X8531826Y3555521D01*
X8546768Y3525638D01*
Y3465874D01*
X8561709Y3435991D01*
X8591591Y3421050D01*
X8621473Y3435991D01*
X8636415Y3465874D01*
Y3525638D01*
X8621473Y3555521D01*
X8591591Y3570462D01*
X8546768Y3731378D02*
X8531826Y3761261D01*
X8501944Y3776202D01*
X8472062Y3761261D01*
X8457121Y3731378D01*
Y3626790D01*
X8636415D01*
Y3731378D01*
X8621473Y3761261D01*
X8591591Y3776202D01*
X8561709Y3761261D01*
X8546768Y3731378D01*
Y3626790D01*
X8520621Y2881427D02*
X8520621Y2941192D01*
Y2911310D02*
X8699915Y2911310D01*
X8670032Y2881427D01*
D02*
D102*
X3730797Y2481045D02*
X8810797D01*
Y4535045D01*
X3730797D01*
Y2481045D01*
X5508797Y2936545D02*
Y4079545D01*
X4492797D01*
Y2936545D01*
X5508797D01*
X6318422Y4444670D02*
G75*
G02*
X6477172I79375J0D01*
G01*
Y4349420D01*
G75*
G02*
X6318422I-79375J0D01*
G01*
Y4444670D01*
X6397797D02*
G75*
G03*
Y4349420I0J-47625D01*
G01*
G75*
G03*
Y4444670I0J47625D01*
G01*
X6572422D02*
G75*
G02*
X6731172I79375J0D01*
G01*
Y4349420D01*
G75*
G02*
X6572422I-79375J0D01*
G01*
Y4444670D01*
X6651797D02*
G75*
G03*
Y4349420I0J-47625D01*
G01*
G75*
G03*
Y4444670I0J47625D01*
G01*
X6715297Y3127045D02*
Y3825545D01*
X6016797D01*
Y3127045D01*
X6715297D01*
G36*
X6715297Y3127045D02*
Y3825545D01*
X6016797D01*
Y3127045D01*
X6715297D01*
G37*
X6826422Y4444670D02*
G75*
G02*
X6985172I79375J0D01*
G01*
Y4349420D01*
G75*
G02*
X6826422I-79375J0D01*
G01*
Y4444670D01*
X6905797D02*
G75*
G03*
Y4349420I0J-47625D01*
G01*
G75*
G03*
Y4444670I0J47625D01*
G01*
X7080422D02*
G75*
G02*
X7239172I79375J0D01*
G01*
Y4349420D01*
G75*
G02*
X7080422I-79375J0D01*
G01*
Y4444670D01*
X7159797D02*
G75*
G03*
Y4349420I0J-47625D01*
G01*
G75*
G03*
Y4444670I0J47625D01*
G01*
X8810797Y3108045D02*
Y3908045D01*
X8239297D01*
Y3108045D01*
X8810797D01*
D02*
D111*
X7477297Y4102486D02*
X7477297Y4163663D01*
Y4186604D02*
X7477298Y4186605D01*
X7421397Y4102486D02*
X7421397Y4163663D01*
Y4140721D02*
X7413750Y4156016D01*
X7398456Y4163663D01*
X7383162D01*
X7367868Y4156016D01*
X7360221Y4140721D01*
Y4102486D01*
X7332997Y4163663D02*
X7302409Y4163663D01*
X7317703Y4178957D02*
X7317703Y4110133D01*
X7310056Y4102486D01*
X7302409D01*
X7294762Y4110133D01*
X7206821D02*
X7214468Y4102486D01*
X7229762D01*
X7245056D01*
X7260350Y4110133D01*
X7267997Y4125427D01*
Y4148369D01*
X7260350Y4156016D01*
X7245056Y4163663D01*
X7229762D01*
X7214468Y4156016D01*
X7206821Y4148369D01*
Y4140721D01*
X7214468Y4133074D01*
X7229762Y4125427D01*
X7245056D01*
X7260350Y4133074D01*
X7267997Y4140721D01*
X7179597Y4102486D02*
X7179597Y4163663D01*
Y4140721D02*
X7171950Y4156016D01*
X7156656Y4163663D01*
X7141362D01*
X7126068Y4156016D01*
X7118421Y4140721D01*
Y4102486D01*
X7091197Y4163663D02*
X7060609Y4163663D01*
X7075903Y4178957D02*
X7075903Y4110133D01*
X7068256Y4102486D01*
X7060609D01*
X7052962Y4110133D01*
X7026197Y4102486D02*
X7026197Y4163663D01*
Y4186604D02*
X7026198Y4186605D01*
X6970297Y4125427D02*
X6962650Y4110133D01*
X6947356Y4102486D01*
X6932062D01*
X6916768Y4110133D01*
X6909121Y4125427D01*
Y4140721D01*
X6916768Y4156016D01*
X6932062Y4163663D01*
X6947356D01*
X6962650Y4156016D01*
X6970297Y4140721D01*
Y4125427D01*
X6881897Y4102486D02*
X6881897Y4163663D01*
Y4140721D02*
X6874250Y4156016D01*
X6858956Y4163663D01*
X6843662D01*
X6828368Y4156016D01*
X6820721Y4140721D01*
Y4102486D01*
X6793497Y4156016D02*
X6778203Y4163663D01*
X6755262D01*
X6739968Y4156016D01*
X6732321Y4140721D01*
Y4117780D01*
X6739968Y4110133D01*
X6755262Y4102486D01*
X6770556D01*
X6785850Y4110133D01*
X6793497Y4117780D01*
Y4125427D01*
X6785850Y4133074D01*
X6770556Y4140721D01*
X6755262D01*
X6739968Y4133074D01*
X6732321Y4125427D01*
Y4117780D02*
X6732321Y4102486D01*
X6697450D02*
X6705097Y4102486D01*
Y4194251D01*
X6664950Y4102486D02*
X6672597Y4102486D01*
Y4194251D01*
X6640097Y4163663D02*
X6632450Y4133074D01*
X6617156Y4117780D01*
X6601862D01*
X6586568Y4133074D01*
X6578921Y4163663D01*
X6586568Y4133074D02*
X6594215Y4102486D01*
X6601862Y4087192D01*
X6617156Y4079545D01*
X6632450Y4087192D01*
X6495797Y4102486D02*
X6495797Y4163663D01*
Y4156016D02*
X6488150Y4163663D01*
X6472856D01*
X6465209Y4156016D01*
Y4133074D01*
Y4156016D02*
X6457562Y4163663D01*
X6442268D01*
X6434621Y4156016D01*
Y4102486D01*
X6407397D02*
X6407397Y4163663D01*
Y4186604D02*
X6407398Y4186605D01*
X6351497Y4110133D02*
X6336203Y4102486D01*
X6305615D01*
X6290321Y4110133D01*
Y4125427D01*
X6305615Y4133074D01*
X6336203D01*
X6351497Y4140721D01*
Y4156016D01*
X6336203Y4163663D01*
X6305615D01*
X6290321Y4156016D01*
X6263097Y4110133D02*
X6247803Y4102486D01*
X6217215D01*
X6201921Y4110133D01*
Y4125427D01*
X6217215Y4133074D01*
X6247803D01*
X6263097Y4140721D01*
Y4156016D01*
X6247803Y4163663D01*
X6217215D01*
X6201921Y4156016D01*
X6174697Y4102486D02*
X6174697Y4163663D01*
Y4186604D02*
X6174698Y4186605D01*
X6118797Y4102486D02*
X6118797Y4163663D01*
Y4140721D02*
X6111150Y4156016D01*
X6095856Y4163663D01*
X6080562D01*
X6065268Y4156016D01*
X6057621Y4140721D01*
Y4102486D01*
X5969221Y4140721D02*
X5976868Y4156016D01*
X5992162Y4163663D01*
X6007456D01*
X6022750Y4156016D01*
X6030397Y4140721D01*
Y4133074D01*
X6022750Y4117780D01*
X6007456Y4110133D01*
X5992162D01*
X5976868Y4117780D01*
X5969221Y4133074D01*
Y4163663D02*
X5969221Y4102486D01*
X5976868Y4087192D01*
X5992162Y4079545D01*
X6015103D01*
X6030397Y4087192D01*
X7563738Y3391370D02*
X7563738Y3421958D01*
Y3406664D02*
X7655503Y3406664D01*
Y3391370D02*
X7655503Y3421958D01*
X7579032Y3523741D02*
X7571385Y3516094D01*
X7563738Y3500799D01*
Y3477858D01*
X7571385Y3462564D01*
X7579032Y3454917D01*
X7594326Y3447270D01*
X7624915D01*
X7640209Y3454917D01*
X7647856Y3462564D01*
X7655503Y3477858D01*
Y3500799D01*
X7647856Y3516094D01*
X7640209Y3523741D01*
X7563738Y3567864D02*
X7563738Y3598452D01*
Y3583158D02*
X7655503Y3583158D01*
X7640209Y3567864D01*
X0Y0D02*
M02*
