G04 GENERATED BY PULSONIX 12.5 GERBER.DLL 9449*
G04 #@! TF.GenerationSoftware,Pulsonix,Pulsonix,12.5.9449*
G04 #@! TF.CreationDate,2024-10-09T20:32:21--1:00*
G04 #@! TF.Part,Single*
%FSLAX35Y35*%
%LPD*%
%MOMM*%
G04 #@! TF.FileFunction,Drillmap*
G04 #@! TF.FilePolarity,Positive*
G04 #@! TA.AperFunction,ViaPad*
%ADD111C,0.40000*%
G04 #@! TD.AperFunction*
%ADD112C,0.10000*%
G04 #@! TA.AperFunction,ViaPad*
%ADD113C,0.50000*%
G04 #@! TA.AperFunction,WasherPad*
%ADD114C,3.10000*%
G04 #@! TA.AperFunction,ComponentPad*
%ADD115C,1.40000*%
%ADD116C,1.00000*%
%ADD117C,0.80000*%
%ADD118C,1.10000*%
G04 #@! TD.AperFunction*
X0Y0D02*
D02*
D111*
X1148797Y2509545D03*
Y3017545D03*
X1471609Y4360295D03*
Y4930295D03*
X1965243Y4645295D03*
Y5215295D03*
Y5621045D03*
X2458877Y4930295D03*
Y5430545D03*
X2672797Y6510045D03*
X2799797Y6637045D03*
X2952511Y5215295D03*
Y5785295D03*
Y7495295D03*
X3349797Y3682670D03*
X3446145Y4930295D03*
X3939779Y2365295D03*
X4006297Y5621045D03*
X4196797Y3652545D03*
X4514297Y4986045D03*
X4927047Y2365295D03*
X5420681Y3790295D03*
X5914315Y2365295D03*
Y4645295D03*
X6407949Y3790295D03*
X6901583Y2365295D03*
Y2935295D03*
X7395217Y3220295D03*
Y3790295D03*
X7888851Y2365295D03*
Y2935295D03*
Y3505295D03*
Y4075295D03*
Y4645295D03*
X8382485Y3220295D03*
Y3790295D03*
D02*
D112*
X1173797Y2534251D02*
X1214973Y2633074D01*
X1256150Y2534251D01*
X1190268Y2575427D02*
X1239679Y2575427D01*
X1173797Y3042251D02*
X1214973Y3141074D01*
X1256150Y3042251D01*
X1190268Y3083427D02*
X1239679Y3083427D01*
X1180297Y3469251D02*
X1180297Y3568074D01*
X1262650D01*
X1246179Y3518663D02*
X1180297Y3518663D01*
Y3469251D02*
X1262650Y3469251D01*
X1180297Y3850251D02*
X1180297Y3949074D01*
X1262650D01*
X1246179Y3899663D02*
X1180297Y3899663D01*
Y3850251D02*
X1262650Y3850251D01*
X1332297Y4565221D02*
X1340532Y4556986D01*
X1357003Y4548751D01*
X1373473Y4556986D01*
X1381709Y4565221D01*
Y4647574D01*
X1398179D01*
X1381709D02*
X1348768Y4647574D01*
X1486797Y5480192D02*
X1486797Y5513133D01*
X1495032Y5529604D01*
X1503268Y5537839D01*
X1519738Y5546074D01*
X1536209D01*
X1552679Y5537839D01*
X1560915Y5529604D01*
X1569150Y5513133D01*
Y5480192D01*
X1560915Y5463721D01*
X1552679Y5455486D01*
X1536209Y5447251D01*
X1519738D01*
X1503268Y5455486D01*
X1495032Y5463721D01*
X1486797Y5480192D01*
X1544444Y5471957D02*
X1569150Y5447251D01*
X1496609Y4385001D02*
X1537785Y4483824D01*
X1578962Y4385001D01*
X1513080Y4426177D02*
X1562491Y4426177D01*
X1496609Y4955001D02*
X1537785Y5053824D01*
X1578962Y4955001D01*
X1513080Y4996177D02*
X1562491Y4996177D01*
X1583297Y2961251D02*
X1583297Y3060074D01*
X1624473Y3010663D01*
X1665650Y3060074D01*
Y2961251D01*
X1833297D02*
X1833297Y3060074D01*
X1874473Y3010663D01*
X1915650Y3060074D01*
Y2961251D01*
X1990243Y4670001D02*
X2031419Y4768824D01*
X2072596Y4670001D01*
X2006714Y4711177D02*
X2056125Y4711177D01*
X1990243Y5240001D02*
X2031419Y5338824D01*
X2072596Y5240001D01*
X2006714Y5281177D02*
X2056125Y5281177D01*
X1990243Y5645751D02*
X2031419Y5744574D01*
X2072596Y5645751D01*
X2006714Y5686927D02*
X2056125Y5686927D01*
X2083297Y2961251D02*
X2083297Y3060074D01*
X2124473Y3010663D01*
X2165650Y3060074D01*
Y2961251D01*
X2180297Y3469251D02*
X2180297Y3568074D01*
X2262650D01*
X2246179Y3518663D02*
X2180297Y3518663D01*
Y3469251D02*
X2262650Y3469251D01*
X2180297Y3850251D02*
X2180297Y3949074D01*
X2262650D01*
X2246179Y3899663D02*
X2180297Y3899663D01*
Y3850251D02*
X2262650Y3850251D01*
X2333297Y2961251D02*
X2333297Y3060074D01*
X2374473Y3010663D01*
X2415650Y3060074D01*
Y2961251D01*
X2483877Y4955001D02*
X2525053Y5053824D01*
X2566230Y4955001D01*
X2500348Y4996177D02*
X2549759Y4996177D01*
X2483877Y5455251D02*
X2525053Y5554074D01*
X2566230Y5455251D01*
X2500348Y5496427D02*
X2549759Y5496427D01*
X2697797Y6534751D02*
X2738973Y6633574D01*
X2780150Y6534751D01*
X2714268Y6575927D02*
X2763679Y6575927D01*
X2824797Y6661751D02*
X2865973Y6760574D01*
X2907150Y6661751D01*
X2841268Y6702927D02*
X2890679Y6702927D01*
X2884297Y2897751D02*
X2884297Y2996574D01*
X2925473Y2947163D01*
X2966650Y2996574D01*
Y2897751D01*
X2977511Y5240001D02*
X3018687Y5338824D01*
X3059864Y5240001D01*
X2993982Y5281177D02*
X3043393Y5281177D01*
X2977511Y5810001D02*
X3018687Y5908824D01*
X3059864Y5810001D01*
X2993982Y5851177D02*
X3043393Y5851177D01*
X2977511Y7520001D02*
X3018687Y7618824D01*
X3059864Y7520001D01*
X2993982Y7561177D02*
X3043393Y7561177D01*
X3246944Y3296413D02*
X3263415Y3288177D01*
X3271650Y3271707D01*
X3263415Y3255236D01*
X3246944Y3247001D01*
X3189297D01*
Y3345824D01*
X3246944D01*
X3263415Y3337589D01*
X3271650Y3321119D01*
X3263415Y3304648D01*
X3246944Y3296413D01*
X3189297D01*
X3234297Y2897751D02*
X3234297Y2996574D01*
X3275473Y2947163D01*
X3316650Y2996574D01*
Y2897751D01*
X3374797Y3707376D02*
X3415973Y3806199D01*
X3457150Y3707376D01*
X3391268Y3748552D02*
X3440679Y3748552D01*
X3471145Y4955001D02*
X3512321Y5053824D01*
X3553498Y4955001D01*
X3487616Y4996177D02*
X3537027Y4996177D01*
X3582297Y4565221D02*
X3590532Y4556986D01*
X3607003Y4548751D01*
X3623473Y4556986D01*
X3631709Y4565221D01*
Y4647574D01*
X3648179D01*
X3631709D02*
X3598768Y4647574D01*
X3902797Y2643751D02*
X3902797Y2742574D01*
X3985150D01*
X3968679Y2693163D02*
X3902797Y2693163D01*
Y2643751D02*
X3985150Y2643751D01*
X3902797Y4421751D02*
X3902797Y4520574D01*
X3985150D01*
X3968679Y4471163D02*
X3902797Y4471163D01*
Y4421751D02*
X3985150Y4421751D01*
X3964779Y2390001D02*
X4005955Y2488824D01*
X4047132Y2390001D01*
X3981250Y2431177D02*
X4030661Y2431177D01*
X3981297Y4755721D02*
X3989532Y4747486D01*
X4006003Y4739251D01*
X4022473Y4747486D01*
X4030709Y4755721D01*
Y4838074D01*
X4047179D01*
X4030709D02*
X3997768Y4838074D01*
X4031297Y5645751D02*
X4072473Y5744574D01*
X4113650Y5645751D01*
X4047768Y5686927D02*
X4097179Y5686927D01*
X4156797Y2643751D02*
X4156797Y2742574D01*
X4239150D01*
X4222679Y2693163D02*
X4156797Y2693163D01*
Y2643751D02*
X4239150Y2643751D01*
X4156797Y4421751D02*
X4156797Y4520574D01*
X4239150D01*
X4222679Y4471163D02*
X4156797Y4471163D01*
Y4421751D02*
X4239150Y4421751D01*
X4221797Y3677251D02*
X4262973Y3776074D01*
X4304150Y3677251D01*
X4238268Y3718427D02*
X4287679Y3718427D01*
X4235297Y4755721D02*
X4243532Y4747486D01*
X4260003Y4739251D01*
X4276473Y4747486D01*
X4284709Y4755721D01*
Y4838074D01*
X4301179D01*
X4284709D02*
X4251768Y4838074D01*
X4410797Y2643751D02*
X4410797Y2742574D01*
X4493150D01*
X4476679Y2693163D02*
X4410797Y2693163D01*
Y2643751D02*
X4493150Y2643751D01*
X4410797Y4421751D02*
X4410797Y4520574D01*
X4493150D01*
X4476679Y4471163D02*
X4410797Y4471163D01*
Y4421751D02*
X4493150Y4421751D01*
X4489297Y4755721D02*
X4497532Y4747486D01*
X4514003Y4739251D01*
X4530473Y4747486D01*
X4538709Y4755721D01*
Y4838074D01*
X4555179D01*
X4538709D02*
X4505768Y4838074D01*
X4539297Y5010751D02*
X4580473Y5109574D01*
X4621650Y5010751D01*
X4555768Y5051927D02*
X4605179Y5051927D01*
X4664797Y2643751D02*
X4664797Y2742574D01*
X4747150D01*
X4730679Y2693163D02*
X4664797Y2693163D01*
Y2643751D02*
X4747150Y2643751D01*
X4664797Y4421751D02*
X4664797Y4520574D01*
X4747150D01*
X4730679Y4471163D02*
X4664797Y4471163D01*
Y4421751D02*
X4747150Y4421751D01*
X4686797Y5480192D02*
X4686797Y5513133D01*
X4695032Y5529604D01*
X4703268Y5537839D01*
X4719738Y5546074D01*
X4736209D01*
X4752679Y5537839D01*
X4760915Y5529604D01*
X4769150Y5513133D01*
Y5480192D01*
X4760915Y5463721D01*
X4752679Y5455486D01*
X4736209Y5447251D01*
X4719738D01*
X4703268Y5455486D01*
X4695032Y5463721D01*
X4686797Y5480192D01*
X4744444Y5471957D02*
X4769150Y5447251D01*
X4743297Y4755721D02*
X4751532Y4747486D01*
X4768003Y4739251D01*
X4784473Y4747486D01*
X4792709Y4755721D01*
Y4838074D01*
X4809179D01*
X4792709D02*
X4759768Y4838074D01*
X4918797Y2643751D02*
X4918797Y2742574D01*
X5001150D01*
X4984679Y2693163D02*
X4918797Y2693163D01*
Y2643751D02*
X5001150Y2643751D01*
X4918797Y4421751D02*
X4918797Y4520574D01*
X5001150D01*
X4984679Y4471163D02*
X4918797Y4471163D01*
Y4421751D02*
X5001150Y4421751D01*
X4952047Y2390001D02*
X4993223Y2488824D01*
X5034400Y2390001D01*
X4968518Y2431177D02*
X5017929Y2431177D01*
X4997297Y4755721D02*
X5005532Y4747486D01*
X5022003Y4739251D01*
X5038473Y4747486D01*
X5046709Y4755721D01*
Y4838074D01*
X5063179D01*
X5046709D02*
X5013768Y4838074D01*
X5172797Y2643751D02*
X5172797Y2742574D01*
X5255150D01*
X5238679Y2693163D02*
X5172797Y2693163D01*
Y2643751D02*
X5255150Y2643751D01*
X5172797Y4421751D02*
X5172797Y4520574D01*
X5255150D01*
X5238679Y4471163D02*
X5172797Y4471163D01*
Y4421751D02*
X5255150Y4421751D01*
X5426797Y2643751D02*
X5426797Y2742574D01*
X5509150D01*
X5492679Y2693163D02*
X5426797Y2693163D01*
Y2643751D02*
X5509150Y2643751D01*
X5426797Y4421751D02*
X5426797Y4520574D01*
X5509150D01*
X5492679Y4471163D02*
X5426797Y4471163D01*
Y4421751D02*
X5509150Y4421751D01*
X5445681Y3815001D02*
X5486857Y3913824D01*
X5528034Y3815001D01*
X5462152Y3856177D02*
X5511563Y3856177D01*
X5680797Y2643751D02*
X5680797Y2742574D01*
X5763150D01*
X5746679Y2693163D02*
X5680797Y2693163D01*
Y2643751D02*
X5763150Y2643751D01*
X5680797Y4421751D02*
X5680797Y4520574D01*
X5763150D01*
X5746679Y4471163D02*
X5680797Y4471163D01*
Y4421751D02*
X5763150Y4421751D01*
X5934797Y2643751D02*
X5934797Y2742574D01*
X6017150D01*
X6000679Y2693163D02*
X5934797Y2693163D01*
Y2643751D02*
X6017150Y2643751D01*
X5934797Y4421751D02*
X5934797Y4520574D01*
X6017150D01*
X6000679Y4471163D02*
X5934797Y4471163D01*
Y4421751D02*
X6017150Y4421751D01*
X5939315Y2390001D02*
X5980491Y2488824D01*
X6021668Y2390001D01*
X5955786Y2431177D02*
X6005197Y2431177D01*
X5939315Y4670001D02*
X5980491Y4768824D01*
X6021668Y4670001D01*
X5955786Y4711177D02*
X6005197Y4711177D01*
X6188797Y2643751D02*
X6188797Y2742574D01*
X6271150D01*
X6254679Y2693163D02*
X6188797Y2693163D01*
Y2643751D02*
X6271150Y2643751D01*
X6188797Y4421751D02*
X6188797Y4520574D01*
X6271150D01*
X6254679Y4471163D02*
X6188797Y4471163D01*
Y4421751D02*
X6271150Y4421751D01*
X6432949Y3815001D02*
X6474125Y3913824D01*
X6515302Y3815001D01*
X6449420Y3856177D02*
X6498831Y3856177D01*
X6442797Y2643751D02*
X6442797Y2742574D01*
X6525150D01*
X6508679Y2693163D02*
X6442797Y2693163D01*
Y2643751D02*
X6525150Y2643751D01*
X6643297Y4739251D02*
X6676238Y4739251D01*
X6659768D02*
X6659768Y4838074D01*
X6643297D02*
X6676238Y4838074D01*
X6696797Y2643751D02*
X6696797Y2742574D01*
X6779150D01*
X6762679Y2693163D02*
X6696797Y2693163D01*
Y2643751D02*
X6779150Y2643751D01*
X6926583Y2390001D02*
X6967759Y2488824D01*
X7008936Y2390001D01*
X6943054Y2431177D02*
X6992465Y2431177D01*
X6926583Y2960001D02*
X6967759Y3058824D01*
X7008936Y2960001D01*
X6943054Y3001177D02*
X6992465Y3001177D01*
X6950797Y2643751D02*
X6950797Y2742574D01*
X7033150D01*
X7016679Y2693163D02*
X6950797Y2693163D01*
Y2643751D02*
X7033150Y2643751D01*
X7151297Y4739251D02*
X7184238Y4739251D01*
X7167768D02*
X7167768Y4838074D01*
X7151297D02*
X7184238Y4838074D01*
X7204797Y2643751D02*
X7204797Y2742574D01*
X7287150D01*
X7270679Y2693163D02*
X7204797Y2693163D01*
Y2643751D02*
X7287150Y2643751D01*
X7420217Y3245001D02*
X7461393Y3343824D01*
X7502570Y3245001D01*
X7436688Y3286177D02*
X7486099Y3286177D01*
X7420217Y3815001D02*
X7461393Y3913824D01*
X7502570Y3815001D01*
X7436688Y3856177D02*
X7486099Y3856177D01*
X7458797Y2643751D02*
X7458797Y2742574D01*
X7541150D01*
X7524679Y2693163D02*
X7458797Y2693163D01*
Y2643751D02*
X7541150Y2643751D01*
X7458797Y4421751D02*
X7458797Y4520574D01*
X7541150D01*
X7524679Y4471163D02*
X7458797Y4471163D01*
Y4421751D02*
X7541150Y4421751D01*
X7712797Y2643751D02*
X7712797Y2742574D01*
X7795150D01*
X7778679Y2693163D02*
X7712797Y2693163D01*
Y2643751D02*
X7795150Y2643751D01*
X7712797Y4421751D02*
X7712797Y4520574D01*
X7795150D01*
X7778679Y4471163D02*
X7712797Y4471163D01*
Y4421751D02*
X7795150Y4421751D01*
X7913851Y2390001D02*
X7955027Y2488824D01*
X7996204Y2390001D01*
X7930322Y2431177D02*
X7979733Y2431177D01*
X7913851Y2960001D02*
X7955027Y3058824D01*
X7996204Y2960001D01*
X7930322Y3001177D02*
X7979733Y3001177D01*
X7913851Y3530001D02*
X7955027Y3628824D01*
X7996204Y3530001D01*
X7930322Y3571177D02*
X7979733Y3571177D01*
X7913851Y4100001D02*
X7955027Y4198824D01*
X7996204Y4100001D01*
X7930322Y4141177D02*
X7979733Y4141177D01*
X7913851Y4670001D02*
X7955027Y4768824D01*
X7996204Y4670001D01*
X7930322Y4711177D02*
X7979733Y4711177D01*
X7966797Y2643751D02*
X7966797Y2742574D01*
X8049150D01*
X8032679Y2693163D02*
X7966797Y2693163D01*
Y2643751D02*
X8049150Y2643751D01*
X7966797Y4421751D02*
X7966797Y4520574D01*
X8049150D01*
X8032679Y4471163D02*
X7966797Y4471163D01*
Y4421751D02*
X8049150Y4421751D01*
X8220797Y2643751D02*
X8220797Y2742574D01*
X8303150D01*
X8286679Y2693163D02*
X8220797Y2693163D01*
Y2643751D02*
X8303150Y2643751D01*
X8220797Y4421751D02*
X8220797Y4520574D01*
X8303150D01*
X8286679Y4471163D02*
X8220797Y4471163D01*
Y4421751D02*
X8303150Y4421751D01*
X8407485Y3245001D02*
X8448661Y3343824D01*
X8489838Y3245001D01*
X8423956Y3286177D02*
X8473367Y3286177D01*
X8407485Y3815001D02*
X8448661Y3913824D01*
X8489838Y3815001D01*
X8423956Y3856177D02*
X8473367Y3856177D01*
X8421297Y4739251D02*
X8454238Y4739251D01*
X8437768D02*
X8437768Y4838074D01*
X8421297D02*
X8454238Y4838074D01*
X8474797Y2643751D02*
X8474797Y2742574D01*
X8557150D01*
X8540679Y2693163D02*
X8474797Y2693163D01*
Y2643751D02*
X8557150Y2643751D01*
X8474797Y4421751D02*
X8474797Y4520574D01*
X8557150D01*
X8540679Y4471163D02*
X8474797Y4471163D01*
Y4421751D02*
X8557150Y4421751D01*
X8489797Y2342721D02*
X8498032Y2334486D01*
X8514503Y2326251D01*
X8530973Y2334486D01*
X8539209Y2342721D01*
Y2425074D01*
X8555679D01*
X8539209D02*
X8506268Y2425074D01*
X8675297Y4739251D02*
X8708238Y4739251D01*
X8691768D02*
X8691768Y4838074D01*
X8675297D02*
X8708238Y4838074D01*
X8728797Y2643751D02*
X8728797Y2742574D01*
X8811150D01*
X8794679Y2693163D02*
X8728797Y2693163D01*
Y2643751D02*
X8811150Y2643751D01*
X8728797Y4421751D02*
X8728797Y4520574D01*
X8811150D01*
X8794679Y4471163D02*
X8728797Y4471163D01*
Y4421751D02*
X8811150Y4421751D01*
X8743797Y2342721D02*
X8752032Y2334486D01*
X8768503Y2326251D01*
X8784973Y2334486D01*
X8793209Y2342721D01*
Y2425074D01*
X8809679D01*
X8793209D02*
X8760268Y2425074D01*
D02*
D113*
X3159297Y3222295D03*
D02*
D114*
X1326797Y5422545D03*
X4526797D03*
D02*
D115*
X1508297Y2936545D03*
X1758297D03*
X2008297D03*
X2258297D03*
X2809297Y2873045D03*
X3159297D03*
D02*
D116*
X6588297Y4714545D03*
X7096297D03*
X8366297D03*
X8620297D03*
D02*
D117*
X1135297Y3444545D03*
Y3825545D03*
X2135297Y3444545D03*
Y3825545D03*
X3857797Y2619045D03*
Y4397045D03*
X4111797Y2619045D03*
Y4397045D03*
X4365797Y2619045D03*
Y4397045D03*
X4619797Y2619045D03*
Y4397045D03*
X4873797Y2619045D03*
Y4397045D03*
X5127797Y2619045D03*
Y4397045D03*
X5381797Y2619045D03*
Y4397045D03*
X5635797Y2619045D03*
Y4397045D03*
X5889797Y2619045D03*
Y4397045D03*
X6143797Y2619045D03*
Y4397045D03*
X6397797Y2619045D03*
X6651797D03*
X6905797D03*
X7159797D03*
X7413797D03*
Y4397045D03*
X7667797Y2619045D03*
Y4397045D03*
X7921797Y2619045D03*
Y4397045D03*
X8175797Y2619045D03*
Y4397045D03*
X8429797Y2619045D03*
Y4397045D03*
X8683797Y2619045D03*
Y4397045D03*
D02*
D118*
X1272297Y4524045D03*
X3522297D03*
X3921297Y4714545D03*
X4175297D03*
X4429297D03*
X4683297D03*
X4937297D03*
X8429797Y2301545D03*
X8683797D03*
X0Y0D02*
M02*
