G04 GENERATED BY PULSONIX 12.5 GERBER.DLL 9449*
G04 #@! TF.GenerationSoftware,Pulsonix,Pulsonix,12.5.9449*
G04 #@! TF.CreationDate,2024-10-09T20:32:21--1:00*
G04 #@! TF.Part,Single*
%FSLAX35Y35*%
%LPD*%
%MOMM*%
G04 #@! TF.FileFunction,Soldermask,Top*
G04 #@! TF.FilePolarity,Negative*
G04 #@! TA.AperFunction,ViaPad*
%ADD111C,0.95400*%
%ADD112C,1.05400*%
G04 #@! TA.AperFunction,ComponentPad*
%ADD113C,2.25400*%
%ADD114C,1.95400*%
G04 #@! TA.AperFunction,SMDPad,CuDef*
%ADD115R,1.55400X0.85400*%
%ADD116R,1.15400X1.65400*%
%ADD117R,1.75400X2.05400*%
%ADD118R,1.65400X1.15400*%
%ADD119R,7.25400X7.25400*%
%ADD120R,2.75400X1.75400*%
G04 #@! TA.AperFunction,ComponentPad*
%ADD121R,2.15900X2.15900*%
%AMT122*0 Octagon pad*4,1,8,0.44714,1.07950,-0.44714,1.07950,-1.07950,0.44714,-1.07950,-0.44714,-0.44714,-1.07950,0.44714,-1.07950,1.07950,-0.44714,1.07950,0.44714,0.44714,1.07950,0*%
%ADD122T122*%
G04 #@! TA.AperFunction,SMDPad,CuDef*
%ADD123R,1.45400X1.35400*%
%ADD124R,1.75400X2.65400*%
G04 #@! TA.AperFunction,ComponentPad*
%ADD125R,1.55400X2.85400*%
%ADD126O,1.55400X2.85400*%
%ADD127C,2.50400*%
G04 #@! TD.AperFunction*
X0Y0D02*
D02*
D111*
X1148797Y2509545D03*
Y3017545D03*
X1471609Y4360295D03*
Y4930295D03*
X1965243Y4645295D03*
Y5215295D03*
Y5621045D03*
X2458877Y4930295D03*
Y5430545D03*
X2672797Y6510045D03*
X2799797Y6637045D03*
X2952511Y5215295D03*
Y5785295D03*
Y7495295D03*
X3349797Y3682670D03*
X3446145Y4930295D03*
X3939779Y2365295D03*
X4006297Y5621045D03*
X4196797Y3652545D03*
X4514297Y4986045D03*
X4927047Y2365295D03*
X5420681Y3790295D03*
X5914315Y2365295D03*
Y4645295D03*
X6407949Y3790295D03*
X6901583Y2365295D03*
Y2935295D03*
X7395217Y3220295D03*
Y3790295D03*
X7888851Y2365295D03*
Y2935295D03*
Y3505295D03*
Y4075295D03*
Y4645295D03*
X8382485Y3220295D03*
Y3790295D03*
D02*
D112*
X3159297Y3222295D03*
D02*
D113*
X1135297Y3444545D03*
Y3825545D03*
X1508297Y2936545D03*
X1758297D03*
X2008297D03*
X2135297Y3444545D03*
Y3825545D03*
X2258297Y2936545D03*
X2809297Y2873045D03*
X3159297D03*
D02*
D114*
X6588297Y4714545D03*
X7096297D03*
X8366297D03*
X8620297D03*
D02*
D115*
X2795797Y7182545D03*
Y7277545D03*
Y7372545D03*
X3057797Y7182545D03*
Y7277545D03*
Y7372545D03*
D02*
D116*
X2831547Y6937045D03*
X3022047D03*
D02*
D117*
X3661797Y3317545D03*
Y3571545D03*
Y3825545D03*
X4561797Y3317545D03*
Y3571545D03*
Y3825545D03*
D02*
D118*
X4873797Y3349295D03*
Y3539795D03*
X5064297Y3349295D03*
Y3539795D03*
D02*
D119*
X2651297Y3698545D03*
D02*
D120*
X3341297Y3468545D03*
Y3928545D03*
D02*
D121*
X4937297Y4714545D03*
X8429797Y2301545D03*
D02*
D122*
X3921297Y4714545D03*
X4175297D03*
X4429297D03*
X4683297D03*
X8683797Y2301545D03*
D02*
D123*
X5254797Y3339545D03*
Y3549545D03*
D02*
D124*
X5889797Y3358545D03*
Y4038545D03*
D02*
D125*
X8683797Y2619045D03*
D02*
D126*
X3857797D03*
Y4397045D03*
X4111797Y2619045D03*
Y4397045D03*
X4365797Y2619045D03*
Y4397045D03*
X4619797Y2619045D03*
Y4397045D03*
X4873797Y2619045D03*
Y4397045D03*
X5127797Y2619045D03*
Y4397045D03*
X5381797Y2619045D03*
Y4397045D03*
X5635797Y2619045D03*
Y4397045D03*
X5889797Y2619045D03*
Y4397045D03*
X6143797Y2619045D03*
Y4397045D03*
X6397797Y2619045D03*
X6651797D03*
X6905797D03*
X7159797D03*
X7413797D03*
Y4397045D03*
X7667797Y2619045D03*
Y4397045D03*
X7921797Y2619045D03*
Y4397045D03*
X8175797Y2619045D03*
Y4397045D03*
X8429797Y2619045D03*
Y4397045D03*
X8683797D03*
D02*
D127*
X1272297Y4524045D03*
X3522297D03*
X0Y0D02*
M02*
