G04 GENERATED BY PULSONIX 12.5 GERBER.DLL 9449*
G04 #@! TF.GenerationSoftware,Pulsonix,Pulsonix,12.5.9449*
G04 #@! TF.CreationDate,2024-10-09T20:32:21--1:00*
G04 #@! TF.Part,Single*
%FSLAX35Y35*%
%LPD*%
%MOMM*%
G04 #@! TF.FileFunction,Legend,Top*
G04 #@! TF.FilePolarity,Positive*
%ADD97C,0.00001*%
G04 #@! TA.AperFunction,Profile*
%ADD98C,0.30000*%
G04 #@! TA.AperFunction,Material*
%ADD102C,0.20000*%
%ADD111C,0.20320*%
G04 #@! TD.AperFunction*
%ADD112C,0.20000*%
G04 #@! TD.AperFunction*
X0Y0D02*
D02*
D97*
X3508801Y2439096D02*
X3603430D01*
Y2443490D01*
X3604016Y2447299D01*
X3604602Y2449936D01*
X3605481Y2451693D01*
X3607238Y2453451D01*
X3609289Y2454623D01*
X3611633Y2455502D01*
X3614270Y2455795D01*
X3617199Y2455502D01*
X3619836Y2454916D01*
X3621887Y2453451D01*
X3623352Y2451986D01*
X3623938Y2450815D01*
X3624524Y2449643D01*
X3625110Y2448178D01*
X3625402Y2446420D01*
X3625695Y2444076D01*
X3625988Y2441733D01*
Y2438803D01*
Y2435873D01*
Y2412729D01*
Y2408041D01*
X3625402Y2404233D01*
X3624524Y2401303D01*
X3623352Y2398959D01*
X3621887Y2397494D01*
X3619836Y2396322D01*
X3617492Y2395443D01*
X3614563D01*
X3611340Y2395736D01*
X3608996Y2396615D01*
X3606652Y2397787D01*
X3604895Y2399838D01*
X3604016Y2402182D01*
X3603430Y2405111D01*
X3603137Y2408627D01*
X3602844Y2412729D01*
Y2414486D01*
X3572375D01*
Y2362045D01*
X3602844D01*
Y2366147D01*
X3603137Y2369369D01*
X3603430Y2372299D01*
X3604309Y2374936D01*
X3605481Y2376986D01*
X3607238Y2379037D01*
X3609289Y2380209D01*
X3611633Y2381088D01*
X3614270Y2381381D01*
X3617199Y2381088D01*
X3619836Y2380502D01*
X3621887Y2379330D01*
X3623352Y2377865D01*
X3624524Y2375815D01*
X3625402Y2372885D01*
X3625988Y2369369D01*
Y2365268D01*
Y2335678D01*
Y2331869D01*
X3625402Y2328354D01*
X3624231Y2325717D01*
X3623059Y2323959D01*
X3621301Y2322494D01*
X3619250Y2321615D01*
X3616906Y2321029D01*
X3614270Y2320736D01*
X3611340Y2321029D01*
X3608996Y2321908D01*
X3606945Y2323080D01*
X3605481Y2324545D01*
X3604602Y2326596D01*
X3604016Y2329233D01*
X3603430Y2333041D01*
Y2337436D01*
X3508801D01*
X3508508Y2333041D01*
X3507922Y2329233D01*
X3507043Y2326596D01*
X3506164Y2324545D01*
X3504699Y2323080D01*
X3502649Y2321908D01*
X3500012Y2321029D01*
X3497082Y2320736D01*
X3494445Y2321029D01*
X3492102Y2321615D01*
X3490344Y2322494D01*
X3488586Y2323959D01*
X3487121Y2326010D01*
X3486242Y2328647D01*
X3485656Y2332162D01*
Y2336264D01*
Y2364096D01*
Y2368783D01*
X3486242Y2372299D01*
X3486828Y2375229D01*
X3488000Y2377279D01*
X3489465Y2379037D01*
X3491516Y2380502D01*
X3494152Y2381088D01*
X3497082Y2381381D01*
X3500012Y2381088D01*
X3502649Y2380209D01*
X3504699Y2378744D01*
X3506457Y2376693D01*
X3507336Y2374350D01*
X3508215Y2371420D01*
X3508508Y2367611D01*
X3508801Y2363510D01*
Y2362045D01*
X3550110D01*
Y2414486D01*
X3508801D01*
Y2410385D01*
X3508508Y2406869D01*
X3507922Y2403940D01*
X3507336Y2401596D01*
X3506164Y2399545D01*
X3504406Y2397494D01*
X3502356Y2396322D01*
X3500012Y2395736D01*
X3497082Y2395443D01*
X3494152Y2395736D01*
X3491516Y2396322D01*
X3489465Y2397494D01*
X3488000Y2399545D01*
X3486828Y2401596D01*
X3486242Y2404525D01*
X3485656Y2408627D01*
Y2413900D01*
Y2440561D01*
Y2444662D01*
X3486242Y2447885D01*
X3487121Y2450522D01*
X3488586Y2452572D01*
X3490344Y2454037D01*
X3492102Y2454916D01*
X3494445Y2455502D01*
X3497082Y2455795D01*
X3500012Y2455502D01*
X3502356Y2454916D01*
X3504406Y2453451D01*
X3506164Y2451986D01*
X3507043Y2449936D01*
X3507922Y2447299D01*
X3508508Y2443490D01*
X3508801Y2439096D01*
G36*
X3508801Y2439096D02*
X3603430D01*
Y2443490D01*
X3604016Y2447299D01*
X3604602Y2449936D01*
X3605481Y2451693D01*
X3607238Y2453451D01*
X3609289Y2454623D01*
X3611633Y2455502D01*
X3614270Y2455795D01*
X3617199Y2455502D01*
X3619836Y2454916D01*
X3621887Y2453451D01*
X3623352Y2451986D01*
X3623938Y2450815D01*
X3624524Y2449643D01*
X3625110Y2448178D01*
X3625402Y2446420D01*
X3625695Y2444076D01*
X3625988Y2441733D01*
Y2438803D01*
Y2435873D01*
Y2412729D01*
Y2408041D01*
X3625402Y2404233D01*
X3624524Y2401303D01*
X3623352Y2398959D01*
X3621887Y2397494D01*
X3619836Y2396322D01*
X3617492Y2395443D01*
X3614563D01*
X3611340Y2395736D01*
X3608996Y2396615D01*
X3606652Y2397787D01*
X3604895Y2399838D01*
X3604016Y2402182D01*
X3603430Y2405111D01*
X3603137Y2408627D01*
X3602844Y2412729D01*
Y2414486D01*
X3572375D01*
Y2362045D01*
X3602844D01*
Y2366147D01*
X3603137Y2369369D01*
X3603430Y2372299D01*
X3604309Y2374936D01*
X3605481Y2376986D01*
X3607238Y2379037D01*
X3609289Y2380209D01*
X3611633Y2381088D01*
X3614270Y2381381D01*
X3617199Y2381088D01*
X3619836Y2380502D01*
X3621887Y2379330D01*
X3623352Y2377865D01*
X3624524Y2375815D01*
X3625402Y2372885D01*
X3625988Y2369369D01*
Y2365268D01*
Y2335678D01*
Y2331869D01*
X3625402Y2328354D01*
X3624231Y2325717D01*
X3623059Y2323959D01*
X3621301Y2322494D01*
X3619250Y2321615D01*
X3616906Y2321029D01*
X3614270Y2320736D01*
X3611340Y2321029D01*
X3608996Y2321908D01*
X3606945Y2323080D01*
X3605481Y2324545D01*
X3604602Y2326596D01*
X3604016Y2329233D01*
X3603430Y2333041D01*
Y2337436D01*
X3508801D01*
X3508508Y2333041D01*
X3507922Y2329233D01*
X3507043Y2326596D01*
X3506164Y2324545D01*
X3504699Y2323080D01*
X3502649Y2321908D01*
X3500012Y2321029D01*
X3497082Y2320736D01*
X3494445Y2321029D01*
X3492102Y2321615D01*
X3490344Y2322494D01*
X3488586Y2323959D01*
X3487121Y2326010D01*
X3486242Y2328647D01*
X3485656Y2332162D01*
Y2336264D01*
Y2364096D01*
Y2368783D01*
X3486242Y2372299D01*
X3486828Y2375229D01*
X3488000Y2377279D01*
X3489465Y2379037D01*
X3491516Y2380502D01*
X3494152Y2381088D01*
X3497082Y2381381D01*
X3500012Y2381088D01*
X3502649Y2380209D01*
X3504699Y2378744D01*
X3506457Y2376693D01*
X3507336Y2374350D01*
X3508215Y2371420D01*
X3508508Y2367611D01*
X3508801Y2363510D01*
Y2362045D01*
X3550110D01*
Y2414486D01*
X3508801D01*
Y2410385D01*
X3508508Y2406869D01*
X3507922Y2403940D01*
X3507336Y2401596D01*
X3506164Y2399545D01*
X3504406Y2397494D01*
X3502356Y2396322D01*
X3500012Y2395736D01*
X3497082Y2395443D01*
X3494152Y2395736D01*
X3491516Y2396322D01*
X3489465Y2397494D01*
X3488000Y2399545D01*
X3486828Y2401596D01*
X3486242Y2404525D01*
X3485656Y2408627D01*
Y2413900D01*
Y2440561D01*
Y2444662D01*
X3486242Y2447885D01*
X3487121Y2450522D01*
X3488586Y2452572D01*
X3490344Y2454037D01*
X3492102Y2454916D01*
X3494445Y2455502D01*
X3497082Y2455795D01*
X3500012Y2455502D01*
X3502356Y2454916D01*
X3504406Y2453451D01*
X3506164Y2451986D01*
X3507043Y2449936D01*
X3507922Y2447299D01*
X3508508Y2443490D01*
X3508801Y2439096D01*
G37*
X3612805Y2587631D02*
X3615442Y2587338D01*
X3617785Y2586752D01*
X3619543Y2585580D01*
X3621301Y2584115D01*
X3622766Y2582065D01*
X3623645Y2580014D01*
X3624231Y2577670D01*
Y2574740D01*
Y2557455D01*
Y2555404D01*
X3623645Y2553354D01*
X3622766Y2551596D01*
X3621887Y2549838D01*
X3618371Y2547494D01*
X3613684Y2546029D01*
X3616320Y2542514D01*
X3618664Y2538412D01*
X3620715Y2534604D01*
X3622473Y2530209D01*
X3624524Y2524643D01*
X3625988Y2519076D01*
X3626867Y2513217D01*
X3627160Y2507065D01*
X3626867Y2502670D01*
X3626574Y2498568D01*
X3625695Y2494760D01*
X3624524Y2490951D01*
X3623059Y2487436D01*
X3621301Y2483920D01*
X3619250Y2480990D01*
X3616906Y2478061D01*
X3614270Y2475424D01*
X3611340Y2473080D01*
X3608410Y2471029D01*
X3605188Y2469565D01*
X3601672Y2468393D01*
X3598156Y2467514D01*
X3594348Y2466928D01*
X3590539Y2466635D01*
X3585852Y2466928D01*
X3581164Y2467514D01*
X3577063Y2468686D01*
X3573254Y2470443D01*
X3569445Y2472494D01*
X3566223Y2475131D01*
X3563000Y2478354D01*
X3560363Y2481869D01*
X3558020Y2485678D01*
X3555676Y2489779D01*
X3553918Y2494174D01*
X3552453Y2498861D01*
X3551574Y2503842D01*
X3550695Y2509408D01*
X3550110Y2515268D01*
Y2521420D01*
Y2528158D01*
X3550695Y2534897D01*
X3552160Y2544272D01*
X3548352Y2543686D01*
X3545129Y2542514D01*
X3542199Y2541049D01*
X3539856Y2538998D01*
X3537805Y2536361D01*
X3536047Y2532553D01*
X3535168Y2528158D01*
X3534875Y2522885D01*
X3535168Y2519076D01*
X3536047Y2514682D01*
X3537219Y2509994D01*
X3539270Y2505014D01*
X3541320Y2499740D01*
X3542785Y2495639D01*
X3543664Y2492123D01*
X3543957Y2489486D01*
X3543664Y2487143D01*
X3543078Y2485092D01*
X3541906Y2483041D01*
X3540442Y2481576D01*
X3538391Y2480111D01*
X3536340Y2479233D01*
X3533703Y2478647D01*
X3531067Y2478354D01*
X3529016Y2478647D01*
X3526672Y2479233D01*
X3524914Y2480404D01*
X3522863Y2482162D01*
X3521106Y2484213D01*
X3519641Y2486850D01*
X3518176Y2489779D01*
X3516711Y2493295D01*
X3514660Y2500033D01*
X3513195Y2507943D01*
X3512317Y2516440D01*
X3512024Y2526108D01*
X3512317Y2531088D01*
X3512902Y2535775D01*
X3513488Y2540170D01*
X3514953Y2544272D01*
X3516418Y2548080D01*
X3518176Y2551596D01*
X3520520Y2554818D01*
X3522863Y2557748D01*
X3525793Y2560385D01*
X3529016Y2562729D01*
X3532531Y2564486D01*
X3536340Y2565951D01*
X3540442Y2567416D01*
X3544836Y2568002D01*
X3549524Y2568588D01*
X3554797Y2568881D01*
X3601379D01*
Y2570639D01*
X3601672Y2574740D01*
X3601965Y2578256D01*
X3602551Y2580893D01*
X3603430Y2583236D01*
X3605188Y2584994D01*
X3607238Y2586459D01*
X3609582Y2587338D01*
X3612805Y2587631D01*
X3572375Y2535483D02*
X3571789Y2530209D01*
X3571496Y2524643D01*
X3572082Y2517025D01*
X3572961Y2510580D01*
X3574426Y2504721D01*
X3576770Y2499740D01*
X3579406Y2496225D01*
X3582336Y2493881D01*
X3585559Y2492123D01*
X3589074Y2491830D01*
X3592004Y2492123D01*
X3594348Y2493002D01*
X3596399Y2494467D01*
X3598449Y2496518D01*
X3600500Y2499154D01*
X3601672Y2502377D01*
X3602551Y2505893D01*
X3602844Y2509701D01*
X3602551Y2516147D01*
X3601086Y2522299D01*
X3599035Y2528451D01*
X3595813Y2534018D01*
X3594348Y2536361D01*
X3592883Y2538412D01*
X3591125Y2540170D01*
X3589660Y2541635D01*
X3588195Y2542807D01*
X3586731Y2543686D01*
X3585266Y2543979D01*
X3583801Y2544272D01*
X3574133D01*
X3572375Y2535483D01*
X3512268Y2518051D02*
G36*
X3512268Y2518051D02*
X3512317Y2516440D01*
X3513195Y2507943D01*
X3514660Y2500033D01*
X3516711Y2493295D01*
X3518176Y2489779D01*
X3519641Y2486850D01*
X3521106Y2484213D01*
X3522863Y2482162D01*
X3524914Y2480404D01*
X3526672Y2479233D01*
X3529016Y2478647D01*
X3531067Y2478354D01*
X3533703Y2478647D01*
X3536340Y2479233D01*
X3538391Y2480111D01*
X3540442Y2481576D01*
X3541906Y2483041D01*
X3543078Y2485092D01*
X3543664Y2487143D01*
X3543957Y2489486D01*
X3543664Y2492123D01*
X3542785Y2495639D01*
X3541320Y2499740D01*
X3539270Y2505014D01*
X3537219Y2509994D01*
X3536047Y2514682D01*
X3535373Y2518051D01*
X3512268D01*
G37*
X3512024Y2526108D02*
G36*
X3512024Y2526108D02*
X3512268Y2518051D01*
X3535373D01*
X3535168Y2519076D01*
X3534875Y2522885D01*
X3535168Y2528158D01*
X3536047Y2532553D01*
X3537805Y2536361D01*
X3539856Y2538998D01*
X3542199Y2541049D01*
X3545129Y2542514D01*
X3548352Y2543686D01*
X3552160Y2544272D01*
X3550695Y2534897D01*
X3550110Y2528158D01*
Y2521420D01*
Y2518051D01*
X3572003D01*
X3571496Y2524643D01*
X3571789Y2530209D01*
X3572375Y2535483D01*
X3574133Y2544272D01*
X3583801D01*
X3585266Y2543979D01*
X3586731Y2543686D01*
X3588195Y2542807D01*
X3589660Y2541635D01*
X3591125Y2540170D01*
X3592883Y2538412D01*
X3594348Y2536361D01*
X3595813Y2534018D01*
X3599035Y2528451D01*
X3601086Y2522299D01*
X3602098Y2518051D01*
X3626142D01*
X3625988Y2519076D01*
X3624524Y2524643D01*
X3622473Y2530209D01*
X3620715Y2534604D01*
X3618664Y2538412D01*
X3616320Y2542514D01*
X3613684Y2546029D01*
X3618371Y2547494D01*
X3621887Y2549838D01*
X3622766Y2551596D01*
X3623645Y2553354D01*
X3624231Y2555404D01*
Y2557455D01*
Y2574740D01*
Y2577670D01*
X3623645Y2580014D01*
X3622766Y2582065D01*
X3621301Y2584115D01*
X3619543Y2585580D01*
X3617785Y2586752D01*
X3615442Y2587338D01*
X3612805Y2587631D01*
X3609582Y2587338D01*
X3607238Y2586459D01*
X3605188Y2584994D01*
X3603430Y2583236D01*
X3602551Y2580893D01*
X3601965Y2578256D01*
X3601672Y2574740D01*
X3601379Y2570639D01*
Y2568881D01*
X3554797D01*
X3549524Y2568588D01*
X3544836Y2568002D01*
X3540442Y2567416D01*
X3536340Y2565951D01*
X3532531Y2564486D01*
X3529016Y2562729D01*
X3525793Y2560385D01*
X3522863Y2557748D01*
X3520520Y2554818D01*
X3518176Y2551596D01*
X3516418Y2548080D01*
X3514953Y2544272D01*
X3513488Y2540170D01*
X3512902Y2535775D01*
X3512317Y2531088D01*
X3512024Y2526108D01*
G37*
X3550110Y2518051D02*
G36*
X3550110Y2518051D02*
Y2515268D01*
X3550695Y2509408D01*
X3551574Y2503842D01*
X3552453Y2498861D01*
X3553918Y2494174D01*
X3555676Y2489779D01*
X3558020Y2485678D01*
X3560363Y2481869D01*
X3563000Y2478354D01*
X3566223Y2475131D01*
X3569445Y2472494D01*
X3573254Y2470443D01*
X3577063Y2468686D01*
X3581164Y2467514D01*
X3585852Y2466928D01*
X3590539Y2466635D01*
X3594348Y2466928D01*
X3598156Y2467514D01*
X3601672Y2468393D01*
X3605188Y2469565D01*
X3608410Y2471029D01*
X3611340Y2473080D01*
X3614270Y2475424D01*
X3616906Y2478061D01*
X3619250Y2480990D01*
X3621301Y2483920D01*
X3623059Y2487436D01*
X3624524Y2490951D01*
X3625695Y2494760D01*
X3626574Y2498568D01*
X3626867Y2502670D01*
X3627160Y2507065D01*
X3626867Y2513217D01*
X3626142Y2518051D01*
X3602098D01*
X3602551Y2516147D01*
X3602844Y2509701D01*
X3602551Y2505893D01*
X3601672Y2502377D01*
X3600500Y2499154D01*
X3598449Y2496518D01*
X3596399Y2494467D01*
X3594348Y2493002D01*
X3592004Y2492123D01*
X3589074Y2491830D01*
X3585559Y2492123D01*
X3582336Y2493881D01*
X3579406Y2496225D01*
X3576770Y2499740D01*
X3574426Y2504721D01*
X3572961Y2510580D01*
X3572082Y2517025D01*
X3572003Y2518051D01*
X3550110D01*
G37*
X3497082Y2727377D02*
X3500012Y2727084D01*
X3502649Y2726205D01*
X3504699Y2725033D01*
X3506457Y2723275D01*
X3507336Y2721225D01*
X3508215Y2718588D01*
X3508508Y2715072D01*
X3508801Y2710678D01*
Y2700131D01*
X3576184D01*
X3582629Y2699838D01*
X3588488Y2699252D01*
X3594055Y2698373D01*
X3599328Y2697201D01*
X3604016Y2695443D01*
X3608117Y2693393D01*
X3611926Y2691049D01*
X3615149Y2688412D01*
X3618078Y2685190D01*
X3620422Y2681381D01*
X3622766Y2677572D01*
X3624524Y2672885D01*
X3625695Y2668197D01*
X3626867Y2662631D01*
X3627453Y2657065D01*
Y2650912D01*
Y2645346D01*
X3626867Y2640072D01*
X3626281Y2635092D01*
X3625110Y2630111D01*
X3623938Y2625424D01*
X3621887Y2620443D01*
X3619836Y2615463D01*
X3617199Y2610483D01*
X3616027Y2608139D01*
X3614563Y2606381D01*
X3613391Y2604916D01*
X3611926Y2604037D01*
X3610168Y2603451D01*
X3608117Y2602865D01*
X3605481Y2602572D01*
X3602551D01*
X3576477D01*
X3572082D01*
X3568860Y2603158D01*
X3566223Y2603744D01*
X3564465Y2604916D01*
X3563000Y2606381D01*
X3561828Y2608432D01*
X3561242Y2610483D01*
X3560949Y2612826D01*
X3561535Y2616635D01*
X3562707Y2619565D01*
X3564758Y2622201D01*
X3567688Y2623666D01*
X3569152Y2624252D01*
X3570910Y2624838D01*
X3572082D01*
X3573547Y2625131D01*
X3575012D01*
X3577063D01*
X3578235D01*
X3584387Y2625424D01*
X3589953Y2626303D01*
X3593469Y2627475D01*
X3596692Y2629525D01*
X3599328Y2631576D01*
X3601965Y2634213D01*
X3603723Y2637729D01*
X3605188Y2641244D01*
X3605774Y2645346D01*
X3606067Y2649740D01*
X3605774Y2656186D01*
X3604309Y2661459D01*
X3601965Y2665854D01*
X3598742Y2669369D01*
X3596692Y2670541D01*
X3594641Y2672006D01*
X3591711Y2672885D01*
X3588781Y2673764D01*
X3585266Y2674350D01*
X3581750Y2674936D01*
X3577649Y2675229D01*
X3573254D01*
X3508801D01*
Y2659115D01*
X3508508Y2654428D01*
X3508215Y2650912D01*
X3507336Y2648275D01*
X3506457Y2646225D01*
X3504699Y2644467D01*
X3502649Y2643002D01*
X3500012Y2642416D01*
X3497082Y2642123D01*
X3494445D01*
X3492102Y2642709D01*
X3490344Y2643881D01*
X3488586Y2645053D01*
X3487121Y2646811D01*
X3486242Y2648861D01*
X3485656Y2651205D01*
Y2653842D01*
Y2715951D01*
Y2718588D01*
X3486242Y2720932D01*
X3487414Y2722690D01*
X3488879Y2724447D01*
X3490637Y2725619D01*
X3492395Y2726498D01*
X3494738Y2727084D01*
X3497082Y2727377D01*
G36*
X3497082Y2727377D02*
X3500012Y2727084D01*
X3502649Y2726205D01*
X3504699Y2725033D01*
X3506457Y2723275D01*
X3507336Y2721225D01*
X3508215Y2718588D01*
X3508508Y2715072D01*
X3508801Y2710678D01*
Y2700131D01*
X3576184D01*
X3582629Y2699838D01*
X3588488Y2699252D01*
X3594055Y2698373D01*
X3599328Y2697201D01*
X3604016Y2695443D01*
X3608117Y2693393D01*
X3611926Y2691049D01*
X3615149Y2688412D01*
X3618078Y2685190D01*
X3620422Y2681381D01*
X3622766Y2677572D01*
X3624524Y2672885D01*
X3625695Y2668197D01*
X3626867Y2662631D01*
X3627453Y2657065D01*
Y2650912D01*
Y2645346D01*
X3626867Y2640072D01*
X3626281Y2635092D01*
X3625110Y2630111D01*
X3623938Y2625424D01*
X3621887Y2620443D01*
X3619836Y2615463D01*
X3617199Y2610483D01*
X3616027Y2608139D01*
X3614563Y2606381D01*
X3613391Y2604916D01*
X3611926Y2604037D01*
X3610168Y2603451D01*
X3608117Y2602865D01*
X3605481Y2602572D01*
X3602551D01*
X3576477D01*
X3572082D01*
X3568860Y2603158D01*
X3566223Y2603744D01*
X3564465Y2604916D01*
X3563000Y2606381D01*
X3561828Y2608432D01*
X3561242Y2610483D01*
X3560949Y2612826D01*
X3561535Y2616635D01*
X3562707Y2619565D01*
X3564758Y2622201D01*
X3567688Y2623666D01*
X3569152Y2624252D01*
X3570910Y2624838D01*
X3572082D01*
X3573547Y2625131D01*
X3575012D01*
X3577063D01*
X3578235D01*
X3584387Y2625424D01*
X3589953Y2626303D01*
X3593469Y2627475D01*
X3596692Y2629525D01*
X3599328Y2631576D01*
X3601965Y2634213D01*
X3603723Y2637729D01*
X3605188Y2641244D01*
X3605774Y2645346D01*
X3606067Y2649740D01*
X3605774Y2656186D01*
X3604309Y2661459D01*
X3601965Y2665854D01*
X3598742Y2669369D01*
X3596692Y2670541D01*
X3594641Y2672006D01*
X3591711Y2672885D01*
X3588781Y2673764D01*
X3585266Y2674350D01*
X3581750Y2674936D01*
X3577649Y2675229D01*
X3573254D01*
X3508801D01*
Y2659115D01*
X3508508Y2654428D01*
X3508215Y2650912D01*
X3507336Y2648275D01*
X3506457Y2646225D01*
X3504699Y2644467D01*
X3502649Y2643002D01*
X3500012Y2642416D01*
X3497082Y2642123D01*
X3494445D01*
X3492102Y2642709D01*
X3490344Y2643881D01*
X3488586Y2645053D01*
X3487121Y2646811D01*
X3486242Y2648861D01*
X3485656Y2651205D01*
Y2653842D01*
Y2715951D01*
Y2718588D01*
X3486242Y2720932D01*
X3487414Y2722690D01*
X3488879Y2724447D01*
X3490637Y2725619D01*
X3492395Y2726498D01*
X3494738Y2727084D01*
X3497082Y2727377D01*
G37*
X3569445Y2846029D02*
X3575598Y2845736D01*
X3581457Y2845150D01*
X3587317Y2843686D01*
X3592590Y2841928D01*
X3597570Y2839291D01*
X3602258Y2836361D01*
X3606945Y2832846D01*
X3611047Y2828744D01*
X3614856Y2824350D01*
X3618078Y2819662D01*
X3620715Y2814389D01*
X3623059Y2809115D01*
X3624817Y2803256D01*
X3625988Y2797397D01*
X3626867Y2790951D01*
X3627160Y2784213D01*
X3626867Y2777475D01*
X3625988Y2771322D01*
X3624817Y2765170D01*
X3623059Y2759604D01*
X3620715Y2754330D01*
X3618078Y2749057D01*
X3614856Y2744369D01*
X3611047Y2739975D01*
X3606945Y2735873D01*
X3602258Y2732358D01*
X3597570Y2729428D01*
X3592590Y2726791D01*
X3587317Y2725033D01*
X3581750Y2723568D01*
X3575891Y2722983D01*
X3569738Y2722690D01*
X3563586Y2722983D01*
X3557434Y2723568D01*
X3551867Y2725033D01*
X3546594Y2726791D01*
X3541613Y2729428D01*
X3536926Y2732358D01*
X3532238Y2735873D01*
X3528137Y2739975D01*
X3524328Y2744369D01*
X3521106Y2749057D01*
X3518469Y2754330D01*
X3516125Y2759604D01*
X3514367Y2765170D01*
X3513195Y2771322D01*
X3512317Y2777768D01*
X3512024Y2784213D01*
X3512317Y2790951D01*
X3513195Y2797397D01*
X3514367Y2803256D01*
X3516125Y2809115D01*
X3518469Y2814389D01*
X3521106Y2819662D01*
X3524328Y2824350D01*
X3528137Y2828744D01*
X3532238Y2832846D01*
X3536926Y2836361D01*
X3541613Y2839291D01*
X3546594Y2841928D01*
X3551867Y2843686D01*
X3557434Y2845150D01*
X3563293Y2845736D01*
X3569445Y2846029D01*
Y2749350D02*
X3573254Y2749643D01*
X3576770Y2749936D01*
X3580285Y2750815D01*
X3583508Y2751693D01*
X3586438Y2753158D01*
X3589367Y2754916D01*
X3592004Y2756967D01*
X3594641Y2759018D01*
X3596985Y2761654D01*
X3599035Y2764291D01*
X3600500Y2767221D01*
X3601965Y2770150D01*
X3603137Y2773666D01*
X3603723Y2776889D01*
X3604309Y2780697D01*
Y2784506D01*
Y2788022D01*
X3603723Y2791830D01*
X3603137Y2795346D01*
X3601965Y2798568D01*
X3600500Y2801498D01*
X3599035Y2804428D01*
X3596985Y2807065D01*
X3594641Y2809701D01*
X3592004Y2812045D01*
X3589367Y2814096D01*
X3586438Y2815854D01*
X3583508Y2817025D01*
X3580285Y2818197D01*
X3577063Y2819076D01*
X3573254Y2819369D01*
X3569738Y2819662D01*
X3565930Y2819369D01*
X3562414Y2819076D01*
X3558899Y2818197D01*
X3555676Y2817025D01*
X3552746Y2815854D01*
X3549817Y2814096D01*
X3546887Y2812045D01*
X3544543Y2809701D01*
X3542199Y2807065D01*
X3540149Y2804428D01*
X3538391Y2801498D01*
X3536926Y2798568D01*
X3536047Y2795346D01*
X3535168Y2791830D01*
X3534875Y2788022D01*
X3534582Y2784506D01*
X3534875Y2780697D01*
X3535168Y2776889D01*
X3536047Y2773666D01*
X3536926Y2770150D01*
X3538391Y2767221D01*
X3540149Y2764291D01*
X3542199Y2761654D01*
X3544543Y2759018D01*
X3546887Y2756967D01*
X3549817Y2754916D01*
X3552453Y2753158D01*
X3555676Y2751693D01*
X3558899Y2750815D01*
X3562121Y2749936D01*
X3565637Y2749643D01*
X3569445Y2749350D01*
X3512037Y2784506D02*
G36*
X3512037Y2784506D02*
X3534582D01*
X3534875Y2788022D01*
X3535168Y2791830D01*
X3536047Y2795346D01*
X3536926Y2798568D01*
X3538391Y2801498D01*
X3540149Y2804428D01*
X3542199Y2807065D01*
X3544543Y2809701D01*
X3546887Y2812045D01*
X3549817Y2814096D01*
X3552746Y2815854D01*
X3555676Y2817025D01*
X3558899Y2818197D01*
X3562414Y2819076D01*
X3565930Y2819369D01*
X3569738Y2819662D01*
X3573254Y2819369D01*
X3577063Y2819076D01*
X3580285Y2818197D01*
X3583508Y2817025D01*
X3586438Y2815854D01*
X3589367Y2814096D01*
X3592004Y2812045D01*
X3594641Y2809701D01*
X3596985Y2807065D01*
X3599035Y2804428D01*
X3600500Y2801498D01*
X3601965Y2798568D01*
X3603137Y2795346D01*
X3603723Y2791830D01*
X3604309Y2788022D01*
Y2784506D01*
X3627147D01*
X3626867Y2790951D01*
X3625988Y2797397D01*
X3624817Y2803256D01*
X3623059Y2809115D01*
X3620715Y2814389D01*
X3618078Y2819662D01*
X3614856Y2824350D01*
X3611047Y2828744D01*
X3606945Y2832846D01*
X3602258Y2836361D01*
X3597570Y2839291D01*
X3592590Y2841928D01*
X3587317Y2843686D01*
X3581457Y2845150D01*
X3575598Y2845736D01*
X3569445Y2846029D01*
X3563293Y2845736D01*
X3557434Y2845150D01*
X3551867Y2843686D01*
X3546594Y2841928D01*
X3541613Y2839291D01*
X3536926Y2836361D01*
X3532238Y2832846D01*
X3528137Y2828744D01*
X3524328Y2824350D01*
X3521106Y2819662D01*
X3518469Y2814389D01*
X3516125Y2809115D01*
X3514367Y2803256D01*
X3513195Y2797397D01*
X3512317Y2790951D01*
X3512037Y2784506D01*
G37*
X3512024Y2784213D02*
G36*
X3512024Y2784213D02*
X3512317Y2777768D01*
X3513195Y2771322D01*
X3514367Y2765170D01*
X3516125Y2759604D01*
X3518469Y2754330D01*
X3521106Y2749057D01*
X3524328Y2744369D01*
X3528137Y2739975D01*
X3532238Y2735873D01*
X3536926Y2732358D01*
X3541613Y2729428D01*
X3546594Y2726791D01*
X3551867Y2725033D01*
X3557434Y2723568D01*
X3563586Y2722983D01*
X3569738Y2722690D01*
X3575891Y2722983D01*
X3581750Y2723568D01*
X3587317Y2725033D01*
X3592590Y2726791D01*
X3597570Y2729428D01*
X3602258Y2732358D01*
X3606945Y2735873D01*
X3611047Y2739975D01*
X3614856Y2744369D01*
X3618078Y2749057D01*
X3620715Y2754330D01*
X3623059Y2759604D01*
X3624817Y2765170D01*
X3625988Y2771322D01*
X3626867Y2777475D01*
X3627160Y2784213D01*
X3627147Y2784506D01*
X3604309D01*
Y2780697D01*
X3603723Y2776889D01*
X3603137Y2773666D01*
X3601965Y2770150D01*
X3600500Y2767221D01*
X3599035Y2764291D01*
X3596985Y2761654D01*
X3594641Y2759018D01*
X3592004Y2756967D01*
X3589367Y2754916D01*
X3586438Y2753158D01*
X3583508Y2751693D01*
X3580285Y2750815D01*
X3576770Y2749936D01*
X3573254Y2749643D01*
X3569445Y2749350D01*
X3565637Y2749643D01*
X3562121Y2749936D01*
X3558899Y2750815D01*
X3555676Y2751693D01*
X3552453Y2753158D01*
X3549817Y2754916D01*
X3546887Y2756967D01*
X3544543Y2759018D01*
X3542199Y2761654D01*
X3540149Y2764291D01*
X3538391Y2767221D01*
X3536926Y2770150D01*
X3536047Y2773666D01*
X3535168Y2776889D01*
X3534875Y2780697D01*
X3534582Y2784506D01*
X3512037D01*
X3512024Y2784213D01*
G37*
X3587610Y2272983D02*
X3585852Y2276205D01*
X3584973Y2279428D01*
X3584680Y2283236D01*
X3584973Y2286752D01*
X3585852Y2290268D01*
X3587610Y2293490D01*
X3589953Y2296127D01*
X3592883Y2298471D01*
X3596106Y2300229D01*
X3599621Y2301108D01*
X3603137Y2301693D01*
X3606652Y2301108D01*
X3610461Y2300229D01*
X3613391Y2298471D01*
X3616320Y2296420D01*
X3618664Y2293490D01*
X3620422Y2290268D01*
X3621301Y2286752D01*
X3621594Y2283236D01*
X3621301Y2279428D01*
X3619250Y2274447D01*
X3621594Y2268002D01*
X3623352Y2261850D01*
X3624817Y2255990D01*
X3625695Y2249838D01*
X3625988Y2243686D01*
Y2237826D01*
X3625695Y2231381D01*
X3625110Y2225229D01*
X3623938Y2219662D01*
X3622180Y2214096D01*
X3620129Y2209115D01*
X3617492Y2204428D01*
X3614563Y2199740D01*
X3611047Y2195639D01*
X3604895Y2190365D01*
X3597863Y2185971D01*
X3589953Y2182748D01*
X3581164Y2180404D01*
X3577649Y2177475D01*
X3573547Y2175424D01*
X3568860Y2174838D01*
X3563879Y2175131D01*
X3560656Y2176303D01*
X3557434Y2177768D01*
X3554797Y2179818D01*
X3552453Y2182455D01*
X3546008Y2184799D01*
X3539856Y2188022D01*
X3534289Y2192123D01*
X3529016Y2196811D01*
X3525500Y2201205D01*
X3522277Y2205893D01*
X3519641Y2210873D01*
X3517590Y2216147D01*
X3515832Y2221713D01*
X3514660Y2227865D01*
X3513781Y2234018D01*
X3513488Y2240463D01*
X3513781Y2246615D01*
X3514367Y2252182D01*
X3515539Y2257455D01*
X3517297Y2262729D01*
X3519348Y2267709D01*
X3521692Y2272104D01*
X3524621Y2276498D01*
X3528137Y2280600D01*
X3531945Y2284408D01*
X3536047Y2287631D01*
X3540442Y2290561D01*
X3544836Y2292904D01*
X3549524Y2294662D01*
X3554211Y2295834D01*
X3559485Y2296713D01*
X3564465D01*
X3567981D01*
X3570910Y2296127D01*
X3572961Y2294955D01*
X3574719Y2293490D01*
X3575891Y2291440D01*
X3576477Y2287924D01*
X3577063Y2283529D01*
Y2277670D01*
Y2209115D01*
X3579699Y2207358D01*
X3582043Y2205014D01*
X3586731Y2206186D01*
X3590832Y2208236D01*
X3594641Y2210580D01*
X3597863Y2213803D01*
X3601379Y2218783D01*
X3604016Y2224643D01*
X3605481Y2231674D01*
X3605774Y2239584D01*
X3605481Y2245150D01*
X3604309Y2251596D01*
X3602551Y2258041D01*
X3599914Y2264779D01*
X3599621D01*
X3596106Y2265951D01*
X3592590Y2267709D01*
X3589953Y2270053D01*
X3587610Y2272983D01*
X3540442Y2217025D02*
X3543371Y2213803D01*
X3546887Y2210873D01*
X3550402Y2208529D01*
X3554797Y2206479D01*
X3557727Y2209115D01*
X3558020Y2271518D01*
X3553039Y2270346D01*
X3548352Y2268295D01*
X3544250Y2265365D01*
X3540735Y2261850D01*
X3537512Y2257162D01*
X3535461Y2252182D01*
X3533996Y2246615D01*
X3533410Y2240463D01*
X3533996Y2233725D01*
X3535168Y2227572D01*
X3537512Y2222006D01*
X3540442Y2217025D01*
X3575305Y2198275D02*
X3574133Y2199740D01*
X3572668Y2200912D01*
X3571203Y2201791D01*
X3569445Y2202377D01*
X3567688D01*
X3565930D01*
X3564172Y2201791D01*
X3562707Y2200912D01*
X3561242Y2199740D01*
X3560070Y2198275D01*
X3559192Y2196811D01*
X3558899Y2195053D01*
X3558606Y2193295D01*
X3558899Y2191537D01*
X3559192Y2189779D01*
X3560070Y2188022D01*
X3561242Y2186850D01*
X3562414Y2185678D01*
X3565637Y2184213D01*
X3567688D01*
X3569445D01*
X3570910Y2184799D01*
X3572668Y2185678D01*
X3574133Y2186557D01*
X3575012Y2188022D01*
X3575891Y2189486D01*
X3576477Y2191244D01*
X3576770Y2193002D01*
X3576477Y2194760D01*
X3575891Y2196518D01*
X3575305Y2198275D01*
X3610754Y2288217D02*
X3609582Y2289682D01*
X3608117Y2290561D01*
X3606652Y2291440D01*
X3604602Y2292025D01*
X3602844Y2292318D01*
X3601086Y2292025D01*
X3599621Y2291440D01*
X3597863Y2290854D01*
X3595520Y2288217D01*
X3594055Y2284994D01*
X3593762Y2282943D01*
X3594055Y2281186D01*
X3594641Y2279428D01*
X3595520Y2277963D01*
X3596692Y2276498D01*
X3598156Y2275326D01*
X3601379Y2274154D01*
X3603137Y2273861D01*
X3604895Y2274154D01*
X3606652Y2274447D01*
X3608117Y2275619D01*
X3609582Y2276791D01*
X3610754Y2278256D01*
X3611633Y2279721D01*
X3611926Y2281479D01*
X3612219Y2283236D01*
X3611926Y2284994D01*
X3611633Y2286459D01*
X3610754Y2288217D01*
X3513488Y2240463D02*
G36*
X3513488Y2240463D02*
X3513555Y2238998D01*
X3533537D01*
X3533410Y2240463D01*
X3533996Y2246615D01*
X3535461Y2252182D01*
X3537512Y2257162D01*
X3540735Y2261850D01*
X3544250Y2265365D01*
X3548352Y2268295D01*
X3553039Y2270346D01*
X3558020Y2271518D01*
X3557867Y2238998D01*
X3577063D01*
Y2277670D01*
Y2283089D01*
X3530626D01*
X3528137Y2280600D01*
X3524621Y2276498D01*
X3521692Y2272104D01*
X3519348Y2267709D01*
X3517297Y2262729D01*
X3515539Y2257455D01*
X3514367Y2252182D01*
X3513781Y2246615D01*
X3513488Y2240463D01*
G37*
X3530626Y2283089D02*
G36*
X3530626Y2283089D02*
X3577063D01*
Y2283529D01*
X3576477Y2287924D01*
X3575891Y2291440D01*
X3574719Y2293490D01*
X3572961Y2294955D01*
X3570910Y2296127D01*
X3567981Y2296713D01*
X3564465D01*
X3559485D01*
X3554211Y2295834D01*
X3549524Y2294662D01*
X3544836Y2292904D01*
X3540442Y2290561D01*
X3536047Y2287631D01*
X3531945Y2284408D01*
X3530626Y2283089D01*
G37*
X3532971Y2193295D02*
G36*
X3532971Y2193295D02*
X3534289Y2192123D01*
X3539856Y2188022D01*
X3546008Y2184799D01*
X3552453Y2182455D01*
X3554797Y2179818D01*
X3557434Y2177768D01*
X3560656Y2176303D01*
X3563879Y2175131D01*
X3568860Y2174838D01*
X3573547Y2175424D01*
X3577649Y2177475D01*
X3581164Y2180404D01*
X3589953Y2182748D01*
X3597863Y2185971D01*
X3604895Y2190365D01*
X3608313Y2193295D01*
X3576721D01*
X3576770Y2193002D01*
X3576477Y2191244D01*
X3575891Y2189486D01*
X3575012Y2188022D01*
X3574133Y2186557D01*
X3572668Y2185678D01*
X3570910Y2184799D01*
X3569445Y2184213D01*
X3567688D01*
X3565637D01*
X3562414Y2185678D01*
X3561242Y2186850D01*
X3560070Y2188022D01*
X3559192Y2189779D01*
X3558899Y2191537D01*
X3558606Y2193295D01*
X3532971D01*
G37*
X3584680Y2283236D02*
G36*
X3584680Y2283236D02*
X3584691Y2283089D01*
X3593783D01*
X3594055Y2284994D01*
X3595520Y2288217D01*
X3597863Y2290854D01*
X3599621Y2291440D01*
X3601086Y2292025D01*
X3602844Y2292318D01*
X3604602Y2292025D01*
X3606652Y2291440D01*
X3608117Y2290561D01*
X3609582Y2289682D01*
X3610754Y2288217D01*
X3611633Y2286459D01*
X3611926Y2284994D01*
X3612219Y2283236D01*
X3612194Y2283089D01*
X3621583D01*
X3621594Y2283236D01*
X3621301Y2286752D01*
X3620422Y2290268D01*
X3618664Y2293490D01*
X3616320Y2296420D01*
X3613391Y2298471D01*
X3610461Y2300229D01*
X3606652Y2301108D01*
X3603137Y2301693D01*
X3599621Y2301108D01*
X3596106Y2300229D01*
X3592883Y2298471D01*
X3589953Y2296127D01*
X3587610Y2293490D01*
X3585852Y2290268D01*
X3584973Y2286752D01*
X3584680Y2283236D01*
G37*
X3513555Y2238998D02*
G36*
X3513555Y2238998D02*
X3513781Y2234018D01*
X3514660Y2227865D01*
X3515832Y2221713D01*
X3517590Y2216147D01*
X3519641Y2210873D01*
X3522277Y2205893D01*
X3525500Y2201205D01*
X3529016Y2196811D01*
X3532971Y2193295D01*
X3558606D01*
X3558899Y2195053D01*
X3559192Y2196811D01*
X3560070Y2198275D01*
X3561242Y2199740D01*
X3562707Y2200912D01*
X3564172Y2201791D01*
X3565930Y2202377D01*
X3567688D01*
X3569445D01*
X3571203Y2201791D01*
X3572668Y2200912D01*
X3574133Y2199740D01*
X3575305Y2198275D01*
X3575891Y2196518D01*
X3576477Y2194760D01*
X3576721Y2193295D01*
X3608313D01*
X3611047Y2195639D01*
X3614563Y2199740D01*
X3617492Y2204428D01*
X3620129Y2209115D01*
X3622180Y2214096D01*
X3623938Y2219662D01*
X3625110Y2225229D01*
X3625695Y2231381D01*
X3625988Y2237826D01*
Y2238998D01*
X3605752D01*
X3605481Y2231674D01*
X3604016Y2224643D01*
X3601379Y2218783D01*
X3597863Y2213803D01*
X3594641Y2210580D01*
X3590832Y2208236D01*
X3586731Y2206186D01*
X3582043Y2205014D01*
X3579699Y2207358D01*
X3577063Y2209115D01*
Y2238998D01*
X3557867D01*
X3557727Y2209115D01*
X3554797Y2206479D01*
X3550402Y2208529D01*
X3546887Y2210873D01*
X3543371Y2213803D01*
X3540442Y2217025D01*
X3537512Y2222006D01*
X3535168Y2227572D01*
X3533996Y2233725D01*
X3533537Y2238998D01*
X3513555D01*
G37*
X3584691Y2283089D02*
G36*
X3584691Y2283089D02*
X3584973Y2279428D01*
X3585852Y2276205D01*
X3587610Y2272983D01*
X3589953Y2270053D01*
X3592590Y2267709D01*
X3596106Y2265951D01*
X3599621Y2264779D01*
X3599914D01*
X3602551Y2258041D01*
X3604309Y2251596D01*
X3605481Y2245150D01*
X3605774Y2239584D01*
X3605752Y2238998D01*
X3625988D01*
Y2243686D01*
X3625695Y2249838D01*
X3624817Y2255990D01*
X3623352Y2261850D01*
X3621594Y2268002D01*
X3619250Y2274447D01*
X3621301Y2279428D01*
X3621583Y2283089D01*
X3612194D01*
X3611926Y2281479D01*
X3611633Y2279721D01*
X3610754Y2278256D01*
X3609582Y2276791D01*
X3608117Y2275619D01*
X3606652Y2274447D01*
X3604895Y2274154D01*
X3603137Y2273861D01*
X3601379Y2274154D01*
X3598156Y2275326D01*
X3596692Y2276498D01*
X3595520Y2277963D01*
X3594641Y2279428D01*
X3594055Y2281186D01*
X3593762Y2282943D01*
X3593783Y2283089D01*
X3584691D01*
G37*
D02*
D98*
X1051797Y5922545D02*
X2026797D01*
G75*
G03*
X2426797Y6322545I0J400000D01*
G01*
Y7253045D01*
G75*
G02*
X2826797Y7653045I400000J0D01*
G01*
X3026797D01*
G75*
G02*
X3426797Y7253045I0J-400000D01*
G01*
Y6322545D01*
G75*
G03*
X3826797Y5922545I400000J0D01*
G01*
X4801797D01*
G75*
G02*
X4901797Y5822545I0J-100000D01*
G01*
Y4922545D01*
G75*
G03*
X4965297Y4859045I63500J0D01*
G01*
X8826797D01*
G75*
G02*
X8926797Y4759045I0J-100000D01*
G01*
Y2165045D01*
G75*
G02*
X8826797Y2065045I-100000J0D01*
G01*
X1051797D01*
G75*
G02*
X951797Y2165045I0J100000D01*
G01*
Y5822545D01*
G75*
G02*
X1051797Y5922545I100000J0D01*
G01*
D02*
D102*
X1283297Y3046545D02*
X2483297D01*
Y2036545D01*
X1283297D01*
Y3046545D01*
X1317797Y3444545D02*
X1254297D01*
X1317797Y3825545D02*
X1254297D01*
X1952797Y3444545D02*
X2016297D01*
X1952797D02*
G75*
G02*
X1837797Y3329545I-115000J0D01*
G01*
X1809922D01*
G75*
G02*
X1778297Y3349295I7323J46922D01*
G01*
G75*
G03*
X1730547Y3369545I-45262J-40305D01*
G01*
X1540047D01*
G75*
G03*
X1492297Y3345420I2096J-63465D01*
G01*
G75*
G02*
X1460297Y3329545I-34291J28933D01*
G01*
X1432797D01*
G75*
G02*
X1317797Y3444545I0J115000D01*
G01*
G75*
G02*
X1432797Y3559545I115000J0D01*
G01*
X1460297D01*
G75*
G02*
X1492297Y3543670I-3620J-47487D01*
G01*
G75*
G03*
X1532422Y3519545I41434J23482D01*
G01*
X1738172D01*
G75*
G03*
X1778297Y3543670I-1309J47607D01*
G01*
G75*
G02*
X1810297Y3559545I27666J-15578D01*
G01*
X1837797D01*
G75*
G02*
X1952797Y3444545I0J-115000D01*
G01*
Y3825545D02*
X2016297D01*
X1952797D02*
G75*
G02*
X1837797Y3710545I-115000J0D01*
G01*
X1809922D01*
G75*
G02*
X1778297Y3730295I7323J46922D01*
G01*
G75*
G03*
X1730547Y3750545I-45262J-40305D01*
G01*
X1540047D01*
G75*
G03*
X1492297Y3726420I2096J-63465D01*
G01*
G75*
G02*
X1460297Y3710545I-34291J28933D01*
G01*
X1432797D01*
G75*
G02*
X1317797Y3825545I0J115000D01*
G01*
G75*
G02*
X1432797Y3940545I115000J0D01*
G01*
X1460297D01*
G75*
G02*
X1492297Y3924670I-3620J-47487D01*
G01*
G75*
G03*
X1532422Y3900545I41434J23482D01*
G01*
X1738172D01*
G75*
G03*
X1778297Y3924670I-1309J47607D01*
G01*
G75*
G02*
X1810297Y3940545I27666J-15578D01*
G01*
X1837797D01*
G75*
G02*
X1952797Y3825545I0J-115000D01*
G01*
X2795797Y7482545D02*
G75*
G03*
Y7432545I0J-25000D01*
G01*
G75*
G03*
Y7482545I0J25000D01*
G01*
G36*
X2795797Y7482545D02*
G75*
G03*
Y7432545I0J-25000D01*
G01*
G75*
G03*
Y7482545I0J25000D01*
G01*
G37*
X2891797Y6874545D02*
X2961797D01*
X2891797Y6999545D02*
X2961797D01*
X2926797Y7422545D02*
X2976797D01*
Y7132545D01*
X2876797D01*
Y7372545D01*
X2926797Y7422545D01*
G36*
X2926797Y7422545D02*
X2976797D01*
Y7132545D01*
X2876797D01*
Y7372545D01*
X2926797Y7422545D01*
G37*
X4811297Y3479545D02*
Y3409545D01*
X4936297Y3479545D02*
Y3409545D01*
X5001797Y3479545D02*
Y3409545D01*
X5126797Y3479545D02*
Y3409545D01*
X5204797Y3444545D02*
Y3414545D01*
X5304797Y3444545D02*
Y3414545D01*
X8810797Y2408545D02*
Y2194545D01*
X8790797Y2174545D01*
X8322797D01*
X8302797Y2194545D01*
Y2408545D01*
X8322797Y2428545D01*
X8790797D01*
X8810797Y2408545D01*
X8820297Y3064545D02*
Y4814545D01*
X8239297D01*
Y4587545D01*
X7223297D01*
Y4814545D01*
X6320297D01*
Y3064545D01*
X8820297D01*
D02*
D111*
X3108497Y3342945D02*
Y4054145D01*
Y3342945D02*
X2346497D01*
X3108497Y4054145D02*
X2346497D01*
X3389297Y2073045D02*
X2579297D01*
Y2993045D01*
X3389297D01*
Y2073045D01*
X3722297Y4874045D02*
X1072297D01*
Y4174045D01*
X3722297D01*
Y4874045D01*
X3786795Y3146538D02*
X3786801Y3996542D01*
X4436799Y3996552D01*
X4436793Y3146548D01*
X3786795Y3146538D01*
X3794297Y4619295D02*
Y4809795D01*
X3826047Y4587545D02*
X3794297Y4619295D01*
X3826047Y4841545D02*
X3794297Y4809795D01*
X4017399Y3146542D02*
Y3165142D01*
G75*
G02*
X4220598Y3165145I101600J2D01*
G01*
Y3146537D01*
X4017399Y3146542D01*
X4080047Y4587545D02*
X4048297Y4619295D01*
X4080047Y4841545D02*
X4048297Y4809795D01*
X4111797Y4841545D02*
X4080047D01*
X4048297Y4809795D01*
X4016547Y4841545D01*
X3826047D01*
X4270547Y4587545D02*
X4080047D01*
X4048297Y4619295D01*
X4016547Y4587545D01*
X3826047D01*
X4334047D02*
X4302297Y4619295D01*
X4334047Y4841545D02*
X4302297Y4809795D01*
X4365797Y4841545D02*
X4334047D01*
X4302297Y4809795D01*
X4270547Y4841545D01*
X4080047D01*
X4524547Y4587545D02*
X4334047D01*
X4302297Y4619295D01*
X4270547Y4587545D01*
X4080047D01*
X4588047D02*
X4556297Y4619295D01*
X4588047Y4841545D02*
X4556297Y4809795D01*
X4619797Y4841545D02*
X4588047D01*
X4556297Y4809795D01*
X4524547Y4841545D01*
X4334047D01*
X4778547Y4587545D02*
X4588047D01*
X4556297Y4619295D01*
X4524547Y4587545D01*
X4334047D01*
X4873797Y4841545D02*
X4842047D01*
X4810297Y4809795D01*
X4778547Y4841545D01*
X4588047D01*
X5032547Y4587545D02*
X4842047D01*
X4810297Y4619295D01*
X4778547Y4587545D01*
X4588047D01*
X5032547Y4841545D02*
X4873797D01*
X5064297Y4619295D02*
X5032547Y4587545D01*
X5064297Y4619295D02*
Y4809795D01*
X5032547Y4841545D01*
X5204797Y3474545D02*
X5304797D01*
Y3444545D01*
X5204797D01*
Y3474545D01*
G36*
X5204797Y3474545D02*
X5304797D01*
Y3444545D01*
X5204797D01*
Y3474545D01*
G37*
X5714797Y3398545D02*
X5764797D01*
X5714797Y3998545D02*
X5764797D01*
X5714797D02*
Y3398545D01*
X5814797Y3848545D02*
Y3548545D01*
X5964797D01*
Y3848545D01*
X5814797D01*
X6064797Y3398545D02*
X6014797D01*
X6064797Y3998545D02*
X6014797D01*
X6064797D02*
Y3398545D01*
D02*
D112*
X1455972Y3109427D02*
X1463619Y3094133D01*
X1478913Y3086486D01*
X1494207D01*
X1509501Y3094133D01*
X1517148Y3109427D01*
Y3124721D01*
X1509501Y3140016D01*
X1494207Y3147663D01*
X1478913D01*
X1463619Y3140016D01*
X1455972Y3124721D01*
Y3086486D02*
X1455972Y3178251D01*
X1552019Y3086486D02*
X1544372Y3086486D01*
Y3178251D01*
X1546572Y3591486D02*
X1546572Y3683251D01*
X1600101D01*
X1615396Y3675604D01*
X1623043Y3660310D01*
X1615396Y3645016D01*
X1600101Y3637369D01*
X1546572D01*
X1600101D02*
X1623043Y3591486D01*
X1713048D02*
X1651872Y3591486D01*
X1705401Y3645016D01*
X1713048Y3660310D01*
X1705401Y3675604D01*
X1690107Y3683251D01*
X1667166D01*
X1651872Y3675604D01*
X1546572Y3972486D02*
X1546572Y4064251D01*
X1600101D01*
X1615396Y4056604D01*
X1623043Y4041310D01*
X1615396Y4026016D01*
X1600101Y4018369D01*
X1546572D01*
X1600101D02*
X1623043Y3972486D01*
X1659519Y3980133D02*
X1674813Y3972486D01*
X1690107D01*
X1705401Y3980133D01*
X1713048Y3995427D01*
X1705401Y4010721D01*
X1690107Y4018369D01*
X1674813D01*
X1690107D02*
X1705401Y4026016D01*
X1713048Y4041310D01*
X1705401Y4056604D01*
X1690107Y4064251D01*
X1674813D01*
X1659519Y4056604D01*
X1697622Y3086486D02*
X1697622Y3147663D01*
Y3124721D02*
X1705269Y3140016D01*
X1720563Y3147663D01*
X1735857D01*
X1751151Y3140016D01*
X1778222Y3147663D02*
X1808810Y3147663D01*
X1793516Y3162957D02*
X1793516Y3094133D01*
X1801163Y3086486D01*
X1808810D01*
X1816457Y3094133D01*
X1825797Y2514986D02*
X1902268Y2606751D01*
X1825797D02*
X1902268Y2514986D01*
X1992273D02*
X1931097Y2514986D01*
X1984626Y2568516D01*
X1992273Y2583810D01*
X1984626Y2599104D01*
X1969332Y2606751D01*
X1946391D01*
X1931097Y2599104D01*
X2001098Y3124721D02*
X1993451Y3140016D01*
X1978157Y3147663D01*
X1962863D01*
X1947569Y3140016D01*
X1939922Y3124721D01*
Y3117074D01*
X1947569Y3101780D01*
X1962863Y3094133D01*
X1978157D01*
X1993451Y3101780D01*
X2001098Y3117074D01*
Y3147663D02*
X2001098Y3086486D01*
X1993451Y3071192D01*
X1978157Y3063545D01*
X1955216D01*
X1939922Y3071192D01*
X2028322Y3086486D02*
X2028322Y3147663D01*
Y3124721D02*
X2035969Y3140016D01*
X2051263Y3147663D01*
X2066557D01*
X2081851Y3140016D01*
X2255098Y3124721D02*
X2247451Y3140016D01*
X2232157Y3147663D01*
X2216863D01*
X2201569Y3140016D01*
X2193922Y3124721D01*
Y3117074D01*
X2201569Y3101780D01*
X2216863Y3094133D01*
X2232157D01*
X2247451Y3101780D01*
X2255098Y3117074D01*
Y3147663D02*
X2255098Y3086486D01*
X2247451Y3071192D01*
X2232157Y3063545D01*
X2209216D01*
X2193922Y3071192D01*
X2282322Y3086486D02*
X2282322Y3147663D01*
Y3124721D02*
X2289969Y3140016D01*
X2305263Y3147663D01*
X2320557D01*
X2335851Y3140016D01*
X2628356Y7137870D02*
X2628356Y7168458D01*
Y7153164D02*
X2536591Y7153164D01*
Y7137870D02*
X2536591Y7168458D01*
X2613062Y7270241D02*
X2620709Y7262594D01*
X2628356Y7247299D01*
Y7224358D01*
X2620709Y7209064D01*
X2613062Y7201417D01*
X2597768Y7193770D01*
X2567179D01*
X2551885Y7201417D01*
X2544238Y7209064D01*
X2536591Y7224358D01*
Y7247299D01*
X2544238Y7262594D01*
X2551885Y7270241D01*
X2620709Y7306717D02*
X2628356Y7322011D01*
Y7337305D01*
X2620709Y7352599D01*
X2605415Y7360246D01*
X2590121Y7352599D01*
X2582473Y7337305D01*
Y7322011D01*
Y7337305D02*
X2574826Y7352599D01*
X2559532Y7360246D01*
X2544238Y7352599D01*
X2536591Y7337305D01*
Y7322011D01*
X2544238Y7306717D01*
X2914543Y6718280D02*
X2906896Y6710633D01*
X2891601Y6702986D01*
X2868660D01*
X2853366Y6710633D01*
X2845719Y6718280D01*
X2838072Y6733574D01*
Y6764163D01*
X2845719Y6779457D01*
X2853366Y6787104D01*
X2868660Y6794751D01*
X2891601D01*
X2906896Y6787104D01*
X2914543Y6779457D01*
X2958666Y6702986D02*
X2989254Y6702986D01*
X2973960D02*
X2973960Y6794751D01*
X2958666Y6779457D01*
X2880072Y2511986D02*
X2956543Y2603751D01*
X2880072D02*
X2956543Y2511986D01*
X3000666D02*
X3031254Y2511986D01*
X3015960D02*
X3015960Y2603751D01*
X3000666Y2588457D01*
X2740857Y3022986D02*
X2740857Y3114751D01*
X2702622Y3053574D01*
X2763798D01*
X2813963Y3068869D02*
X2829257Y3068869D01*
X2844551Y3076516D01*
X2852198Y3091810D01*
X2844551Y3107104D01*
X2829257Y3114751D01*
X2813963D01*
X2798669Y3107104D01*
X2791022Y3091810D01*
X2798669Y3076516D01*
X2813963Y3068869D01*
X2798669Y3061221D01*
X2791022Y3045927D01*
X2798669Y3030633D01*
X2813963Y3022986D01*
X2829257D01*
X2844551Y3030633D01*
X2852198Y3045927D01*
X2844551Y3061221D01*
X2829257Y3068869D01*
X2879422Y3114751D02*
X2917657Y3022986D01*
X2955893Y3114751D01*
X3040622Y3022986D02*
X3078857Y3114751D01*
X3117093Y3022986D01*
X3055916Y3061221D02*
X3101798Y3061221D01*
X3222393Y3038280D02*
X3214746Y3030633D01*
X3199451Y3022986D01*
X3176510D01*
X3161216Y3030633D01*
X3153569Y3038280D01*
X3145922Y3053574D01*
Y3084163D01*
X3153569Y3099457D01*
X3161216Y3107104D01*
X3176510Y3114751D01*
X3199451D01*
X3214746Y3107104D01*
X3222393Y3099457D01*
X3172307Y3657986D02*
X3172307Y3749751D01*
X3134072D02*
X3210543Y3749751D01*
X3254666Y3657986D02*
X3285254Y3657986D01*
X3269960D02*
X3269960Y3749751D01*
X3254666Y3734457D01*
X3591543Y4051280D02*
X3583896Y4043633D01*
X3568601Y4035986D01*
X3545660D01*
X3530366Y4043633D01*
X3522719Y4051280D01*
X3515072Y4066574D01*
Y4097163D01*
X3522719Y4112457D01*
X3530366Y4120104D01*
X3545660Y4127751D01*
X3568601D01*
X3583896Y4120104D01*
X3591543Y4112457D01*
X3681548Y4035986D02*
X3620372Y4035986D01*
X3673901Y4089516D01*
X3681548Y4104810D01*
X3673901Y4120104D01*
X3658607Y4127751D01*
X3635666D01*
X3620372Y4120104D01*
X3995119Y3007293D02*
X4025707Y3007293D01*
X4010413D02*
X4010413Y3099058D01*
X3995119D02*
X4025707Y3099058D01*
X4127490Y3022587D02*
X4119843Y3014940D01*
X4104548Y3007293D01*
X4081607D01*
X4066313Y3014940D01*
X4058666Y3022587D01*
X4051019Y3037881D01*
Y3068470D01*
X4058666Y3083764D01*
X4066313Y3091411D01*
X4081607Y3099058D01*
X4104548D01*
X4119843Y3091411D01*
X4127490Y3083764D01*
X4194554Y3007293D02*
X4194554Y3099058D01*
X4156319Y3037881D01*
X4217495D01*
X4721532Y2895986D02*
X4721532Y2987751D01*
X4683297D02*
X4759768Y2987751D01*
X4788597Y2918927D02*
X4796244Y2903633D01*
X4811538Y2895986D01*
X4826832D01*
X4842126Y2903633D01*
X4849773Y2918927D01*
Y2934221D01*
X4842126Y2949516D01*
X4826832Y2957163D01*
X4811538D01*
X4796244Y2949516D01*
X4788597Y2934221D01*
Y2918927D01*
X4876997Y2957163D02*
X4876997Y2873045D01*
Y2918927D02*
X4884644Y2903633D01*
X4899938Y2895986D01*
X4915232D01*
X4930526Y2903633D01*
X4938173Y2918927D01*
Y2934221D01*
X4930526Y2949516D01*
X4915232Y2957163D01*
X4899938D01*
X4884644Y2949516D01*
X4876997Y2934221D01*
Y2918927D01*
X5074826Y2941869D02*
X5090121Y2934221D01*
X5097768Y2918927D01*
X5090121Y2903633D01*
X5074826Y2895986D01*
X5021297D01*
Y2987751D01*
X5074826D01*
X5090121Y2980104D01*
X5097768Y2964810D01*
X5090121Y2949516D01*
X5074826Y2941869D01*
X5021297D01*
X5126597Y2895986D02*
X5126597Y2957163D01*
Y2980104D02*
X5126598Y2980105D01*
X5182497Y2957163D02*
X5213085Y2957163D01*
X5197791Y2972457D02*
X5197791Y2903633D01*
X5205438Y2895986D01*
X5213085D01*
X5220732Y2903633D01*
X5255144Y2895986D02*
X5262791Y2903633D01*
X5255144Y2911280D01*
X5247497Y2903633D01*
X5255144Y2895986D01*
Y2934221D02*
X5262791Y2941869D01*
X5255144Y2949516D01*
X5247497Y2941869D01*
X5255144Y2934221D01*
X5343697Y2880692D02*
X5358991Y2873045D01*
X5374285Y2880692D01*
X5381932Y2895986D01*
Y2957163D01*
Y2980104D02*
X5381933Y2980105D01*
X5408697Y2895986D02*
X5408697Y2957163D01*
Y2980104D02*
X5408698Y2980105D01*
X5464597Y2895986D02*
X5464597Y2957163D01*
Y2949516D02*
X5472244Y2957163D01*
X5487538D01*
X5495185Y2949516D01*
Y2926574D01*
Y2949516D02*
X5502832Y2957163D01*
X5518126D01*
X5525773Y2949516D01*
Y2895986D01*
X5552997D02*
X5552997Y2957163D01*
Y2949516D02*
X5560644Y2957163D01*
X5575938D01*
X5583585Y2949516D01*
Y2926574D01*
Y2949516D02*
X5591232Y2957163D01*
X5606526D01*
X5614173Y2949516D01*
Y2895986D01*
X5641397Y2957163D02*
X5649044Y2926574D01*
X5664338Y2911280D01*
X5679632D01*
X5694926Y2926574D01*
X5702573Y2957163D01*
X5694926Y2926574D02*
X5687279Y2895986D01*
X5679632Y2880692D01*
X5664338Y2873045D01*
X5649044Y2880692D01*
X5729797Y2895986D02*
X5806268Y2895986D01*
X5835097Y2880692D02*
X5850391Y2873045D01*
X5865685Y2880692D01*
X5873332Y2895986D01*
Y2957163D01*
Y2980104D02*
X5873333Y2980105D01*
X5900097Y2918927D02*
X5907744Y2903633D01*
X5923038Y2895986D01*
X5938332D01*
X5953626Y2903633D01*
X5961273Y2918927D01*
Y2934221D01*
X5953626Y2949516D01*
X5938332Y2957163D01*
X5923038D01*
X5907744Y2949516D01*
X5900097Y2934221D01*
Y2918927D01*
X5988497Y2895986D02*
X5988497Y2987751D01*
Y2926574D02*
X6011438Y2926574D01*
X6049673Y2957163D01*
X6011438Y2926574D02*
X6049673Y2895986D01*
X6138073Y2903633D02*
X6130426Y2895986D01*
X6115132D01*
X6099838D01*
X6084544Y2903633D01*
X6076897Y2918927D01*
Y2941869D01*
X6084544Y2949516D01*
X6099838Y2957163D01*
X6115132D01*
X6130426Y2949516D01*
X6138073Y2941869D01*
Y2934221D01*
X6130426Y2926574D01*
X6115132Y2918927D01*
X6099838D01*
X6084544Y2926574D01*
X6076897Y2934221D01*
X6165297Y2895986D02*
X6165297Y2957163D01*
Y2934221D02*
X6172944Y2949516D01*
X6188238Y2957163D01*
X6203532D01*
X6218826Y2949516D01*
X6307073Y2895986D02*
X6245897Y2895986D01*
X6299426Y2949516D01*
X6307073Y2964810D01*
X6299426Y2980104D01*
X6284132Y2987751D01*
X6261191D01*
X6245897Y2980104D01*
X6349591Y2895986D02*
X6380179Y2895986D01*
X6364885D02*
X6364885Y2987751D01*
X6349591Y2972457D01*
X4721532Y3022986D02*
X4721532Y3114751D01*
X4683297D02*
X4759768Y3114751D01*
X4788597Y3045927D02*
X4796244Y3030633D01*
X4811538Y3022986D01*
X4826832D01*
X4842126Y3030633D01*
X4849773Y3045927D01*
Y3061221D01*
X4842126Y3076516D01*
X4826832Y3084163D01*
X4811538D01*
X4796244Y3076516D01*
X4788597Y3061221D01*
Y3045927D01*
X4876997Y3084163D02*
X4876997Y3000045D01*
Y3045927D02*
X4884644Y3030633D01*
X4899938Y3022986D01*
X4915232D01*
X4930526Y3030633D01*
X4938173Y3045927D01*
Y3061221D01*
X4930526Y3076516D01*
X4915232Y3084163D01*
X4899938D01*
X4884644Y3076516D01*
X4876997Y3061221D01*
Y3045927D01*
X5021297D02*
X5028944Y3030633D01*
X5044238Y3022986D01*
X5074826D01*
X5090121Y3030633D01*
X5097768Y3045927D01*
X5090121Y3061221D01*
X5074826Y3068869D01*
X5044238D01*
X5028944Y3076516D01*
X5021297Y3091810D01*
X5028944Y3107104D01*
X5044238Y3114751D01*
X5074826D01*
X5090121Y3107104D01*
X5097768Y3091810D01*
X5126597Y3084163D02*
X5126597Y3045927D01*
X5134244Y3030633D01*
X5149538Y3022986D01*
X5164832D01*
X5180126Y3030633D01*
X5187773Y3045927D01*
Y3084163D02*
X5187773Y3022986D01*
X5214997Y3045927D02*
X5222644Y3030633D01*
X5237938Y3022986D01*
X5253232D01*
X5268526Y3030633D01*
X5276173Y3045927D01*
Y3061221D01*
X5268526Y3076516D01*
X5253232Y3084163D01*
X5237938D01*
X5222644Y3076516D01*
X5214997Y3061221D01*
Y3022986D02*
X5214997Y3114751D01*
X5311044Y3022986D02*
X5318691Y3030633D01*
X5311044Y3038280D01*
X5303397Y3030633D01*
X5311044Y3022986D01*
Y3061221D02*
X5318691Y3068869D01*
X5311044Y3076516D01*
X5303397Y3068869D01*
X5311044Y3061221D01*
X5399597Y3022986D02*
X5399597Y3114751D01*
X5437832Y3068869D01*
X5476068Y3114751D01*
Y3022986D01*
X5504897Y3076516D02*
X5520191Y3084163D01*
X5543132D01*
X5558426Y3076516D01*
X5566073Y3061221D01*
Y3038280D01*
X5558426Y3030633D01*
X5543132Y3022986D01*
X5527838D01*
X5512544Y3030633D01*
X5504897Y3038280D01*
Y3045927D01*
X5512544Y3053574D01*
X5527838Y3061221D01*
X5543132D01*
X5558426Y3053574D01*
X5566073Y3045927D01*
Y3038280D02*
X5566073Y3022986D01*
X5654473Y3076516D02*
X5639179Y3084163D01*
X5616238D01*
X5600944Y3076516D01*
X5593297Y3061221D01*
Y3045927D01*
X5600944Y3030633D01*
X5616238Y3022986D01*
X5639179D01*
X5654473Y3030633D01*
X5735226Y3068869D02*
X5750521Y3061221D01*
X5758168Y3045927D01*
X5750521Y3030633D01*
X5735226Y3022986D01*
X5681697D01*
Y3114751D01*
X5735226D01*
X5750521Y3107104D01*
X5758168Y3091810D01*
X5750521Y3076516D01*
X5735226Y3068869D01*
X5681697D01*
X5794644Y3022986D02*
X5786997Y3022986D01*
Y3114751D01*
X5819497Y3084163D02*
X5819497Y3045927D01*
X5827144Y3030633D01*
X5842438Y3022986D01*
X5857732D01*
X5873026Y3030633D01*
X5880673Y3045927D01*
Y3084163D02*
X5880673Y3022986D01*
X5907897D02*
X5907897Y3084163D01*
Y3076516D02*
X5915544Y3084163D01*
X5930838D01*
X5938485Y3076516D01*
Y3053574D01*
Y3076516D02*
X5946132Y3084163D01*
X5961426D01*
X5969073Y3076516D01*
Y3022986D01*
X6057473Y3030633D02*
X6049826Y3022986D01*
X6034532D01*
X6019238D01*
X6003944Y3030633D01*
X5996297Y3045927D01*
Y3068869D01*
X6003944Y3076516D01*
X6019238Y3084163D01*
X6034532D01*
X6049826Y3076516D01*
X6057473Y3068869D01*
Y3061221D01*
X6049826Y3053574D01*
X6034532Y3045927D01*
X6019238D01*
X6003944Y3053574D01*
X5996297Y3061221D01*
X4917356Y3673320D02*
X4825591Y3673320D01*
Y3726849D01*
X4833238Y3742144D01*
X4848532Y3749791D01*
X4863826Y3742144D01*
X4871473Y3726849D01*
Y3673320D01*
Y3726849D02*
X4917356Y3749791D01*
Y3793914D02*
X4917356Y3824502D01*
Y3809208D02*
X4825591Y3809208D01*
X4840885Y3793914D01*
X5107856Y3673320D02*
X5016091Y3673320D01*
Y3726849D01*
X5023738Y3742144D01*
X5039032Y3749791D01*
X5054326Y3742144D01*
X5061973Y3726849D01*
Y3673320D01*
Y3726849D02*
X5107856Y3749791D01*
Y3816855D02*
X5016091Y3816855D01*
X5077268Y3778620D01*
Y3839796D01*
X5206591Y3695020D02*
X5298356Y3695020D01*
Y3771491D01*
Y3800320D02*
X5206591Y3800320D01*
Y3876791D01*
X5252473Y3861496D02*
X5252473Y3800320D01*
X5298356D02*
X5298356Y3876791D01*
Y3905620D02*
X5206591Y3905620D01*
Y3951502D01*
X5214238Y3966796D01*
X5221885Y3974444D01*
X5237179Y3982091D01*
X5267768D01*
X5283062Y3974444D01*
X5290709Y3966796D01*
X5298356Y3951502D01*
Y3905620D01*
Y4026214D02*
X5298356Y4056802D01*
Y4041508D02*
X5206591Y4041508D01*
X5221885Y4026214D01*
X5145647Y4670986D02*
X5145647Y4762751D01*
X5199176D01*
X5214471Y4755104D01*
X5222118Y4739810D01*
X5214471Y4724516D01*
X5199176Y4716869D01*
X5145647D01*
X5199176D02*
X5222118Y4670986D01*
X5289182D02*
X5289182Y4762751D01*
X5250947D02*
X5327418Y4762751D01*
X5432718Y4686280D02*
X5425071Y4678633D01*
X5409776Y4670986D01*
X5386835D01*
X5371541Y4678633D01*
X5363894Y4686280D01*
X5356247Y4701574D01*
Y4732163D01*
X5363894Y4747457D01*
X5371541Y4755104D01*
X5386835Y4762751D01*
X5409776D01*
X5425071Y4755104D01*
X5432718Y4747457D01*
X3958022Y2197486D02*
X3958022Y2289251D01*
X4034493D01*
X4019198Y2243369D02*
X3958022Y2243369D01*
X4063322Y2251016D02*
X4078616Y2258663D01*
X4101557D01*
X4116851Y2251016D01*
X4124498Y2235721D01*
Y2212780D01*
X4116851Y2205133D01*
X4101557Y2197486D01*
X4086263D01*
X4070969Y2205133D01*
X4063322Y2212780D01*
Y2220427D01*
X4070969Y2228074D01*
X4086263Y2235721D01*
X4101557D01*
X4116851Y2228074D01*
X4124498Y2220427D01*
Y2212780D02*
X4124498Y2197486D01*
X4159369D02*
X4151722Y2197486D01*
Y2289251D01*
X4191869Y2197486D02*
X4184222Y2197486D01*
Y2289251D01*
X4216722Y2220427D02*
X4224369Y2205133D01*
X4239663Y2197486D01*
X4254957D01*
X4270251Y2205133D01*
X4277898Y2220427D01*
Y2235721D01*
X4270251Y2251016D01*
X4254957Y2258663D01*
X4239663D01*
X4224369Y2251016D01*
X4216722Y2235721D01*
Y2197486D02*
X4216722Y2289251D01*
X4312769Y2197486D02*
X4305122Y2197486D01*
Y2289251D01*
X4337622Y2251016D02*
X4352916Y2258663D01*
X4375857D01*
X4391151Y2251016D01*
X4398798Y2235721D01*
Y2212780D01*
X4391151Y2205133D01*
X4375857Y2197486D01*
X4360563D01*
X4345269Y2205133D01*
X4337622Y2212780D01*
Y2220427D01*
X4345269Y2228074D01*
X4360563Y2235721D01*
X4375857D01*
X4391151Y2228074D01*
X4398798Y2220427D01*
Y2212780D02*
X4398798Y2197486D01*
X4426022Y2258663D02*
X4456610Y2258663D01*
X4441316Y2273957D02*
X4441316Y2205133D01*
X4448963Y2197486D01*
X4456610D01*
X4464257Y2205133D01*
X4491022Y2258663D02*
X4521610Y2258663D01*
X4506316Y2273957D02*
X4506316Y2205133D01*
X4513963Y2197486D01*
X4521610D01*
X4529257Y2205133D01*
X4556022Y2251016D02*
X4571316Y2258663D01*
X4594257D01*
X4609551Y2251016D01*
X4617198Y2235721D01*
Y2212780D01*
X4609551Y2205133D01*
X4594257Y2197486D01*
X4578963D01*
X4563669Y2205133D01*
X4556022Y2212780D01*
Y2220427D01*
X4563669Y2228074D01*
X4578963Y2235721D01*
X4594257D01*
X4609551Y2228074D01*
X4617198Y2220427D01*
Y2212780D02*
X4617198Y2197486D01*
X4644422D02*
X4644422Y2258663D01*
Y2235721D02*
X4652069Y2251016D01*
X4667363Y2258663D01*
X4682657D01*
X4697951Y2251016D01*
X4705598Y2235721D01*
Y2197486D01*
X4732822Y2258663D02*
X4793998Y2258663D01*
X4732822Y2197486D01*
X4793998D01*
X4882398Y2205133D02*
X4874751Y2197486D01*
X4859457D01*
X4844163D01*
X4828869Y2205133D01*
X4821222Y2220427D01*
Y2243369D01*
X4828869Y2251016D01*
X4844163Y2258663D01*
X4859457D01*
X4874751Y2251016D01*
X4882398Y2243369D01*
Y2235721D01*
X4874751Y2228074D01*
X4859457Y2220427D01*
X4844163D01*
X4828869Y2228074D01*
X4821222Y2235721D01*
X4909622Y2197486D02*
X4909622Y2258663D01*
Y2281604D02*
X4909623Y2281605D01*
X5026698Y2235721D02*
X5019051Y2251016D01*
X5003757Y2258663D01*
X4988463D01*
X4973169Y2251016D01*
X4965522Y2235721D01*
Y2228074D01*
X4973169Y2212780D01*
X4988463Y2205133D01*
X5003757D01*
X5019051Y2212780D01*
X5026698Y2228074D01*
Y2258663D02*
X5026698Y2197486D01*
X5019051Y2182192D01*
X5003757Y2174545D01*
X4980816D01*
X4965522Y2182192D01*
X5115098Y2205133D02*
X5107451Y2197486D01*
X5092157D01*
X5076863D01*
X5061569Y2205133D01*
X5053922Y2220427D01*
Y2243369D01*
X5061569Y2251016D01*
X5076863Y2258663D01*
X5092157D01*
X5107451Y2251016D01*
X5115098Y2243369D01*
Y2235721D01*
X5107451Y2228074D01*
X5092157Y2220427D01*
X5076863D01*
X5061569Y2228074D01*
X5053922Y2235721D01*
X5198222Y2197486D02*
X5198222Y2289251D01*
X5274693D01*
X5259398Y2243369D02*
X5198222Y2243369D01*
X5311169Y2197486D02*
X5303522Y2197486D01*
Y2289251D01*
X5336022Y2251016D02*
X5351316Y2258663D01*
X5374257D01*
X5389551Y2251016D01*
X5397198Y2235721D01*
Y2212780D01*
X5389551Y2205133D01*
X5374257Y2197486D01*
X5358963D01*
X5343669Y2205133D01*
X5336022Y2212780D01*
Y2220427D01*
X5343669Y2228074D01*
X5358963Y2235721D01*
X5374257D01*
X5389551Y2228074D01*
X5397198Y2220427D01*
Y2212780D02*
X5397198Y2197486D01*
X5424422Y2258663D02*
X5424422Y2174545D01*
Y2220427D02*
X5432069Y2205133D01*
X5447363Y2197486D01*
X5462657D01*
X5477951Y2205133D01*
X5485598Y2220427D01*
Y2235721D01*
X5477951Y2251016D01*
X5462657Y2258663D01*
X5447363D01*
X5432069Y2251016D01*
X5424422Y2235721D01*
Y2220427D01*
X5512822Y2197486D02*
X5512822Y2289251D01*
X5589293D01*
X5573998Y2243369D02*
X5512822Y2243369D01*
X5625769Y2197486D02*
X5618122Y2197486D01*
Y2289251D01*
X5650622Y2251016D02*
X5665916Y2258663D01*
X5688857D01*
X5704151Y2251016D01*
X5711798Y2235721D01*
Y2212780D01*
X5704151Y2205133D01*
X5688857Y2197486D01*
X5673563D01*
X5658269Y2205133D01*
X5650622Y2212780D01*
Y2220427D01*
X5658269Y2228074D01*
X5673563Y2235721D01*
X5688857D01*
X5704151Y2228074D01*
X5711798Y2220427D01*
Y2212780D02*
X5711798Y2197486D01*
X5739022Y2258663D02*
X5739022Y2174545D01*
Y2220427D02*
X5746669Y2205133D01*
X5761963Y2197486D01*
X5777257D01*
X5792551Y2205133D01*
X5800198Y2220427D01*
Y2235721D01*
X5792551Y2251016D01*
X5777257Y2258663D01*
X5761963D01*
X5746669Y2251016D01*
X5739022Y2235721D01*
Y2220427D01*
X5883322Y2197486D02*
X5921557Y2289251D01*
X5959793Y2197486D01*
X5898616Y2235721D02*
X5944498Y2235721D01*
X5988622Y2197486D02*
X5988622Y2258663D01*
Y2235721D02*
X5996269Y2251016D01*
X6011563Y2258663D01*
X6026857D01*
X6042151Y2251016D01*
X6049798Y2235721D01*
Y2197486D01*
X6077022Y2205133D02*
X6092316Y2197486D01*
X6122904D01*
X6138198Y2205133D01*
Y2220427D01*
X6122904Y2228074D01*
X6092316D01*
X6077022Y2235721D01*
Y2251016D01*
X6092316Y2258663D01*
X6122904D01*
X6138198Y2251016D01*
X6165422Y2258663D02*
X6196010Y2258663D01*
X6180716Y2273957D02*
X6180716Y2205133D01*
X6188363Y2197486D01*
X6196010D01*
X6203657Y2205133D01*
X6291598D02*
X6283951Y2197486D01*
X6268657D01*
X6253363D01*
X6238069Y2205133D01*
X6230422Y2220427D01*
Y2243369D01*
X6238069Y2251016D01*
X6253363Y2258663D01*
X6268657D01*
X6283951Y2251016D01*
X6291598Y2243369D01*
Y2235721D01*
X6283951Y2228074D01*
X6268657Y2220427D01*
X6253363D01*
X6238069Y2228074D01*
X6230422Y2235721D01*
X6318822Y2258663D02*
X6318822Y2220427D01*
X6326469Y2205133D01*
X6341763Y2197486D01*
X6357057D01*
X6372351Y2205133D01*
X6379998Y2220427D01*
Y2258663D02*
X6379998Y2197486D01*
X6468398Y2205133D02*
X6460751Y2197486D01*
X6445457D01*
X6430163D01*
X6414869Y2205133D01*
X6407222Y2220427D01*
Y2243369D01*
X6414869Y2251016D01*
X6430163Y2258663D01*
X6445457D01*
X6460751Y2251016D01*
X6468398Y2243369D01*
Y2235721D01*
X6460751Y2228074D01*
X6445457Y2220427D01*
X6430163D01*
X6414869Y2228074D01*
X6407222Y2235721D01*
X6495622Y2197486D02*
X6495622Y2258663D01*
Y2235721D02*
X6503269Y2251016D01*
X6518563Y2258663D01*
X6533857D01*
X6549151Y2251016D01*
X6576222Y2258663D02*
X6576222Y2220427D01*
X6583869Y2205133D01*
X6599163Y2197486D01*
X6614457D01*
X6629751Y2205133D01*
X6637398Y2220427D01*
Y2258663D02*
X6637398Y2197486D01*
X6664622D02*
X6664622Y2258663D01*
Y2235721D02*
X6672269Y2251016D01*
X6687563Y2258663D01*
X6702857D01*
X6718151Y2251016D01*
X6725798Y2235721D01*
Y2197486D01*
X6814198Y2235721D02*
X6806551Y2251016D01*
X6791257Y2258663D01*
X6775963D01*
X6760669Y2251016D01*
X6753022Y2235721D01*
Y2228074D01*
X6760669Y2212780D01*
X6775963Y2205133D01*
X6791257D01*
X6806551Y2212780D01*
X6814198Y2228074D01*
Y2258663D02*
X6814198Y2197486D01*
X6806551Y2182192D01*
X6791257Y2174545D01*
X6768316D01*
X6753022Y2182192D01*
X6897322Y2258663D02*
X6927910Y2197486D01*
X6958498Y2258663D01*
X7001016Y2197486D02*
X7031604Y2197486D01*
X7016310D02*
X7016310Y2289251D01*
X7001016Y2273957D01*
X7081769Y2197486D02*
X7089416Y2205133D01*
X7081769Y2212780D01*
X7074122Y2205133D01*
X7081769Y2197486D01*
X7122069Y2205133D02*
X7137363Y2197486D01*
X7152657D01*
X7167951Y2205133D01*
X7175598Y2220427D01*
Y2266310D01*
X7167951Y2281604D01*
X7152657Y2289251D01*
X7137363D01*
X7122069Y2281604D01*
X7114422Y2266310D01*
Y2220427D01*
X7122069Y2205133D01*
X7167951Y2281604D01*
X6108291Y3496070D02*
X6108291Y3572541D01*
X6200056Y3496070D01*
Y3572541D01*
Y3601370D02*
X6108291Y3601370D01*
Y3677841D01*
X6154173Y3662546D02*
X6154173Y3601370D01*
X6200056D02*
X6200056Y3677841D01*
Y3706670D02*
X6108291Y3706670D01*
Y3760199D01*
X6115938Y3775494D01*
X6131232Y3783141D01*
X6146526Y3775494D01*
X6154173Y3760199D01*
Y3706670D01*
Y3760199D02*
X6200056Y3783141D01*
X6169468Y3811970D02*
X6138879Y3811970D01*
X6123585Y3819617D01*
X6115938Y3827264D01*
X6108291Y3842558D01*
Y3857852D01*
X6115938Y3873146D01*
X6123585Y3880794D01*
X6138879Y3888441D01*
X6169468D01*
X6184762Y3880794D01*
X6192409Y3873146D01*
X6200056Y3857852D01*
Y3842558D01*
X6192409Y3827264D01*
X6184762Y3819617D01*
X6169468Y3811970D01*
X6725622Y4670986D02*
X6756210Y4670986D01*
X6740916D02*
X6740916Y4762751D01*
X6725622D02*
X6756210Y4762751D01*
X6857993Y4686280D02*
X6850346Y4678633D01*
X6835051Y4670986D01*
X6812110D01*
X6796816Y4678633D01*
X6789169Y4686280D01*
X6781522Y4701574D01*
Y4732163D01*
X6789169Y4747457D01*
X6796816Y4755104D01*
X6812110Y4762751D01*
X6835051D01*
X6850346Y4755104D01*
X6857993Y4747457D01*
X6947998Y4670986D02*
X6886822Y4670986D01*
X6940351Y4724516D01*
X6947998Y4739810D01*
X6940351Y4755104D01*
X6925057Y4762751D01*
X6902116D01*
X6886822Y4755104D01*
X7846322Y2289251D02*
X7846322Y2220427D01*
X7853969Y2205133D01*
X7869263Y2197486D01*
X7899851D01*
X7915146Y2205133D01*
X7922793Y2220427D01*
Y2289251D01*
X7951622Y2197486D02*
X7989857Y2289251D01*
X8028093Y2197486D01*
X7966916Y2235721D02*
X8012798Y2235721D01*
X8056922Y2197486D02*
X8056922Y2289251D01*
X8110451D01*
X8125746Y2281604D01*
X8133393Y2266310D01*
X8125746Y2251016D01*
X8110451Y2243369D01*
X8056922D01*
X8110451D02*
X8133393Y2197486D01*
X8200457D02*
X8200457Y2289251D01*
X8162222D02*
X8238693Y2289251D01*
X8341072Y2832486D02*
X8341072Y2924251D01*
X8394601D01*
X8409896Y2916604D01*
X8417543Y2901310D01*
X8409896Y2886016D01*
X8394601Y2878369D01*
X8341072D01*
X8394601D02*
X8417543Y2832486D01*
X8446372D02*
X8507548Y2893663D01*
Y2832486D02*
X8446372Y2893663D01*
X8633307Y2832486D02*
X8633307Y2924251D01*
X8595072D02*
X8671543Y2924251D01*
X8700372Y2832486D02*
X8761548Y2893663D01*
Y2832486D02*
X8700372Y2893663D01*
X0Y0D02*
M02*
