M48
FMAT,1
METRIC
T01C000.40000
T02C000.50000
T03C000.80000
T04C001.00000
T05C001.10000
T06C001.40000
T07C003.10000
%
G81
M71
T01
X1148797Y2509545
X1148797Y3017545
X1471609Y4360295
X1471609Y4930295
X1965243Y4645295
X1965243Y5215295
X1965243Y5621045
X2458877Y4930295
X2458877Y5430545
X2672797Y6510045
X2799797Y6637045
X2952511Y5215295
X2952511Y5785295
X2952511Y7495295
X3349797Y3682670
X3446145Y4930295
X3939779Y2365295
X4006297Y5621045
X4196797Y3652545
X4514297Y4986045
X4927047Y2365295
X5420681Y3790295
X5914315Y2365295
X5914315Y4645295
X6407949Y3790295
X6901583Y2365295
X6901583Y2935295
X7395217Y3220295
X7395217Y3790295
X7888851Y2365295
X7888851Y2935295
X7888851Y3505295
X7888851Y4075295
X7888851Y4645295
X8382485Y3220295
X8382485Y3790295
T02
X3159297Y3222295
T03
X1135297Y3444545
X1135297Y3825545
X2135297Y3444545
X2135297Y3825545
X3857797Y2619045
X3857797Y4397045
X4111797Y2619045
X4111797Y4397045
X4365797Y2619045
X4365797Y4397045
X4619797Y2619045
X4619797Y4397045
X4873797Y2619045
X4873797Y4397045
X5127797Y2619045
X5127797Y4397045
X5381797Y2619045
X5381797Y4397045
X5635797Y2619045
X5635797Y4397045
X5889797Y2619045
X5889797Y4397045
X6143797Y2619045
X6143797Y4397045
X6397797Y2619045
X6651797Y2619045
X6905797Y2619045
X7159797Y2619045
X7413797Y2619045
X7413797Y4397045
X7667797Y2619045
X7667797Y4397045
X7921797Y2619045
X7921797Y4397045
X8175797Y2619045
X8175797Y4397045
X8429797Y2619045
X8429797Y4397045
X8683797Y2619045
X8683797Y4397045
T04
X6588297Y4714545
X7096297Y4714545
X8366297Y4714545
X8620297Y4714545
T05
X1272297Y4524045
X3522297Y4524045
X3921297Y4714545
X4175297Y4714545
X4429297Y4714545
X4683297Y4714545
X4937297Y4714545
X8429797Y2301545
X8683797Y2301545
T06
X1508297Y2936545
X1758297Y2936545
X2008297Y2936545
X2258297Y2936545
X2809297Y2873045
X3159297Y2873045
T07
X1326797Y5422545
X4526797Y5422545
M30
