G04 GENERATED BY PULSONIX 12.5 GERBER.DLL 9449*
G04 #@! TF.GenerationSoftware,Pulsonix,Pulsonix,12.5.9449*
G04 #@! TF.CreationDate,2024-10-09T20:32:21--1:00*
G04 #@! TF.Part,Single*
%FSLAX35Y35*%
%LPD*%
%MOMM*%
G04 #@! TF.FileFunction,Copper,L4,Bot*
G04 #@! TF.FilePolarity,Positive*
G04 #@! TA.AperFunction,OtherCopper,Copper*
%ADD10C,0.50000*%
G04 #@! TA.AperFunction,ViaPad*
%ADD12C,0.80000*%
G04 #@! TA.AperFunction,Conductor*
%ADD13C,0.63500*%
%ADD14C,0.40640*%
%ADD16C,1.27000*%
G04 #@! TA.AperFunction,ComponentPad*
%ADD27C,1.70000*%
%ADD72C,2.00000*%
%AMT79*0 Octagon pad*4,1,8,0.39454,0.95250,-0.39454,0.95250,-0.95250,0.39454,-0.95250,-0.39454,-0.39454,-0.95250,0.39454,-0.95250,0.95250,-0.39454,0.95250,0.39454,0.39454,0.95250,0*%
%ADD79T79*%
%ADD84R,1.90500X1.90500*%
G04 #@! TA.AperFunction,ViaPad*
%ADD86C,0.70000*%
G04 #@! TA.AperFunction,ComponentPad*
%ADD103R,1.30000X2.60000*%
%ADD104O,1.30000X2.60000*%
%ADD109C,2.25000*%
G04 #@! TD.AperFunction*
X0Y0D02*
D02*
D10*
X1042597Y5822545D02*
Y3949769D01*
G75*
G02*
X1290297Y3825545I92700J-124224D01*
G01*
G75*
G02*
X1042597Y3701321I-155000J0D01*
G01*
Y3568769D01*
G75*
G02*
X1290297Y3444545I92700J-124224D01*
G01*
G75*
G02*
X1042597Y3320321I-155000J0D01*
G01*
Y2165045D01*
G75*
G03*
X1051797Y2155845I9200J0D01*
G01*
X8312643D01*
G75*
G02*
X8279547Y2206295I21904J50450D01*
G01*
Y2396795D01*
G75*
G02*
X8334547Y2451795I55000J0D01*
G01*
X8366988D01*
G75*
G02*
X8309797Y2554045I62809J102250D01*
G01*
Y2684045D01*
G75*
G02*
X8549797I120000J0D01*
G01*
Y2554045D01*
G75*
G02*
X8492606Y2451795I-120000J0D01*
G01*
X8525047D01*
G75*
G02*
X8578692Y2408926I0J-55000D01*
G01*
X8605454Y2435688D01*
G75*
G02*
X8563797Y2489045I13343J53357D01*
G01*
Y2749045D01*
G75*
G02*
X8618797Y2804045I55000J0D01*
G01*
X8748797D01*
G75*
G02*
X8803797Y2749045I0J-55000D01*
G01*
Y2489045D01*
G75*
G02*
X8762140Y2435688I-55000J0D01*
G01*
X8817938Y2379890D01*
G75*
G02*
X8834047Y2340858I-38891J-38891D01*
G01*
Y2262232D01*
G75*
G02*
X8817938Y2223200I-55000J-141D01*
G01*
X8762142Y2167404D01*
G75*
G02*
X8745156Y2155845I-38891J38891D01*
G01*
X8826797D01*
G75*
G03*
X8835997Y2165045I0J9200D01*
G01*
Y4759045D01*
G75*
G03*
X8826797Y4768245I-9200J0D01*
G01*
X8738687D01*
G75*
G02*
X8750297Y4714545I-118390J-53701D01*
G01*
G75*
G02*
X8498612Y4668798I-130000J0D01*
G01*
G75*
G02*
X8226297Y4714545I-132315J45747D01*
G01*
G75*
G02*
X8237005Y4768245I140000J1D01*
G01*
X7225589D01*
G75*
G02*
X7236297Y4714545I-129292J-53699D01*
G01*
G75*
G02*
X6956297I-140000J0D01*
G01*
G75*
G02*
X6967005Y4768245I140000J1D01*
G01*
X6717589D01*
G75*
G02*
X6728297Y4714545I-129292J-53699D01*
G01*
G75*
G02*
X6448297I-140000J0D01*
G01*
G75*
G02*
X6459005Y4768245I140000J1D01*
G01*
X5077547D01*
Y4619295D01*
G75*
G02*
X5032547Y4574295I-45000J0D01*
G01*
X4916223D01*
G75*
G02*
X4993797Y4462045I-42426J-112250D01*
G01*
Y4332045D01*
G75*
G02*
X4753797I-120000J0D01*
G01*
Y4462045D01*
G75*
G02*
X4833568Y4575101I120000J0D01*
G01*
G75*
G02*
X4797173Y4615935I8479J44194D01*
G01*
X4761642Y4580404D01*
G75*
G02*
X4722610Y4564295I-38891J38891D01*
G01*
X4682606D01*
G75*
G02*
X4739797Y4462045I-62809J-102250D01*
G01*
Y4332045D01*
G75*
G02*
X4499797I-120000J0D01*
G01*
Y4462045D01*
G75*
G02*
X4604314Y4581042I120000J0D01*
G01*
X4556297Y4629059D01*
X4507642Y4580404D01*
G75*
G02*
X4468610Y4564295I-38891J38891D01*
G01*
X4406355D01*
G75*
G02*
X4475797Y4462045I-40558J-102250D01*
G01*
Y4332045D01*
G75*
G02*
X4255797I-110000J0D01*
G01*
Y4462045D01*
G75*
G02*
X4361814Y4571973I110000J0D01*
G01*
G75*
G02*
X4350952Y4580404I28028J47323D01*
G01*
X4302297Y4629059D01*
X4253642Y4580404D01*
G75*
G02*
X4214610Y4564295I-38891J38891D01*
G01*
X4174606D01*
G75*
G02*
X4231797Y4462045I-62809J-102250D01*
G01*
Y4332045D01*
G75*
G02*
X4101542Y4212484I-120000J0D01*
G01*
X4115981Y4198045D01*
X7552488D01*
X7581047Y4226604D01*
Y4249133D01*
G75*
G02*
X7547797Y4332045I86750J82912D01*
G01*
Y4462045D01*
G75*
G02*
X7787797I120000J0D01*
G01*
Y4332045D01*
G75*
G02*
X7754547Y4249133I-120000J0D01*
G01*
Y4191016D01*
G75*
G02*
X7729139Y4129328I-86750J-346D01*
G01*
X7649764Y4049953D01*
G75*
G02*
X7588076Y4024545I-61342J61342D01*
G01*
X4080393D01*
G75*
G02*
X4018705Y4049953I-346J86750D01*
G01*
X3923455Y4145203D01*
G75*
G02*
X3898047Y4206891I61342J61342D01*
G01*
Y4218997D01*
G75*
G02*
X3737797Y4332045I-40250J113048D01*
G01*
Y4462045D01*
G75*
G02*
X3842314Y4581042I120000J0D01*
G01*
X3787156Y4636200D01*
G75*
G02*
X3771047Y4675232I38891J38891D01*
G01*
Y4753858D01*
G75*
G02*
X3787156Y4792890I55000J141D01*
G01*
X3842952Y4848686D01*
G75*
G02*
X3881984Y4864795I38891J-38891D01*
G01*
X3960610D01*
G75*
G02*
X3999642Y4848686I141J-55000D01*
G01*
X4048297Y4800031D01*
X4096952Y4848686D01*
G75*
G02*
X4135984Y4864795I38891J-38891D01*
G01*
X4211529D01*
X2654373Y6421951D01*
G75*
G02*
X2582797Y6510045I18424J88094D01*
G01*
G75*
G02*
X2760891Y6528469I90000J0D01*
G01*
X4424565Y4864795D01*
X4468610D01*
G75*
G02*
X4507642Y4848686I141J-55000D01*
G01*
X4556297Y4800031D01*
X4604952Y4848686D01*
G75*
G02*
X4643984Y4864795I38891J-38891D01*
G01*
X4722610D01*
G75*
G02*
X4761642Y4848686I141J-55000D01*
G01*
X4797173Y4813155D01*
G75*
G02*
X4827819Y4852486I44874J-3360D01*
G01*
G75*
G02*
X4810997Y4922545I137478J70059D01*
G01*
Y5822545D01*
G75*
G03*
X4801797Y5831745I-9200J0D01*
G01*
X3826797D01*
G75*
G02*
X3335997Y6322545I0J490800D01*
G01*
Y7253045D01*
G75*
G03*
X3026797Y7562245I-309200J0D01*
G01*
X2826797D01*
G75*
G03*
X2517597Y7253045I0J-309200D01*
G01*
Y6322545D01*
G75*
G02*
X2026797Y5831745I-490800J0D01*
G01*
X1051797D01*
G75*
G03*
X1042597Y5822545I0J-9200D01*
G01*
X8563797Y4462045D02*
G75*
G02*
X8803797I120000J0D01*
G01*
Y4332045D01*
G75*
G02*
X8563797I-120000J0D01*
G01*
Y4462045D01*
X8309797D02*
G75*
G02*
X8549797I120000J0D01*
G01*
Y4332045D01*
G75*
G02*
X8309797I-120000J0D01*
G01*
Y4462045D01*
X7293797D02*
G75*
G02*
X7533797I120000J0D01*
G01*
Y4332045D01*
G75*
G02*
X7293797I-120000J0D01*
G01*
Y4462045D01*
X7801797Y2684045D02*
G75*
G02*
X8041797I120000J0D01*
G01*
Y2554045D01*
G75*
G02*
X7801797I-120000J0D01*
G01*
Y2684045D01*
Y4462045D02*
G75*
G02*
X8041797I120000J0D01*
G01*
Y4332045D01*
G75*
G02*
X7801797I-120000J0D01*
G01*
Y4462045D01*
X8065797Y2684045D02*
G75*
G02*
X8285797I110000J0D01*
G01*
Y2554045D01*
G75*
G02*
X8065797I-110000J0D01*
G01*
Y2684045D01*
Y4462045D02*
G75*
G02*
X8285797I110000J0D01*
G01*
Y4332045D01*
G75*
G02*
X8065797I-110000J0D01*
G01*
Y4462045D01*
X5261797D02*
G75*
G02*
X5501797I120000J0D01*
G01*
Y4332045D01*
G75*
G02*
X5261797I-120000J0D01*
G01*
Y4462045D01*
X5525797D02*
G75*
G02*
X5745797I110000J0D01*
G01*
Y4332045D01*
G75*
G02*
X5525797I-110000J0D01*
G01*
Y4462045D01*
X5769797D02*
G75*
G02*
X6009797I120000J0D01*
G01*
Y4332045D01*
G75*
G02*
X5769797I-120000J0D01*
G01*
Y4462045D01*
X6023797D02*
G75*
G02*
X6263797I120000J0D01*
G01*
Y4332045D01*
G75*
G02*
X6023797I-120000J0D01*
G01*
Y4462045D01*
X5007797D02*
G75*
G02*
X5247797I120000J0D01*
G01*
Y4332045D01*
G75*
G02*
X5007797I-120000J0D01*
G01*
Y4462045D01*
X4255797Y2684045D02*
G75*
G02*
X4475797I110000J0D01*
G01*
Y2554045D01*
G75*
G02*
X4255797I-110000J0D01*
G01*
Y2684045D01*
X4499797D02*
G75*
G02*
X4739797I120000J0D01*
G01*
Y2554045D01*
G75*
G02*
X4499797I-120000J0D01*
G01*
Y2684045D01*
X4753797D02*
G75*
G02*
X4993797I120000J0D01*
G01*
Y2554045D01*
G75*
G02*
X4753797I-120000J0D01*
G01*
Y2684045D01*
X5007797D02*
G75*
G02*
X5247797I120000J0D01*
G01*
Y2554045D01*
G75*
G02*
X5007797I-120000J0D01*
G01*
Y2684045D01*
X5261797D02*
G75*
G02*
X5501797I120000J0D01*
G01*
Y2554045D01*
G75*
G02*
X5261797I-120000J0D01*
G01*
Y2684045D01*
X5525797D02*
G75*
G02*
X5745797I110000J0D01*
G01*
Y2554045D01*
G75*
G02*
X5525797I-110000J0D01*
G01*
Y2684045D01*
X5769797D02*
G75*
G02*
X6009797I120000J0D01*
G01*
Y2554045D01*
G75*
G02*
X5769797I-120000J0D01*
G01*
Y2684045D01*
X6023797D02*
G75*
G02*
X6263797I120000J0D01*
G01*
Y2554045D01*
G75*
G02*
X6023797I-120000J0D01*
G01*
Y2684045D01*
X6277797D02*
G75*
G02*
X6517797I120000J0D01*
G01*
Y2554045D01*
G75*
G02*
X6277797I-120000J0D01*
G01*
Y2684045D01*
X6531797D02*
G75*
G02*
X6771797I120000J0D01*
G01*
Y2554045D01*
G75*
G02*
X6531797I-120000J0D01*
G01*
Y2684045D01*
X6795797D02*
G75*
G02*
X7015797I110000J0D01*
G01*
Y2554045D01*
G75*
G02*
X6795797I-110000J0D01*
G01*
Y2684045D01*
X7039797D02*
G75*
G02*
X7279797I120000J0D01*
G01*
Y2554045D01*
G75*
G02*
X7039797I-120000J0D01*
G01*
Y2684045D01*
X7293797D02*
G75*
G02*
X7533797I120000J0D01*
G01*
Y2554045D01*
G75*
G02*
X7293797I-120000J0D01*
G01*
Y2684045D01*
X7547797D02*
G75*
G02*
X7787797I120000J0D01*
G01*
Y2554045D01*
G75*
G02*
X7547797I-120000J0D01*
G01*
Y2684045D01*
X3991797D02*
G75*
G02*
X4231797I120000J0D01*
G01*
Y2554045D01*
G75*
G02*
X3991797I-120000J0D01*
G01*
Y2684045D01*
X3689797Y4524045D02*
G75*
G02*
X3354797I-167500J0D01*
G01*
G75*
G02*
X3689797I167500J0D01*
G01*
X3737797Y2684045D02*
G75*
G02*
X3977797I120000J0D01*
G01*
Y2554045D01*
G75*
G02*
X3737797I-120000J0D01*
G01*
Y2684045D01*
X4736797Y5422545D02*
G75*
G02*
X4316797I-210000J0D01*
G01*
G75*
G02*
X4736797I210000J0D01*
G01*
X1439797Y4524045D02*
G75*
G02*
X1390797Y4405664I-167500J0D01*
G01*
Y4190004D01*
X1841929Y3738872D01*
G75*
G02*
X1876797Y3654920I-83632J-83952D01*
G01*
Y3036459D01*
G75*
G02*
X1883297Y3028197I-118499J-99915D01*
G01*
G75*
G02*
X2133297I125000J-91652D01*
G01*
G75*
G02*
X2245155Y3090987I125000J-91652D01*
G01*
X2460095Y3305927D01*
G75*
G02*
X2544047Y3340795I83952J-83632D01*
G01*
X3159297D01*
G75*
G02*
Y3103795I0J-118500D01*
G01*
X2593131D01*
X2412739Y2923403D01*
G75*
G02*
X2133297Y2844893I-154442J13142D01*
G01*
G75*
G02*
X1883297I-125000J91652D01*
G01*
G75*
G02*
X1633297I-125000J91652D01*
G01*
G75*
G02*
X1626797Y2836631I-124999J91653D01*
G01*
Y2795129D01*
X1652631Y2769295D01*
X2694141D01*
G75*
G02*
X2654297Y2873045I115156J103750D01*
G01*
G75*
G02*
X2964297I155000J0D01*
G01*
G75*
G02*
X2961280Y2842612I-155000J0D01*
G01*
X3004855Y2886187D01*
G75*
G02*
X3314297Y2873045I154442J-13142D01*
G01*
G75*
G02*
X3172439Y2718603I-155000J0D01*
G01*
X3020999Y2567163D01*
G75*
G02*
X2937047Y2532295I-83952J83632D01*
G01*
X1603547D01*
G75*
G02*
X1519595Y2567163I0J118500D01*
G01*
X1424665Y2662093D01*
G75*
G02*
X1389797Y2746045I83632J83952D01*
G01*
Y2836631D01*
G75*
G02*
X1353297Y2936545I118500J99914D01*
G01*
G75*
G02*
X1633297Y3028197I155000J0D01*
G01*
G75*
G02*
X1639797Y3036459I124999J-91653D01*
G01*
Y3605836D01*
X1188665Y4056968D01*
G75*
G02*
X1153797Y4140920I83632J83952D01*
G01*
Y4405664D01*
G75*
G02*
X1104797Y4524045I118500J118381D01*
G01*
G75*
G02*
X1439797I167500J0D01*
G01*
X1536797Y5422545D02*
G75*
G02*
X1116797I-210000J0D01*
G01*
G75*
G02*
X1536797I210000J0D01*
G01*
X2113264Y3597971D02*
X2199979Y3684686D01*
G75*
G02*
X1980297Y3825545I-64682J140859D01*
G01*
G75*
G02*
X2290297I155000J0D01*
G01*
G75*
G02*
X2276156Y3760863I-155000J0D01*
G01*
X2281595Y3766302D01*
G75*
G02*
X2365547Y3801170I83952J-83632D01*
G01*
X3349797D01*
G75*
G02*
Y3564170I0J-118500D01*
G01*
X2414631D01*
X2290223Y3439762D01*
G75*
G02*
X1980297Y3444545I-154926J4783D01*
G01*
G75*
G02*
X2113264Y3597971I155000J0D01*
G01*
X1042597Y4397045D02*
G36*
X1042597Y4397045D02*
Y3949769D01*
G75*
G02*
X1290297Y3825545I92700J-124224D01*
G01*
G75*
G02*
X1042597Y3701321I-155000J0D01*
G01*
Y3635045D01*
X1610588D01*
X1188665Y4056968D01*
G75*
G02*
X1153797Y4140920I83632J83952D01*
G01*
Y4397045D01*
X1042597D01*
G37*
Y3635045D02*
G36*
X1042597Y3635045D02*
Y3568769D01*
G75*
G02*
X1290297Y3444545I92700J-124224D01*
G01*
G75*
G02*
X1042597Y3320321I-155000J0D01*
G01*
Y2619045D01*
X1467713D01*
X1424665Y2662093D01*
G75*
G02*
X1389797Y2746045I83632J83952D01*
G01*
Y2836631D01*
G75*
G02*
X1353297Y2936545I118500J99914D01*
G01*
G75*
G02*
X1633297Y3028197I155000J0D01*
G01*
G75*
G02*
X1639797Y3036459I124999J-91653D01*
G01*
Y3605836D01*
X1610588Y3635045D01*
X1042597D01*
G37*
Y5422545D02*
G36*
X1042597Y5422545D02*
Y4397045D01*
X1153797D01*
Y4405664D01*
G75*
G02*
X1104797Y4524045I118500J118381D01*
G01*
G75*
G02*
X1439797I167500J0D01*
G01*
G75*
G02*
X1390797Y4405664I-167500J0D01*
G01*
Y4397045D01*
X3413085D01*
G75*
G02*
X3354797Y4524045I109212J127000D01*
G01*
G75*
G02*
X3689797I167500J0D01*
G01*
G75*
G02*
X3631509Y4397045I-167500J0D01*
G01*
X3737797D01*
Y4462045D01*
G75*
G02*
X3842314Y4581042I120000J0D01*
G01*
X3787156Y4636200D01*
G75*
G02*
X3771047Y4675091I38891J38891D01*
G01*
Y4675232D01*
Y4753858D01*
Y4753999D01*
G75*
G02*
X3787156Y4792890I55000J0D01*
G01*
X3842952Y4848686D01*
G75*
G02*
X3881984Y4864795I38891J-38891D01*
G01*
X3960610D01*
G75*
G02*
X3999642Y4848686I141J-55000D01*
G01*
X4048297Y4800031D01*
X4096952Y4848686D01*
G75*
G02*
X4135984Y4864795I38891J-38891D01*
G01*
X4211529D01*
X3653779Y5422545D01*
X1536797D01*
G75*
G02*
X1116797I-210000J0D01*
G01*
X1042597D01*
G37*
X4174606Y4564295D02*
G36*
X4174606Y4564295D02*
G75*
G02*
X4231797Y4462045I-62809J-102250D01*
G01*
Y4397045D01*
X4255797D01*
Y4462045D01*
G75*
G02*
X4361814Y4571973I110000J0D01*
G01*
G75*
G02*
X4350952Y4580404I28028J47323D01*
G01*
X4302297Y4629059D01*
X4253642Y4580404D01*
G75*
G02*
X4214610Y4564295I-38891J38891D01*
G01*
X4174606D01*
G37*
X4406355D02*
G36*
X4406355Y4564295D02*
G75*
G02*
X4475797Y4462045I-40558J-102250D01*
G01*
Y4397045D01*
X4499797D01*
Y4462045D01*
G75*
G02*
X4604314Y4581042I120000J0D01*
G01*
X4556297Y4629059D01*
X4507642Y4580404D01*
G75*
G02*
X4468610Y4564295I-38891J38891D01*
G01*
X4406355D01*
G37*
X1042597Y5822545D02*
G36*
X1042597Y5822545D02*
Y5422545D01*
X1116797D01*
G75*
G02*
X1536797I210000J0D01*
G01*
X3653779D01*
X2654373Y6421951D01*
G75*
G02*
X2582797Y6510045I18424J88094D01*
G01*
G75*
G02*
X2760891Y6528469I90000J0D01*
G01*
X3866815Y5422545D01*
X4316797D01*
G75*
G02*
X4736797I210000J0D01*
G01*
X4810997D01*
Y5822545D01*
G75*
G03*
X4801797Y5831745I-9200J0D01*
G01*
X3826797D01*
G75*
G02*
X3335997Y6322545I0J490800D01*
G01*
Y7253045D01*
G75*
G03*
X3026797Y7562245I-309200J0D01*
G01*
X2826797D01*
G75*
G03*
X2517597Y7253045I0J-309200D01*
G01*
Y6322545D01*
G75*
G02*
X2026797Y5831745I-490800J0D01*
G01*
X1051797D01*
G75*
G03*
X1042597Y5822545I0J-9200D01*
G01*
G37*
X3866815Y5422545D02*
G36*
X3866815Y5422545D02*
X4424565Y4864795D01*
X4468610D01*
G75*
G02*
X4507642Y4848686I141J-55000D01*
G01*
X4556297Y4800031D01*
X4604952Y4848686D01*
G75*
G02*
X4643984Y4864795I38891J-38891D01*
G01*
X4722610D01*
G75*
G02*
X4761642Y4848686I141J-55000D01*
G01*
X4797173Y4813155D01*
G75*
G02*
X4827819Y4852486I44874J-3360D01*
G01*
G75*
G02*
X4810997Y4922545I137478J70059D01*
G01*
Y5422545D01*
X4736797D01*
G75*
G02*
X4316797I-210000J0D01*
G01*
X3866815D01*
G37*
X4682606Y4564295D02*
G36*
X4682606Y4564295D02*
G75*
G02*
X4739797Y4462045I-62809J-102250D01*
G01*
Y4397045D01*
X4753797D01*
Y4462045D01*
G75*
G02*
X4833568Y4575101I120000J0D01*
G01*
G75*
G02*
X4797173Y4615935I8479J44194D01*
G01*
X4761642Y4580404D01*
G75*
G02*
X4722610Y4564295I-38891J38891D01*
G01*
X4682606D01*
G37*
X4101542Y4212484D02*
G36*
X4101542Y4212484D02*
X4115981Y4198045D01*
X7552488D01*
X7581047Y4226604D01*
Y4249133D01*
G75*
G02*
X7547797Y4332045I86750J82912D01*
G01*
Y4397045D01*
X7533797D01*
Y4332045D01*
G75*
G02*
X7293797I-120000J0D01*
G01*
Y4397045D01*
X6263797D01*
Y4332045D01*
G75*
G02*
X6023797I-120000J0D01*
G01*
Y4397045D01*
X6009797D01*
Y4332045D01*
G75*
G02*
X5769797I-120000J0D01*
G01*
Y4397045D01*
X5745797D01*
Y4332045D01*
G75*
G02*
X5525797I-110000J0D01*
G01*
Y4397045D01*
X5501797D01*
Y4332045D01*
G75*
G02*
X5261797I-120000J0D01*
G01*
Y4397045D01*
X5247797D01*
Y4332045D01*
G75*
G02*
X5007797I-120000J0D01*
G01*
Y4397045D01*
X4993797D01*
Y4332045D01*
G75*
G02*
X4753797I-120000J0D01*
G01*
Y4397045D01*
X4739797D01*
Y4332045D01*
G75*
G02*
X4499797I-120000J0D01*
G01*
Y4397045D01*
X4475797D01*
Y4332045D01*
G75*
G02*
X4255797I-110000J0D01*
G01*
Y4397045D01*
X4231797D01*
Y4332045D01*
G75*
G02*
X4101542Y4212484I-120000J0D01*
G01*
G37*
X1042597Y2619045D02*
G36*
X1042597Y2619045D02*
Y2165045D01*
G75*
G03*
X1051797Y2155845I9200J0D01*
G01*
X8312643D01*
G75*
G02*
X8279547Y2206295I21904J50450D01*
G01*
Y2396795D01*
G75*
G02*
X8334547Y2451795I55000J0D01*
G01*
X8366988D01*
G75*
G02*
X8309797Y2554045I62809J102250D01*
G01*
Y2619045D01*
X8285797D01*
Y2554045D01*
G75*
G02*
X8065797I-110000J0D01*
G01*
Y2619045D01*
X8041797D01*
Y2554045D01*
G75*
G02*
X7801797I-120000J0D01*
G01*
Y2619045D01*
X7787797D01*
Y2554045D01*
G75*
G02*
X7547797I-120000J0D01*
G01*
Y2619045D01*
X7533797D01*
Y2554045D01*
G75*
G02*
X7293797I-120000J0D01*
G01*
Y2619045D01*
X7279797D01*
Y2554045D01*
G75*
G02*
X7039797I-120000J0D01*
G01*
Y2619045D01*
X7015797D01*
Y2554045D01*
G75*
G02*
X6795797I-110000J0D01*
G01*
Y2619045D01*
X6771797D01*
Y2554045D01*
G75*
G02*
X6531797I-120000J0D01*
G01*
Y2619045D01*
X6517797D01*
Y2554045D01*
G75*
G02*
X6277797I-120000J0D01*
G01*
Y2619045D01*
X6263797D01*
Y2554045D01*
G75*
G02*
X6023797I-120000J0D01*
G01*
Y2619045D01*
X6009797D01*
Y2554045D01*
G75*
G02*
X5769797I-120000J0D01*
G01*
Y2619045D01*
X5745797D01*
Y2554045D01*
G75*
G02*
X5525797I-110000J0D01*
G01*
Y2619045D01*
X5501797D01*
Y2554045D01*
G75*
G02*
X5261797I-120000J0D01*
G01*
Y2619045D01*
X5247797D01*
Y2554045D01*
G75*
G02*
X5007797I-120000J0D01*
G01*
Y2619045D01*
X4993797D01*
Y2554045D01*
G75*
G02*
X4753797I-120000J0D01*
G01*
Y2619045D01*
X4739797D01*
Y2554045D01*
G75*
G02*
X4499797I-120000J0D01*
G01*
Y2619045D01*
X4475797D01*
Y2554045D01*
G75*
G02*
X4255797I-110000J0D01*
G01*
Y2619045D01*
X4231797D01*
Y2554045D01*
G75*
G02*
X3991797I-120000J0D01*
G01*
Y2619045D01*
X3977797D01*
Y2554045D01*
G75*
G02*
X3737797I-120000J0D01*
G01*
Y2619045D01*
X3072881D01*
X3020999Y2567163D01*
G75*
G02*
X2937047Y2532295I-83952J83632D01*
G01*
X1603547D01*
G75*
G02*
X1519595Y2567163I0J118500D01*
G01*
X1467713Y2619045D01*
X1042597D01*
G37*
X8492606Y2451795D02*
G36*
X8492606Y2451795D02*
X8525047D01*
G75*
G02*
X8578692Y2408926I0J-55000D01*
G01*
X8605454Y2435688D01*
G75*
G02*
X8563797Y2489045I13343J53357D01*
G01*
Y2619045D01*
X8549797D01*
Y2554045D01*
G75*
G02*
X8492606Y2451795I-120000J0D01*
G01*
G37*
X8745156Y2155845D02*
G36*
X8745156Y2155845D02*
X8826797D01*
G75*
G03*
X8835997Y2165045I0J9200D01*
G01*
Y2619045D01*
X8803797D01*
Y2489045D01*
G75*
G02*
X8762140Y2435688I-55000J0D01*
G01*
X8817938Y2379890D01*
G75*
G02*
X8834047Y2340999I-38891J-38891D01*
G01*
Y2340858D01*
Y2262232D01*
Y2262091D01*
G75*
G02*
X8817938Y2223200I-55000J0D01*
G01*
X8762142Y2167404D01*
G75*
G02*
X8745156Y2155845I-38891J38891D01*
G01*
G37*
X1626797Y2836631D02*
G36*
X1626797Y2836631D02*
Y2795129D01*
X1652631Y2769295D01*
X2694141D01*
G75*
G02*
X2654297Y2873045I115156J103750D01*
G01*
G75*
G02*
X2964297I155000J0D01*
G01*
G75*
G02*
X2961280Y2842612I-155000J0D01*
G01*
X3004855Y2886187D01*
G75*
G02*
X3314297Y2873045I154442J-13142D01*
G01*
G75*
G02*
X3172439Y2718603I-155000J0D01*
G01*
X3072881Y2619045D01*
X3737797D01*
Y2684045D01*
G75*
G02*
X3977797I120000J0D01*
G01*
Y2619045D01*
X3991797D01*
Y2684045D01*
G75*
G02*
X4231797I120000J0D01*
G01*
Y2619045D01*
X4255797D01*
Y2684045D01*
G75*
G02*
X4475797I110000J0D01*
G01*
Y2619045D01*
X4499797D01*
Y2684045D01*
G75*
G02*
X4739797I120000J0D01*
G01*
Y2619045D01*
X4753797D01*
Y2684045D01*
G75*
G02*
X4993797I120000J0D01*
G01*
Y2619045D01*
X5007797D01*
Y2684045D01*
G75*
G02*
X5247797I120000J0D01*
G01*
Y2619045D01*
X5261797D01*
Y2684045D01*
G75*
G02*
X5501797I120000J0D01*
G01*
Y2619045D01*
X5525797D01*
Y2684045D01*
G75*
G02*
X5745797I110000J0D01*
G01*
Y2619045D01*
X5769797D01*
Y2684045D01*
G75*
G02*
X6009797I120000J0D01*
G01*
Y2619045D01*
X6023797D01*
Y2684045D01*
G75*
G02*
X6263797I120000J0D01*
G01*
Y2619045D01*
X6277797D01*
Y2684045D01*
G75*
G02*
X6517797I120000J0D01*
G01*
Y2619045D01*
X6531797D01*
Y2684045D01*
G75*
G02*
X6771797I120000J0D01*
G01*
Y2619045D01*
X6795797D01*
Y2684045D01*
G75*
G02*
X7015797I110000J0D01*
G01*
Y2619045D01*
X7039797D01*
Y2684045D01*
G75*
G02*
X7279797I120000J0D01*
G01*
Y2619045D01*
X7293797D01*
Y2684045D01*
G75*
G02*
X7533797I120000J0D01*
G01*
Y2619045D01*
X7547797D01*
Y2684045D01*
G75*
G02*
X7787797I120000J0D01*
G01*
Y2619045D01*
X7801797D01*
Y2684045D01*
G75*
G02*
X8041797I120000J0D01*
G01*
Y2619045D01*
X8065797D01*
Y2684045D01*
G75*
G02*
X8285797I110000J0D01*
G01*
Y2619045D01*
X8309797D01*
Y2684045D01*
G75*
G02*
X8549797I120000J0D01*
G01*
Y2619045D01*
X8563797D01*
Y2749045D01*
G75*
G02*
X8618797Y2804045I55000J0D01*
G01*
X8748797D01*
G75*
G02*
X8803797Y2749045I0J-55000D01*
G01*
Y2619045D01*
X8835997D01*
Y3635045D01*
X3458306D01*
G75*
G02*
X3349797Y3564170I-108509J47625D01*
G01*
X2414631D01*
X2290223Y3439762D01*
G75*
G02*
X1980297Y3444545I-154926J4783D01*
G01*
G75*
G02*
X2113264Y3597971I155000J0D01*
G01*
X2150338Y3635045D01*
X1876797D01*
Y3036459D01*
G75*
G02*
X1883297Y3028197I-118499J-99915D01*
G01*
G75*
G02*
X2133297I125000J-91652D01*
G01*
G75*
G02*
X2245155Y3090987I125000J-91652D01*
G01*
X2460095Y3305927D01*
G75*
G02*
X2544047Y3340795I83952J-83632D01*
G01*
X3159297D01*
G75*
G02*
X3277797Y3222295I0J-118500D01*
G01*
G75*
G02*
X3159297Y3103795I-118500J0D01*
G01*
X2593131D01*
X2412739Y2923403D01*
G75*
G02*
X2133297Y2844893I-154442J13142D01*
G01*
G75*
G02*
X1883297I-125000J91652D01*
G01*
G75*
G02*
X1633297I-125000J91652D01*
G01*
G75*
G02*
X1626797Y2836631I-124999J91653D01*
G01*
G37*
X1390797Y4397045D02*
G36*
X1390797Y4397045D02*
Y4190004D01*
X1841929Y3738872D01*
G75*
G02*
X1876797Y3654920I-83632J-83952D01*
G01*
Y3635045D01*
X2150338D01*
X2199979Y3684686D01*
G75*
G02*
X1980297Y3825545I-64682J140859D01*
G01*
G75*
G02*
X2290297I155000J0D01*
G01*
G75*
G02*
X2276156Y3760863I-155000J0D01*
G01*
X2281595Y3766302D01*
G75*
G02*
X2365547Y3801170I83952J-83632D01*
G01*
X3349797D01*
G75*
G02*
X3468297Y3682670I0J-118500D01*
G01*
G75*
G02*
X3458306Y3635045I-118500J-1D01*
G01*
X8835997D01*
Y4397045D01*
X8803797D01*
Y4332045D01*
G75*
G02*
X8563797I-120000J0D01*
G01*
Y4397045D01*
X8549797D01*
Y4332045D01*
G75*
G02*
X8309797I-120000J0D01*
G01*
Y4397045D01*
X8285797D01*
Y4332045D01*
G75*
G02*
X8065797I-110000J0D01*
G01*
Y4397045D01*
X8041797D01*
Y4332045D01*
G75*
G02*
X7801797I-120000J0D01*
G01*
Y4397045D01*
X7787797D01*
Y4332045D01*
G75*
G02*
X7754547Y4249133I-120000J0D01*
G01*
Y4191016D01*
X7754548Y4190670D01*
G75*
G02*
X7729139Y4129328I-86751J0D01*
G01*
X7649764Y4049953D01*
G75*
G02*
X7588076Y4024545I-61342J61342D01*
G01*
X4080393D01*
G75*
G02*
X4018705Y4049953I-346J86750D01*
G01*
X3923455Y4145203D01*
G75*
G02*
X3898046Y4206545I61342J61342D01*
G01*
X3898047Y4206891D01*
Y4218997D01*
G75*
G02*
X3737797Y4332045I-40250J113048D01*
G01*
Y4397045D01*
X3631509D01*
G75*
G02*
X3413085I-109212J127000D01*
G01*
X1390797D01*
G37*
X4916223Y4574295D02*
G36*
X4916223Y4574295D02*
G75*
G02*
X4993797Y4462045I-42426J-112250D01*
G01*
Y4397045D01*
X5007797D01*
Y4462045D01*
G75*
G02*
X5247797I120000J0D01*
G01*
Y4397045D01*
X5261797D01*
Y4462045D01*
G75*
G02*
X5501797I120000J0D01*
G01*
Y4397045D01*
X5525797D01*
Y4462045D01*
G75*
G02*
X5745797I110000J0D01*
G01*
Y4397045D01*
X5769797D01*
Y4462045D01*
G75*
G02*
X6009797I120000J0D01*
G01*
Y4397045D01*
X6023797D01*
Y4462045D01*
G75*
G02*
X6263797I120000J0D01*
G01*
Y4397045D01*
X7293797D01*
Y4462045D01*
G75*
G02*
X7533797I120000J0D01*
G01*
Y4397045D01*
X7547797D01*
Y4462045D01*
G75*
G02*
X7787797I120000J0D01*
G01*
Y4397045D01*
X7801797D01*
Y4462045D01*
G75*
G02*
X8041797I120000J0D01*
G01*
Y4397045D01*
X8065797D01*
Y4462045D01*
G75*
G02*
X8285797I110000J0D01*
G01*
Y4397045D01*
X8309797D01*
Y4462045D01*
G75*
G02*
X8549797I120000J0D01*
G01*
Y4397045D01*
X8563797D01*
Y4462045D01*
G75*
G02*
X8803797I120000J0D01*
G01*
Y4397045D01*
X8835997D01*
Y4759045D01*
G75*
G03*
X8826797Y4768245I-9200J0D01*
G01*
X8738687D01*
G75*
G02*
X8750297Y4714545I-118390J-53701D01*
G01*
G75*
G02*
X8498612Y4668798I-130000J0D01*
G01*
G75*
G02*
X8226297Y4714545I-132315J45747D01*
G01*
Y4714546D01*
G75*
G02*
X8237005Y4768245I140000J0D01*
G01*
X7225589D01*
G75*
G02*
X7236297Y4714546I-129292J-53699D01*
G01*
Y4714545D01*
G75*
G02*
X6956297I-140000J0D01*
G01*
Y4714546D01*
G75*
G02*
X6967005Y4768245I140000J0D01*
G01*
X6717589D01*
G75*
G02*
X6728297Y4714546I-129292J-53699D01*
G01*
Y4714545D01*
G75*
G02*
X6448297I-140000J0D01*
G01*
Y4714546D01*
G75*
G02*
X6459005Y4768245I140000J0D01*
G01*
X5077547D01*
Y4619295D01*
G75*
G02*
X5032547Y4574295I-45000J0D01*
G01*
X4916223D01*
G37*
X4325797Y2619045D02*
X4255797D01*
X4325797Y4397045D02*
X4255797D01*
X4365797Y2514045D02*
Y2444045D01*
Y2724045D02*
Y2794045D01*
Y4292045D02*
Y4222045D01*
X4405797Y2619045D02*
X4475797D01*
X4405797Y4397045D02*
X4475797D01*
X4937297Y4634545D02*
Y4574295D01*
X5017297Y4714545D02*
X5077547D01*
X5595797Y2619045D02*
X5525797D01*
X5595797Y4397045D02*
X5525797D01*
X5635797Y2514045D02*
Y2444045D01*
Y2724045D02*
Y2794045D01*
Y4292045D02*
Y4222045D01*
Y4502045D02*
Y4572045D01*
X5675797Y2619045D02*
X5745797D01*
X5675797Y4397045D02*
X5745797D01*
X6865797Y2619045D02*
X6795797D01*
X6905797Y2514045D02*
Y2444045D01*
Y2724045D02*
Y2794045D01*
X6945797Y2619045D02*
X7015797D01*
X8135797D02*
X8065797D01*
X8135797Y4397045D02*
X8065797D01*
X8175797Y2514045D02*
Y2444045D01*
Y2724045D02*
Y2794045D01*
Y4292045D02*
Y4222045D01*
Y4502045D02*
Y4572045D01*
X8215797Y2619045D02*
X8285797D01*
X8215797Y4397045D02*
X8285797D01*
X8620297Y4639545D02*
Y4584545D01*
X8695297Y4714545D02*
X8750297D01*
D02*
D12*
X3159297Y3222295D03*
D02*
D13*
X3921297Y4714545D02*
X3984797Y4651045D01*
Y4206545D01*
X4080047Y4111295D01*
X7588422D01*
X7667797Y4190670D01*
Y4397045D01*
X4937297Y4714545D02*
X4746283Y4905560D01*
D02*
D14*
X2672797Y6510045D02*
X4429297Y4753545D01*
Y4714545D01*
D02*
D16*
X1272297Y4524045D02*
Y4140920D01*
X1758297Y3654920D01*
Y2936545D01*
X3159297Y2873045D02*
X2937047Y2650795D01*
X1603547D01*
X1508297Y2746045D01*
Y2936545D01*
X3159297Y3222295D02*
X2544047D01*
X2258297Y2936545D01*
X3349797Y3682670D02*
X2365547D01*
X2127422Y3444545D01*
X2135297D01*
D02*
D27*
X6588297Y4714545D03*
X7096297D03*
X8366297D03*
X8620297D03*
D02*
D72*
X1135297Y3444545D03*
Y3825545D03*
X1508297Y2936545D03*
X1758297D03*
X2008297D03*
X2135297Y3444545D03*
Y3825545D03*
X2258297Y2936545D03*
X2809297Y2873045D03*
X3159297D03*
D02*
D79*
X3921297Y4714545D03*
X4175297D03*
X4429297D03*
X4683297D03*
X8683797Y2301545D03*
D02*
D84*
X4937297Y4714545D03*
X8429797Y2301545D03*
D02*
D86*
X1148797Y2509545D03*
Y3017545D03*
X1471609Y4360295D03*
Y4930295D03*
X1965243Y4645295D03*
Y5215295D03*
Y5621045D03*
X2458877Y4930295D03*
Y5430545D03*
X2672797Y6510045D03*
X2799797Y6637045D03*
X2952511Y5215295D03*
Y5785295D03*
Y7495295D03*
X3349797Y3682670D03*
X3446145Y4930295D03*
X3939779Y2365295D03*
X4006297Y5621045D03*
X4196797Y3652545D03*
X4514297Y4986045D03*
X4927047Y2365295D03*
X5420681Y3790295D03*
X5914315Y2365295D03*
Y4645295D03*
X6407949Y3790295D03*
X6901583Y2365295D03*
Y2935295D03*
X7395217Y3220295D03*
Y3790295D03*
X7888851Y2365295D03*
Y2935295D03*
Y3505295D03*
Y4075295D03*
Y4645295D03*
X8382485Y3220295D03*
Y3790295D03*
D02*
D103*
X8683797Y2619045D03*
D02*
D104*
X3857797D03*
Y4397045D03*
X4111797Y2619045D03*
Y4397045D03*
X4365797Y2619045D03*
Y4397045D03*
X4619797Y2619045D03*
Y4397045D03*
X4873797Y2619045D03*
Y4397045D03*
X5127797Y2619045D03*
Y4397045D03*
X5381797Y2619045D03*
Y4397045D03*
X5635797Y2619045D03*
Y4397045D03*
X5889797Y2619045D03*
Y4397045D03*
X6143797Y2619045D03*
Y4397045D03*
X6397797Y2619045D03*
X6651797D03*
X6905797D03*
X7159797D03*
X7413797D03*
Y4397045D03*
X7667797Y2619045D03*
Y4397045D03*
X7921797Y2619045D03*
Y4397045D03*
X8175797Y2619045D03*
Y4397045D03*
X8429797Y2619045D03*
Y4397045D03*
X8683797D03*
D02*
D109*
X1272297Y4524045D03*
X3522297D03*
X0Y0D02*
M02*
