ISO-10303-21;
HEADER;
/* Generated by software containing ST-Developer
 * from STEP Tools, Inc. (www.steptools.com) 
 */

FILE_DESCRIPTION(
/* description */ ('Alibre Inc.'),
/* implementation_level */ '2;1');

FILE_NAME(
/* name */ 'export-CB77AE06-88F6-4DBA-8694-679BE7ABCA3D',
/* time_stamp */ '2026-06-12T21:47:57+02:00',
/* author */ (''),
/* organization */ (''),
/* preprocessor_version */ 'ST-DEVELOPER v17',
/* originating_system */ 'Alibre',
/* authorisation */ '');

FILE_SCHEMA (('CONFIG_CONTROL_DESIGN'));
ENDSEC;

DATA;
#10=MECHANICAL_CONTEXT('detailed design',#18,'mechanical');
#11=PRODUCT_RELATED_PRODUCT_CATEGORY('Detail','',(#98));
#12=CC_DESIGN_SECURITY_CLASSIFICATION(#14,(#97));
#13=SECURITY_CLASSIFICATION_LEVEL('unclassified');
#14=SECURITY_CLASSIFICATION('Name','Sicherheit f\X\FCr Version',#13);
#15=SHAPE_DEFINITION_REPRESENTATION(#16,#1223);
#16=PRODUCT_DEFINITION_SHAPE('','DefinitionDesc',#96);
#17=APPLICATION_PROTOCOL_DEFINITION('AP definition status',
'config_control_design',1994,#18);
#18=APPLICATION_CONTEXT(
'control the configuration of three dimensional design');
#19=DESIGN_CONTEXT('detailed design',#18,'design');
#20=PERSON_AND_ORGANIZATION_ROLE('creator');
#21=PERSON_AND_ORGANIZATION_ROLE('classification_officer');
#22=PERSON_AND_ORGANIZATION_ROLE('creator');
#23=PERSON_AND_ORGANIZATION_ROLE('design_supplier');
#24=PERSON_AND_ORGANIZATION_ROLE('design_owner');
#25=CC_DESIGN_PERSON_AND_ORGANIZATION_ASSIGNMENT(#57,#20,(#96));
#26=CC_DESIGN_PERSON_AND_ORGANIZATION_ASSIGNMENT(#60,#21,(#14));
#27=CC_DESIGN_PERSON_AND_ORGANIZATION_ASSIGNMENT(#61,#22,(#97));
#28=CC_DESIGN_PERSON_AND_ORGANIZATION_ASSIGNMENT(#62,#23,(#97));
#29=CC_DESIGN_PERSON_AND_ORGANIZATION_ASSIGNMENT(#63,#24,(#98));
#30=DATE_TIME_ROLE('creation_date');
#31=DATE_TIME_ROLE('classification_date');
#32=CC_DESIGN_DATE_AND_TIME_ASSIGNMENT(#86,#30,(#96));
#33=CC_DESIGN_DATE_AND_TIME_ASSIGNMENT(#89,#31,(#14));
#34=CC_DESIGN_APPROVAL(#93,(#96));
#35=CC_DESIGN_APPROVAL(#94,(#97));
#36=CC_DESIGN_APPROVAL(#95,(#14));
#37=APPROVAL_PERSON_ORGANIZATION(#56,#93,#64);
#38=APPROVAL_PERSON_ORGANIZATION(#58,#94,#65);
#39=APPROVAL_PERSON_ORGANIZATION(#59,#95,#66);
#40=ORGANIZATION('DEFINITION_APPROVEDBY_ORG_ID',
'DEFINITION_APPROVEDBY_ORG_NAME','DEFINITION_APPROVEDBY_ORG_DESCR');
#41=ORGANIZATION('DEF_CREATOR_ORG_ID','DEF_CREATOR_ORG_NAME',
'DEF_CREATOR_ORG_DESCR');
#42=ORGANIZATION('APPROVEDBY_ORG_ID','APPROVEDBY_ORG_NAME',
'APPROVEDBY_ORG_DESCR');
#43=ORGANIZATION('SECURITY_APPROVEDBY_ORG_ID',
'SECURITY_APPROVEDBY_ORG_NAME','SECURITY_APPROVEDBY_ORG_DESCR');
#44=ORGANIZATION('ABTEILUNGSLEITER_ORG_ID','ABTEILUNSLEITER_ORG_NAME',
'CLASSOFFICER_ORG_BEZEICHNUNG');
#45=ORGANIZATION('CREATOR_ORG_ID','CREATOR_ORG_NAME',
'CREATOR_ORG_DESCR');
#46=ORGANIZATION('SUPPLIER_ORG_ID','SUPPLIER_ORG_NAME',
'SUPPLIER_ORG_DESCR');
#47=ORGANIZATION('OWNER_ORG_ID','OWNER_ORG_NAME','OWNER_ORG_DESCR');
#48=PERSON('DEFINITION_approverID','DEFINITION_APPROVEDBY_LASTNAME',
'DEFINITION_APPROVEDBY_FIRSTNAME',$,$,$);
#49=PERSON('DEF_createrID','DEF_CREATOR_LASTNAME',
'DEF_CREATOR_FIRSTNAME',$,$,$);
#50=PERSON('approverID','APPROVEDBY_LASTNAME','APPROVEDBY_FIRSTNAME',$,
$,$);
#51=PERSON('SECURITY_approverID','SECURITY_LASTNAME',
'SECURITY_APPROVEDBY_FIRSTNAME',$,$,$);
#52=PERSON('ID Klassifikation','CLASSOFFICER_LASTNAME',
'CLASSOFFICER_VORNAME',$,$,$);
#53=PERSON('ErstellerID','CREATOR_LASTNAME','CREATOR_FIRSTNAME',$,$,$);
#54=PERSON('supplierID','SUPPLIER_LASTNAME','SUPPLIER_FIRSTNAME',$,$,$);
#55=PERSON('ownerID','OWNER_LASTNAME','OWNER_FIRSTNAME',$,$,$);
#56=PERSON_AND_ORGANIZATION(#48,#40);
#57=PERSON_AND_ORGANIZATION(#49,#41);
#58=PERSON_AND_ORGANIZATION(#50,#42);
#59=PERSON_AND_ORGANIZATION(#51,#43);
#60=PERSON_AND_ORGANIZATION(#52,#44);
#61=PERSON_AND_ORGANIZATION(#53,#45);
#62=PERSON_AND_ORGANIZATION(#54,#46);
#63=PERSON_AND_ORGANIZATION(#55,#47);
#64=APPROVAL_ROLE('definition_approval');
#65=APPROVAL_ROLE('version_approval');
#66=APPROVAL_ROLE('security_approval');
#67=APPROVAL_DATE_TIME(#85,#93);
#68=APPROVAL_DATE_TIME(#87,#94);
#69=APPROVAL_DATE_TIME(#88,#95);
#70=COORDINATED_UNIVERSAL_TIME_OFFSET(2,0,.AHEAD.);
#71=COORDINATED_UNIVERSAL_TIME_OFFSET(2,0,.AHEAD.);
#72=COORDINATED_UNIVERSAL_TIME_OFFSET(2,0,.AHEAD.);
#73=COORDINATED_UNIVERSAL_TIME_OFFSET(2,0,.AHEAD.);
#74=COORDINATED_UNIVERSAL_TIME_OFFSET(2,0,.AHEAD.);
#75=LOCAL_TIME(20,49,46.,#70);
#76=LOCAL_TIME(20,49,46.,#71);
#77=LOCAL_TIME(20,49,46.,#72);
#78=LOCAL_TIME(20,49,46.,#73);
#79=LOCAL_TIME(20,49,46.,#74);
#80=CALENDAR_DATE(2026,1,6);
#81=CALENDAR_DATE(2026,1,6);
#82=CALENDAR_DATE(2026,1,6);
#83=CALENDAR_DATE(2026,1,6);
#84=CALENDAR_DATE(2026,1,6);
#85=DATE_AND_TIME(#80,#75);
#86=DATE_AND_TIME(#81,#76);
#87=DATE_AND_TIME(#82,#77);
#88=DATE_AND_TIME(#83,#78);
#89=DATE_AND_TIME(#84,#79);
#90=APPROVAL_STATUS('not_yet_approved');
#91=APPROVAL_STATUS('not_yet_approved');
#92=APPROVAL_STATUS('not_yet_approved');
#93=APPROVAL(#90,'Genehmigung der Ausf\X\FChrung');
#94=APPROVAL(#91,'Genehmigung der Version');
#95=APPROVAL(#92,'Sicherheits Genehmigung');
#96=PRODUCT_DEFINITION('DefinitionID','DefinitionDesc',#97,#19);
#97=PRODUCT_DEFINITION_FORMATION_WITH_SPECIFIED_SOURCE(
'PRODUCT_VERSION_ID','PRODUCT_VERSION_DESCR',#98,.NOT_KNOWN.);
#98=PRODUCT('','geh\X\E4use_neu','',(#10));
#99=(
LENGTH_UNIT()
NAMED_UNIT(*)
SI_UNIT(.MILLI.,.METRE.)
);
#100=(
NAMED_UNIT(*)
PLANE_ANGLE_UNIT()
SI_UNIT($,.RADIAN.)
);
#101=(
NAMED_UNIT(*)
SI_UNIT($,.STERADIAN.)
SOLID_ANGLE_UNIT()
);
#102=UNCERTAINTY_MEASURE_WITH_UNIT(LENGTH_MEASURE(1.E-6),#99,
'DISTANCE_ACCURACY_VALUE',
'Maximum model space distance between geometric entities at asserted c
onnectivities');
#103=(
GEOMETRIC_REPRESENTATION_CONTEXT(3)
GLOBAL_UNCERTAINTY_ASSIGNED_CONTEXT((#102))
GLOBAL_UNIT_ASSIGNED_CONTEXT((#101,#100,#99))
REPRESENTATION_CONTEXT('ID1','3D')
);
#104=VECTOR('',#879,1.);
#105=VECTOR('',#880,1.);
#106=VECTOR('',#881,1.);
#107=VECTOR('',#882,1.);
#108=VECTOR('',#884,1.);
#109=VECTOR('',#885,1.);
#110=VECTOR('',#886,1.);
#111=VECTOR('',#888,1.);
#112=VECTOR('',#889,1.);
#113=VECTOR('',#890,1.);
#114=VECTOR('',#892,1.);
#115=VECTOR('',#893,1.);
#116=VECTOR('',#896,1.);
#117=VECTOR('',#897,1.);
#118=VECTOR('',#898,1.);
#119=VECTOR('',#899,1.);
#120=VECTOR('',#901,1.);
#121=VECTOR('',#902,1.);
#122=VECTOR('',#903,1.);
#123=VECTOR('',#905,1.);
#124=VECTOR('',#906,1.);
#125=VECTOR('',#907,1.);
#126=VECTOR('',#909,1.);
#127=VECTOR('',#911,1.);
#128=VECTOR('',#912,1.);
#129=VECTOR('',#913,1.);
#130=VECTOR('',#914,1.);
#131=VECTOR('',#916,1.);
#132=VECTOR('',#917,1.);
#133=VECTOR('',#918,1.);
#134=VECTOR('',#919,1.);
#135=VECTOR('',#921,1.);
#136=VECTOR('',#922,1.);
#137=VECTOR('',#924,1.);
#138=VECTOR('',#927,1.);
#139=VECTOR('',#928,1.);
#140=VECTOR('',#943,1.);
#141=VECTOR('',#948,1.);
#142=VECTOR('',#951,1.);
#143=VECTOR('',#954,1.);
#144=VECTOR('',#957,1.);
#145=VECTOR('',#960,1.);
#146=VECTOR('',#963,1.);
#147=VECTOR('',#966,1.);
#148=VECTOR('',#969,1.);
#149=VECTOR('',#971,1.);
#150=VECTOR('',#973,1.);
#151=VECTOR('',#995,1.);
#152=VECTOR('',#996,1.);
#153=VECTOR('',#997,1.);
#154=VECTOR('',#998,1.);
#155=VECTOR('',#1000,1.);
#156=VECTOR('',#1002,1.);
#157=VECTOR('',#1004,1.);
#158=VECTOR('',#1005,1.);
#159=VECTOR('',#1006,1.);
#160=VECTOR('',#1008,1.);
#161=VECTOR('',#1009,1.);
#162=VECTOR('',#1011,1.);
#163=VECTOR('',#1012,1.);
#164=VECTOR('',#1014,1.);
#165=LINE('',#1040,#104);
#166=LINE('',#1043,#105);
#167=LINE('',#1045,#106);
#168=LINE('',#1047,#107);
#169=LINE('',#1049,#108);
#170=LINE('',#1051,#109);
#171=LINE('',#1053,#110);
#172=LINE('',#1055,#111);
#173=LINE('',#1057,#112);
#174=LINE('',#1059,#113);
#175=LINE('',#1061,#114);
#176=LINE('',#1062,#115);
#177=LINE('',#1065,#116);
#178=LINE('',#1068,#117);
#179=LINE('',#1070,#118);
#180=LINE('',#1072,#119);
#181=LINE('',#1074,#120);
#182=LINE('',#1076,#121);
#183=LINE('',#1078,#122);
#184=LINE('',#1080,#123);
#185=LINE('',#1082,#124);
#186=LINE('',#1084,#125);
#187=LINE('',#1086,#126);
#188=LINE('',#1088,#127);
#189=LINE('',#1091,#128);
#190=LINE('',#1093,#129);
#191=LINE('',#1095,#130);
#192=LINE('',#1097,#131);
#193=LINE('',#1100,#132);
#194=LINE('',#1102,#133);
#195=LINE('',#1104,#134);
#196=LINE('',#1106,#135);
#197=LINE('',#1107,#136);
#198=LINE('',#1109,#137);
#199=LINE('',#1113,#138);
#200=LINE('',#1114,#139);
#201=LINE('',#1131,#140);
#202=LINE('',#1136,#141);
#203=LINE('',#1140,#142);
#204=LINE('',#1142,#143);
#205=LINE('',#1146,#144);
#206=LINE('',#1148,#145);
#207=LINE('',#1152,#146);
#208=LINE('',#1154,#147);
#209=LINE('',#1158,#148);
#210=LINE('',#1160,#149);
#211=LINE('',#1162,#150);
#212=LINE('',#1179,#151);
#213=LINE('',#1182,#152);
#214=LINE('',#1184,#153);
#215=LINE('',#1186,#154);
#216=LINE('',#1188,#155);
#217=LINE('',#1190,#156);
#218=LINE('',#1192,#157);
#219=LINE('',#1195,#158);
#220=LINE('',#1196,#159);
#221=LINE('',#1198,#160);
#222=LINE('',#1200,#161);
#223=LINE('',#1202,#162);
#224=LINE('',#1204,#163);
#225=LINE('',#1206,#164);
#226=PLANE('',#789);
#227=PLANE('',#794);
#228=PLANE('',#798);
#229=PLANE('',#801);
#230=PLANE('',#802);
#231=PLANE('',#803);
#232=PLANE('',#804);
#233=PLANE('',#805);
#234=PLANE('',#806);
#235=PLANE('',#807);
#236=PLANE('',#808);
#237=PLANE('',#809);
#238=PLANE('',#810);
#239=PLANE('',#811);
#240=PLANE('',#812);
#241=PLANE('',#813);
#242=PLANE('',#831);
#243=PLANE('',#832);
#244=PLANE('',#843);
#245=PLANE('',#844);
#246=PLANE('',#845);
#247=PLANE('',#846);
#248=PLANE('',#847);
#249=PLANE('',#848);
#250=PLANE('',#849);
#251=PLANE('',#850);
#252=VERTEX_POINT('',#1018);
#253=VERTEX_POINT('',#1020);
#254=VERTEX_POINT('',#1023);
#255=VERTEX_POINT('',#1026);
#256=VERTEX_POINT('',#1028);
#257=VERTEX_POINT('',#1032);
#258=VERTEX_POINT('',#1034);
#259=VERTEX_POINT('',#1038);
#260=VERTEX_POINT('',#1041);
#261=VERTEX_POINT('',#1042);
#262=VERTEX_POINT('',#1044);
#263=VERTEX_POINT('',#1046);
#264=VERTEX_POINT('',#1050);
#265=VERTEX_POINT('',#1052);
#266=VERTEX_POINT('',#1056);
#267=VERTEX_POINT('',#1058);
#268=VERTEX_POINT('',#1066);
#269=VERTEX_POINT('',#1067);
#270=VERTEX_POINT('',#1069);
#271=VERTEX_POINT('',#1071);
#272=VERTEX_POINT('',#1075);
#273=VERTEX_POINT('',#1077);
#274=VERTEX_POINT('',#1081);
#275=VERTEX_POINT('',#1083);
#276=VERTEX_POINT('',#1089);
#277=VERTEX_POINT('',#1090);
#278=VERTEX_POINT('',#1092);
#279=VERTEX_POINT('',#1094);
#280=VERTEX_POINT('',#1098);
#281=VERTEX_POINT('',#1099);
#282=VERTEX_POINT('',#1101);
#283=VERTEX_POINT('',#1103);
#284=VERTEX_POINT('',#1110);
#285=VERTEX_POINT('',#1112);
#286=VERTEX_POINT('',#1115);
#287=VERTEX_POINT('',#1117);
#288=VERTEX_POINT('',#1119);
#289=VERTEX_POINT('',#1121);
#290=VERTEX_POINT('',#1123);
#291=VERTEX_POINT('',#1125);
#292=VERTEX_POINT('',#1127);
#293=VERTEX_POINT('',#1128);
#294=VERTEX_POINT('',#1130);
#295=VERTEX_POINT('',#1132);
#296=VERTEX_POINT('',#1134);
#297=VERTEX_POINT('',#1137);
#298=VERTEX_POINT('',#1139);
#299=VERTEX_POINT('',#1143);
#300=VERTEX_POINT('',#1145);
#301=VERTEX_POINT('',#1149);
#302=VERTEX_POINT('',#1151);
#303=VERTEX_POINT('',#1155);
#304=VERTEX_POINT('',#1157);
#305=VERTEX_POINT('',#1165);
#306=VERTEX_POINT('',#1168);
#307=VERTEX_POINT('',#1171);
#308=VERTEX_POINT('',#1174);
#309=VERTEX_POINT('',#1177);
#310=VERTEX_POINT('',#1180);
#311=VERTEX_POINT('',#1181);
#312=VERTEX_POINT('',#1183);
#313=VERTEX_POINT('',#1185);
#314=VERTEX_POINT('',#1193);
#315=VERTEX_POINT('',#1194);
#316=VERTEX_POINT('',#1199);
#317=VERTEX_POINT('',#1203);
#318=CIRCLE('',#787,3.25);
#319=CIRCLE('',#788,3.25);
#320=CIRCLE('',#790,2.);
#321=CIRCLE('',#792,5.);
#322=CIRCLE('',#793,5.);
#323=CIRCLE('',#796,16.);
#324=CIRCLE('',#797,16.);
#325=CIRCLE('',#800,2.);
#326=CIRCLE('',#814,2.);
#327=CIRCLE('',#815,2.);
#328=CIRCLE('',#816,1.425);
#329=CIRCLE('',#817,1.425);
#330=CIRCLE('',#818,1.425);
#331=CIRCLE('',#819,1.425);
#332=CIRCLE('',#820,1.425);
#333=CIRCLE('',#821,2.);
#334=CIRCLE('',#822,2.);
#335=CIRCLE('',#824,2.);
#336=CIRCLE('',#826,2.);
#337=CIRCLE('',#828,2.);
#338=CIRCLE('',#830,2.);
#339=CIRCLE('',#834,1.425);
#340=CIRCLE('',#836,1.425);
#341=CIRCLE('',#838,1.425);
#342=CIRCLE('',#840,1.425);
#343=CIRCLE('',#842,1.425);
#344=EDGE_CURVE('',#252,#252,#318,.T.);
#345=EDGE_CURVE('',#253,#253,#319,.T.);
#346=EDGE_CURVE('',#254,#254,#320,.T.);
#347=EDGE_CURVE('',#255,#255,#321,.T.);
#348=EDGE_CURVE('',#256,#256,#322,.T.);
#349=EDGE_CURVE('',#257,#257,#323,.T.);
#350=EDGE_CURVE('',#258,#258,#324,.T.);
#351=EDGE_CURVE('',#259,#259,#325,.T.);
#352=EDGE_CURVE('',#260,#261,#165,.T.);
#353=EDGE_CURVE('',#262,#260,#166,.T.);
#354=EDGE_CURVE('',#263,#262,#167,.T.);
#355=EDGE_CURVE('',#263,#261,#168,.T.);
#356=EDGE_CURVE('',#261,#264,#169,.T.);
#357=EDGE_CURVE('',#265,#263,#170,.T.);
#358=EDGE_CURVE('',#265,#264,#171,.T.);
#359=EDGE_CURVE('',#264,#266,#172,.T.);
#360=EDGE_CURVE('',#267,#265,#173,.T.);
#361=EDGE_CURVE('',#267,#266,#174,.T.);
#362=EDGE_CURVE('',#266,#260,#175,.T.);
#363=EDGE_CURVE('',#262,#267,#176,.T.);
#364=EDGE_CURVE('',#268,#269,#177,.T.);
#365=EDGE_CURVE('',#270,#268,#178,.T.);
#366=EDGE_CURVE('',#271,#270,#179,.T.);
#367=EDGE_CURVE('',#271,#269,#180,.T.);
#368=EDGE_CURVE('',#269,#272,#181,.T.);
#369=EDGE_CURVE('',#273,#271,#182,.T.);
#370=EDGE_CURVE('',#273,#272,#183,.T.);
#371=EDGE_CURVE('',#272,#274,#184,.T.);
#372=EDGE_CURVE('',#275,#273,#185,.T.);
#373=EDGE_CURVE('',#275,#274,#186,.T.);
#374=EDGE_CURVE('',#274,#268,#187,.T.);
#375=EDGE_CURVE('',#276,#277,#188,.T.);
#376=EDGE_CURVE('',#278,#276,#189,.T.);
#377=EDGE_CURVE('',#279,#278,#190,.T.);
#378=EDGE_CURVE('',#279,#277,#191,.T.);
#379=EDGE_CURVE('',#280,#281,#192,.T.);
#380=EDGE_CURVE('',#282,#280,#193,.T.);
#381=EDGE_CURVE('',#283,#282,#194,.T.);
#382=EDGE_CURVE('',#283,#281,#195,.T.);
#383=EDGE_CURVE('',#281,#276,#196,.T.);
#384=EDGE_CURVE('',#277,#280,#197,.T.);
#385=EDGE_CURVE('',#270,#284,#198,.T.);
#386=EDGE_CURVE('',#284,#285,#326,.T.);
#387=EDGE_CURVE('',#285,#283,#199,.T.);
#388=EDGE_CURVE('',#282,#286,#200,.T.);
#389=EDGE_CURVE('',#286,#287,#327,.T.);
#390=EDGE_CURVE('',#287,#275,#198,.T.);
#391=EDGE_CURVE('',#288,#288,#328,.T.);
#392=EDGE_CURVE('',#289,#289,#329,.T.);
#393=EDGE_CURVE('',#290,#290,#330,.T.);
#394=EDGE_CURVE('',#291,#291,#331,.T.);
#395=EDGE_CURVE('',#292,#292,#332,.T.);
#396=EDGE_CURVE('',#278,#293,#199,.T.);
#397=EDGE_CURVE('',#293,#294,#333,.T.);
#398=EDGE_CURVE('',#294,#295,#201,.T.);
#399=EDGE_CURVE('',#295,#296,#334,.T.);
#400=EDGE_CURVE('',#296,#279,#200,.T.);
#401=EDGE_CURVE('',#286,#297,#202,.T.);
#402=EDGE_CURVE('',#297,#298,#335,.T.);
#403=EDGE_CURVE('',#298,#287,#203,.T.);
#404=EDGE_CURVE('',#284,#299,#204,.T.);
#405=EDGE_CURVE('',#299,#300,#336,.T.);
#406=EDGE_CURVE('',#300,#285,#205,.T.);
#407=EDGE_CURVE('',#295,#301,#206,.T.);
#408=EDGE_CURVE('',#301,#302,#337,.T.);
#409=EDGE_CURVE('',#302,#296,#207,.T.);
#410=EDGE_CURVE('',#293,#303,#208,.T.);
#411=EDGE_CURVE('',#303,#304,#338,.T.);
#412=EDGE_CURVE('',#304,#294,#209,.T.);
#413=EDGE_CURVE('',#297,#302,#210,.T.);
#414=EDGE_CURVE('',#301,#304,#211,.T.);
#415=EDGE_CURVE('',#305,#305,#339,.T.);
#416=EDGE_CURVE('',#306,#306,#340,.T.);
#417=EDGE_CURVE('',#307,#307,#341,.T.);
#418=EDGE_CURVE('',#308,#308,#342,.T.);
#419=EDGE_CURVE('',#309,#309,#343,.T.);
#420=EDGE_CURVE('',#310,#311,#212,.T.);
#421=EDGE_CURVE('',#312,#310,#213,.T.);
#422=EDGE_CURVE('',#313,#312,#214,.T.);
#423=EDGE_CURVE('',#311,#313,#215,.T.);
#424=EDGE_CURVE('',#303,#300,#216,.T.);
#425=EDGE_CURVE('',#299,#298,#217,.T.);
#426=EDGE_CURVE('',#314,#315,#218,.T.);
#427=EDGE_CURVE('',#312,#315,#219,.T.);
#428=EDGE_CURVE('',#310,#314,#220,.T.);
#429=EDGE_CURVE('',#315,#316,#221,.T.);
#430=EDGE_CURVE('',#313,#316,#222,.T.);
#431=EDGE_CURVE('',#316,#317,#223,.T.);
#432=EDGE_CURVE('',#311,#317,#224,.T.);
#433=EDGE_CURVE('',#317,#314,#225,.T.);
#434=ORIENTED_EDGE('',*,*,#344,.T.);
#435=ORIENTED_EDGE('',*,*,#345,.F.);
#436=ORIENTED_EDGE('',*,*,#346,.F.);
#437=ORIENTED_EDGE('',*,*,#344,.F.);
#438=ORIENTED_EDGE('',*,*,#347,.T.);
#439=ORIENTED_EDGE('',*,*,#348,.F.);
#440=ORIENTED_EDGE('',*,*,#345,.T.);
#441=ORIENTED_EDGE('',*,*,#347,.F.);
#442=ORIENTED_EDGE('',*,*,#349,.F.);
#443=ORIENTED_EDGE('',*,*,#350,.F.);
#444=ORIENTED_EDGE('',*,*,#348,.T.);
#445=ORIENTED_EDGE('',*,*,#349,.T.);
#446=ORIENTED_EDGE('',*,*,#346,.T.);
#447=ORIENTED_EDGE('',*,*,#351,.F.);
#448=ORIENTED_EDGE('',*,*,#352,.F.);
#449=ORIENTED_EDGE('',*,*,#353,.F.);
#450=ORIENTED_EDGE('',*,*,#354,.F.);
#451=ORIENTED_EDGE('',*,*,#355,.T.);
#452=ORIENTED_EDGE('',*,*,#356,.F.);
#453=ORIENTED_EDGE('',*,*,#355,.F.);
#454=ORIENTED_EDGE('',*,*,#357,.F.);
#455=ORIENTED_EDGE('',*,*,#358,.T.);
#456=ORIENTED_EDGE('',*,*,#359,.F.);
#457=ORIENTED_EDGE('',*,*,#358,.F.);
#458=ORIENTED_EDGE('',*,*,#360,.F.);
#459=ORIENTED_EDGE('',*,*,#361,.T.);
#460=ORIENTED_EDGE('',*,*,#362,.F.);
#461=ORIENTED_EDGE('',*,*,#361,.F.);
#462=ORIENTED_EDGE('',*,*,#363,.F.);
#463=ORIENTED_EDGE('',*,*,#353,.T.);
#464=ORIENTED_EDGE('',*,*,#352,.T.);
#465=ORIENTED_EDGE('',*,*,#356,.T.);
#466=ORIENTED_EDGE('',*,*,#359,.T.);
#467=ORIENTED_EDGE('',*,*,#362,.T.);
#468=ORIENTED_EDGE('',*,*,#364,.F.);
#469=ORIENTED_EDGE('',*,*,#365,.F.);
#470=ORIENTED_EDGE('',*,*,#366,.F.);
#471=ORIENTED_EDGE('',*,*,#367,.T.);
#472=ORIENTED_EDGE('',*,*,#368,.F.);
#473=ORIENTED_EDGE('',*,*,#367,.F.);
#474=ORIENTED_EDGE('',*,*,#369,.F.);
#475=ORIENTED_EDGE('',*,*,#370,.T.);
#476=ORIENTED_EDGE('',*,*,#371,.F.);
#477=ORIENTED_EDGE('',*,*,#370,.F.);
#478=ORIENTED_EDGE('',*,*,#372,.F.);
#479=ORIENTED_EDGE('',*,*,#373,.T.);
#480=ORIENTED_EDGE('',*,*,#364,.T.);
#481=ORIENTED_EDGE('',*,*,#368,.T.);
#482=ORIENTED_EDGE('',*,*,#371,.T.);
#483=ORIENTED_EDGE('',*,*,#374,.T.);
#484=ORIENTED_EDGE('',*,*,#375,.F.);
#485=ORIENTED_EDGE('',*,*,#376,.F.);
#486=ORIENTED_EDGE('',*,*,#377,.F.);
#487=ORIENTED_EDGE('',*,*,#378,.T.);
#488=ORIENTED_EDGE('',*,*,#379,.F.);
#489=ORIENTED_EDGE('',*,*,#380,.F.);
#490=ORIENTED_EDGE('',*,*,#381,.F.);
#491=ORIENTED_EDGE('',*,*,#382,.T.);
#492=ORIENTED_EDGE('',*,*,#350,.T.);
#493=ORIENTED_EDGE('',*,*,#383,.T.);
#494=ORIENTED_EDGE('',*,*,#375,.T.);
#495=ORIENTED_EDGE('',*,*,#384,.T.);
#496=ORIENTED_EDGE('',*,*,#379,.T.);
#497=ORIENTED_EDGE('',*,*,#372,.T.);
#498=ORIENTED_EDGE('',*,*,#369,.T.);
#499=ORIENTED_EDGE('',*,*,#366,.T.);
#500=ORIENTED_EDGE('',*,*,#385,.T.);
#501=ORIENTED_EDGE('',*,*,#386,.T.);
#502=ORIENTED_EDGE('',*,*,#387,.T.);
#503=ORIENTED_EDGE('',*,*,#381,.T.);
#504=ORIENTED_EDGE('',*,*,#388,.T.);
#505=ORIENTED_EDGE('',*,*,#389,.T.);
#506=ORIENTED_EDGE('',*,*,#390,.T.);
#507=ORIENTED_EDGE('',*,*,#354,.T.);
#508=ORIENTED_EDGE('',*,*,#363,.T.);
#509=ORIENTED_EDGE('',*,*,#360,.T.);
#510=ORIENTED_EDGE('',*,*,#357,.T.);
#511=ORIENTED_EDGE('',*,*,#391,.T.);
#512=ORIENTED_EDGE('',*,*,#392,.T.);
#513=ORIENTED_EDGE('',*,*,#393,.T.);
#514=ORIENTED_EDGE('',*,*,#394,.T.);
#515=ORIENTED_EDGE('',*,*,#395,.T.);
#516=ORIENTED_EDGE('',*,*,#377,.T.);
#517=ORIENTED_EDGE('',*,*,#396,.T.);
#518=ORIENTED_EDGE('',*,*,#397,.T.);
#519=ORIENTED_EDGE('',*,*,#398,.T.);
#520=ORIENTED_EDGE('',*,*,#399,.T.);
#521=ORIENTED_EDGE('',*,*,#400,.T.);
#522=ORIENTED_EDGE('',*,*,#389,.F.);
#523=ORIENTED_EDGE('',*,*,#401,.T.);
#524=ORIENTED_EDGE('',*,*,#402,.T.);
#525=ORIENTED_EDGE('',*,*,#403,.T.);
#526=ORIENTED_EDGE('',*,*,#386,.F.);
#527=ORIENTED_EDGE('',*,*,#404,.T.);
#528=ORIENTED_EDGE('',*,*,#405,.T.);
#529=ORIENTED_EDGE('',*,*,#406,.T.);
#530=ORIENTED_EDGE('',*,*,#399,.F.);
#531=ORIENTED_EDGE('',*,*,#407,.T.);
#532=ORIENTED_EDGE('',*,*,#408,.T.);
#533=ORIENTED_EDGE('',*,*,#409,.T.);
#534=ORIENTED_EDGE('',*,*,#397,.F.);
#535=ORIENTED_EDGE('',*,*,#410,.T.);
#536=ORIENTED_EDGE('',*,*,#411,.T.);
#537=ORIENTED_EDGE('',*,*,#412,.T.);
#538=ORIENTED_EDGE('',*,*,#401,.F.);
#539=ORIENTED_EDGE('',*,*,#388,.F.);
#540=ORIENTED_EDGE('',*,*,#380,.T.);
#541=ORIENTED_EDGE('',*,*,#384,.F.);
#542=ORIENTED_EDGE('',*,*,#378,.F.);
#543=ORIENTED_EDGE('',*,*,#400,.F.);
#544=ORIENTED_EDGE('',*,*,#409,.F.);
#545=ORIENTED_EDGE('',*,*,#413,.F.);
#546=ORIENTED_EDGE('',*,*,#407,.F.);
#547=ORIENTED_EDGE('',*,*,#398,.F.);
#548=ORIENTED_EDGE('',*,*,#412,.F.);
#549=ORIENTED_EDGE('',*,*,#414,.F.);
#550=ORIENTED_EDGE('',*,*,#415,.F.);
#551=ORIENTED_EDGE('',*,*,#395,.F.);
#552=ORIENTED_EDGE('',*,*,#416,.F.);
#553=ORIENTED_EDGE('',*,*,#391,.F.);
#554=ORIENTED_EDGE('',*,*,#417,.F.);
#555=ORIENTED_EDGE('',*,*,#394,.F.);
#556=ORIENTED_EDGE('',*,*,#418,.F.);
#557=ORIENTED_EDGE('',*,*,#392,.F.);
#558=ORIENTED_EDGE('',*,*,#419,.F.);
#559=ORIENTED_EDGE('',*,*,#393,.F.);
#560=ORIENTED_EDGE('',*,*,#351,.T.);
#561=ORIENTED_EDGE('',*,*,#415,.T.);
#562=ORIENTED_EDGE('',*,*,#416,.T.);
#563=ORIENTED_EDGE('',*,*,#417,.T.);
#564=ORIENTED_EDGE('',*,*,#418,.T.);
#565=ORIENTED_EDGE('',*,*,#419,.T.);
#566=ORIENTED_EDGE('',*,*,#420,.F.);
#567=ORIENTED_EDGE('',*,*,#421,.F.);
#568=ORIENTED_EDGE('',*,*,#422,.F.);
#569=ORIENTED_EDGE('',*,*,#423,.F.);
#570=ORIENTED_EDGE('',*,*,#406,.F.);
#571=ORIENTED_EDGE('',*,*,#424,.F.);
#572=ORIENTED_EDGE('',*,*,#410,.F.);
#573=ORIENTED_EDGE('',*,*,#396,.F.);
#574=ORIENTED_EDGE('',*,*,#376,.T.);
#575=ORIENTED_EDGE('',*,*,#383,.F.);
#576=ORIENTED_EDGE('',*,*,#382,.F.);
#577=ORIENTED_EDGE('',*,*,#387,.F.);
#578=ORIENTED_EDGE('',*,*,#403,.F.);
#579=ORIENTED_EDGE('',*,*,#425,.F.);
#580=ORIENTED_EDGE('',*,*,#404,.F.);
#581=ORIENTED_EDGE('',*,*,#385,.F.);
#582=ORIENTED_EDGE('',*,*,#365,.T.);
#583=ORIENTED_EDGE('',*,*,#374,.F.);
#584=ORIENTED_EDGE('',*,*,#373,.F.);
#585=ORIENTED_EDGE('',*,*,#390,.F.);
#586=ORIENTED_EDGE('',*,*,#426,.T.);
#587=ORIENTED_EDGE('',*,*,#427,.F.);
#588=ORIENTED_EDGE('',*,*,#421,.T.);
#589=ORIENTED_EDGE('',*,*,#428,.T.);
#590=ORIENTED_EDGE('',*,*,#429,.T.);
#591=ORIENTED_EDGE('',*,*,#430,.F.);
#592=ORIENTED_EDGE('',*,*,#422,.T.);
#593=ORIENTED_EDGE('',*,*,#427,.T.);
#594=ORIENTED_EDGE('',*,*,#431,.T.);
#595=ORIENTED_EDGE('',*,*,#432,.F.);
#596=ORIENTED_EDGE('',*,*,#423,.T.);
#597=ORIENTED_EDGE('',*,*,#430,.T.);
#598=ORIENTED_EDGE('',*,*,#433,.T.);
#599=ORIENTED_EDGE('',*,*,#428,.F.);
#600=ORIENTED_EDGE('',*,*,#420,.T.);
#601=ORIENTED_EDGE('',*,*,#432,.T.);
#602=ORIENTED_EDGE('',*,*,#414,.T.);
#603=ORIENTED_EDGE('',*,*,#411,.F.);
#604=ORIENTED_EDGE('',*,*,#424,.T.);
#605=ORIENTED_EDGE('',*,*,#405,.F.);
#606=ORIENTED_EDGE('',*,*,#425,.T.);
#607=ORIENTED_EDGE('',*,*,#402,.F.);
#608=ORIENTED_EDGE('',*,*,#413,.T.);
#609=ORIENTED_EDGE('',*,*,#408,.F.);
#610=ORIENTED_EDGE('',*,*,#426,.F.);
#611=ORIENTED_EDGE('',*,*,#433,.F.);
#612=ORIENTED_EDGE('',*,*,#431,.F.);
#613=ORIENTED_EDGE('',*,*,#429,.F.);
#614=EDGE_LOOP('',(#434));
#615=EDGE_LOOP('',(#435));
#616=EDGE_LOOP('',(#436));
#617=EDGE_LOOP('',(#437));
#618=EDGE_LOOP('',(#438));
#619=EDGE_LOOP('',(#439));
#620=EDGE_LOOP('',(#440));
#621=EDGE_LOOP('',(#441));
#622=EDGE_LOOP('',(#442));
#623=EDGE_LOOP('',(#443));
#624=EDGE_LOOP('',(#444));
#625=EDGE_LOOP('',(#445));
#626=EDGE_LOOP('',(#446));
#627=EDGE_LOOP('',(#447));
#628=EDGE_LOOP('',(#448,#449,#450,#451));
#629=EDGE_LOOP('',(#452,#453,#454,#455));
#630=EDGE_LOOP('',(#456,#457,#458,#459));
#631=EDGE_LOOP('',(#460,#461,#462,#463));
#632=EDGE_LOOP('',(#464,#465,#466,#467));
#633=EDGE_LOOP('',(#468,#469,#470,#471));
#634=EDGE_LOOP('',(#472,#473,#474,#475));
#635=EDGE_LOOP('',(#476,#477,#478,#479));
#636=EDGE_LOOP('',(#480,#481,#482,#483));
#637=EDGE_LOOP('',(#484,#485,#486,#487));
#638=EDGE_LOOP('',(#488,#489,#490,#491));
#639=EDGE_LOOP('',(#492));
#640=EDGE_LOOP('',(#493,#494,#495,#496));
#641=EDGE_LOOP('',(#497,#498,#499,#500,#501,#502,#503,#504,#505,#506));
#642=EDGE_LOOP('',(#507,#508,#509,#510));
#643=EDGE_LOOP('',(#511));
#644=EDGE_LOOP('',(#512));
#645=EDGE_LOOP('',(#513));
#646=EDGE_LOOP('',(#514));
#647=EDGE_LOOP('',(#515));
#648=EDGE_LOOP('',(#516,#517,#518,#519,#520,#521));
#649=EDGE_LOOP('',(#522,#523,#524,#525));
#650=EDGE_LOOP('',(#526,#527,#528,#529));
#651=EDGE_LOOP('',(#530,#531,#532,#533));
#652=EDGE_LOOP('',(#534,#535,#536,#537));
#653=EDGE_LOOP('',(#538,#539,#540,#541,#542,#543,#544,#545));
#654=EDGE_LOOP('',(#546,#547,#548,#549));
#655=EDGE_LOOP('',(#550));
#656=EDGE_LOOP('',(#551));
#657=EDGE_LOOP('',(#552));
#658=EDGE_LOOP('',(#553));
#659=EDGE_LOOP('',(#554));
#660=EDGE_LOOP('',(#555));
#661=EDGE_LOOP('',(#556));
#662=EDGE_LOOP('',(#557));
#663=EDGE_LOOP('',(#558));
#664=EDGE_LOOP('',(#559));
#665=EDGE_LOOP('',(#560));
#666=EDGE_LOOP('',(#561));
#667=EDGE_LOOP('',(#562));
#668=EDGE_LOOP('',(#563));
#669=EDGE_LOOP('',(#564));
#670=EDGE_LOOP('',(#565));
#671=EDGE_LOOP('',(#566,#567,#568,#569));
#672=EDGE_LOOP('',(#570,#571,#572,#573,#574,#575,#576,#577));
#673=EDGE_LOOP('',(#578,#579,#580,#581,#582,#583,#584,#585));
#674=EDGE_LOOP('',(#586,#587,#588,#589));
#675=EDGE_LOOP('',(#590,#591,#592,#593));
#676=EDGE_LOOP('',(#594,#595,#596,#597));
#677=EDGE_LOOP('',(#598,#599,#600,#601));
#678=EDGE_LOOP('',(#602,#603,#604,#605,#606,#607,#608,#609));
#679=EDGE_LOOP('',(#610,#611,#612,#613));
#680=FACE_BOUND('',#614,.T.);
#681=FACE_BOUND('',#615,.T.);
#682=FACE_BOUND('',#616,.T.);
#683=FACE_BOUND('',#617,.T.);
#684=FACE_BOUND('',#618,.T.);
#685=FACE_BOUND('',#619,.T.);
#686=FACE_BOUND('',#620,.T.);
#687=FACE_BOUND('',#621,.T.);
#688=FACE_BOUND('',#622,.T.);
#689=FACE_BOUND('',#623,.T.);
#690=FACE_BOUND('',#624,.T.);
#691=FACE_BOUND('',#625,.T.);
#692=FACE_BOUND('',#626,.T.);
#693=FACE_BOUND('',#627,.T.);
#694=FACE_BOUND('',#628,.T.);
#695=FACE_BOUND('',#629,.T.);
#696=FACE_BOUND('',#630,.T.);
#697=FACE_BOUND('',#631,.T.);
#698=FACE_BOUND('',#632,.T.);
#699=FACE_BOUND('',#633,.T.);
#700=FACE_BOUND('',#634,.T.);
#701=FACE_BOUND('',#635,.T.);
#702=FACE_BOUND('',#636,.T.);
#703=FACE_BOUND('',#637,.T.);
#704=FACE_BOUND('',#638,.T.);
#705=FACE_BOUND('',#639,.T.);
#706=FACE_BOUND('',#640,.T.);
#707=FACE_BOUND('',#641,.T.);
#708=FACE_BOUND('',#642,.T.);
#709=FACE_BOUND('',#643,.T.);
#710=FACE_BOUND('',#644,.T.);
#711=FACE_BOUND('',#645,.T.);
#712=FACE_BOUND('',#646,.T.);
#713=FACE_BOUND('',#647,.T.);
#714=FACE_BOUND('',#648,.T.);
#715=FACE_BOUND('',#649,.T.);
#716=FACE_BOUND('',#650,.T.);
#717=FACE_BOUND('',#651,.T.);
#718=FACE_BOUND('',#652,.T.);
#719=FACE_BOUND('',#653,.T.);
#720=FACE_BOUND('',#654,.T.);
#721=FACE_BOUND('',#655,.T.);
#722=FACE_BOUND('',#656,.T.);
#723=FACE_BOUND('',#657,.T.);
#724=FACE_BOUND('',#658,.T.);
#725=FACE_BOUND('',#659,.T.);
#726=FACE_BOUND('',#660,.T.);
#727=FACE_BOUND('',#661,.T.);
#728=FACE_BOUND('',#662,.T.);
#729=FACE_BOUND('',#663,.T.);
#730=FACE_BOUND('',#664,.T.);
#731=FACE_BOUND('',#665,.T.);
#732=FACE_BOUND('',#666,.T.);
#733=FACE_BOUND('',#667,.T.);
#734=FACE_BOUND('',#668,.T.);
#735=FACE_BOUND('',#669,.T.);
#736=FACE_BOUND('',#670,.T.);
#737=FACE_BOUND('',#671,.T.);
#738=FACE_BOUND('',#672,.T.);
#739=FACE_BOUND('',#673,.T.);
#740=FACE_BOUND('',#674,.T.);
#741=FACE_BOUND('',#675,.T.);
#742=FACE_BOUND('',#676,.T.);
#743=FACE_BOUND('',#677,.T.);
#744=FACE_BOUND('',#678,.T.);
#745=FACE_BOUND('',#679,.T.);
#746=ADVANCED_FACE('',(#680,#681),#1208,.T.);
#747=ADVANCED_FACE('',(#682,#683),#226,.T.);
#748=ADVANCED_FACE('',(#684,#685),#1209,.T.);
#749=ADVANCED_FACE('',(#686,#687),#227,.T.);
#750=ADVANCED_FACE('',(#688,#689),#1210,.F.);
#751=ADVANCED_FACE('',(#690,#691),#228,.T.);
#752=ADVANCED_FACE('',(#692,#693),#1211,.F.);
#753=ADVANCED_FACE('',(#694),#229,.F.);
#754=ADVANCED_FACE('',(#695),#230,.F.);
#755=ADVANCED_FACE('',(#696),#231,.F.);
#756=ADVANCED_FACE('',(#697),#232,.F.);
#757=ADVANCED_FACE('',(#698),#233,.T.);
#758=ADVANCED_FACE('',(#699),#234,.F.);
#759=ADVANCED_FACE('',(#700),#235,.F.);
#760=ADVANCED_FACE('',(#701),#236,.F.);
#761=ADVANCED_FACE('',(#702),#237,.T.);
#762=ADVANCED_FACE('',(#703),#238,.F.);
#763=ADVANCED_FACE('',(#704),#239,.F.);
#764=ADVANCED_FACE('',(#705,#706),#240,.T.);
#765=ADVANCED_FACE('',(#707,#708,#709,#710),#241,.T.);
#766=ADVANCED_FACE('',(#711,#712,#713,#714),#241,.T.);
#767=ADVANCED_FACE('',(#715),#1212,.F.);
#768=ADVANCED_FACE('',(#716),#1213,.F.);
#769=ADVANCED_FACE('',(#717),#1214,.F.);
#770=ADVANCED_FACE('',(#718),#1215,.F.);
#771=ADVANCED_FACE('',(#719),#242,.F.);
#772=ADVANCED_FACE('',(#720),#243,.F.);
#773=ADVANCED_FACE('',(#721,#722),#1216,.F.);
#774=ADVANCED_FACE('',(#723,#724),#1217,.F.);
#775=ADVANCED_FACE('',(#725,#726),#1218,.F.);
#776=ADVANCED_FACE('',(#727,#728),#1219,.F.);
#777=ADVANCED_FACE('',(#729,#730),#1220,.F.);
#778=ADVANCED_FACE('',(#731,#732,#733,#734,#735,#736,#737),#244,.F.);
#779=ADVANCED_FACE('',(#738),#245,.F.);
#780=ADVANCED_FACE('',(#739),#246,.F.);
#781=ADVANCED_FACE('',(#740),#247,.T.);
#782=ADVANCED_FACE('',(#741),#248,.T.);
#783=ADVANCED_FACE('',(#742),#249,.T.);
#784=ADVANCED_FACE('',(#743),#250,.T.);
#785=ADVANCED_FACE('',(#744,#745),#251,.T.);
#786=AXIS2_PLACEMENT_3D('',#1016,#851,#852);
#787=AXIS2_PLACEMENT_3D('',#1017,#853,#854);
#788=AXIS2_PLACEMENT_3D('',#1019,#855,#856);
#789=AXIS2_PLACEMENT_3D('',#1021,#857,$);
#790=AXIS2_PLACEMENT_3D('',#1022,#858,#859);
#791=AXIS2_PLACEMENT_3D('',#1024,#860,#861);
#792=AXIS2_PLACEMENT_3D('',#1025,#862,#863);
#793=AXIS2_PLACEMENT_3D('',#1027,#864,#865);
#794=AXIS2_PLACEMENT_3D('',#1029,#866,$);
#795=AXIS2_PLACEMENT_3D('',#1030,#867,#868);
#796=AXIS2_PLACEMENT_3D('',#1031,#869,#870);
#797=AXIS2_PLACEMENT_3D('',#1033,#871,#872);
#798=AXIS2_PLACEMENT_3D('',#1035,#873,$);
#799=AXIS2_PLACEMENT_3D('',#1036,#874,#875);
#800=AXIS2_PLACEMENT_3D('',#1037,#876,#877);
#801=AXIS2_PLACEMENT_3D('',#1039,#878,$);
#802=AXIS2_PLACEMENT_3D('',#1048,#883,$);
#803=AXIS2_PLACEMENT_3D('',#1054,#887,$);
#804=AXIS2_PLACEMENT_3D('',#1060,#891,$);
#805=AXIS2_PLACEMENT_3D('',#1063,#894,$);
#806=AXIS2_PLACEMENT_3D('',#1064,#895,$);
#807=AXIS2_PLACEMENT_3D('',#1073,#900,$);
#808=AXIS2_PLACEMENT_3D('',#1079,#904,$);
#809=AXIS2_PLACEMENT_3D('',#1085,#908,$);
#810=AXIS2_PLACEMENT_3D('',#1087,#910,$);
#811=AXIS2_PLACEMENT_3D('',#1096,#915,$);
#812=AXIS2_PLACEMENT_3D('',#1105,#920,$);
#813=AXIS2_PLACEMENT_3D('',#1108,#923,$);
#814=AXIS2_PLACEMENT_3D('',#1111,#925,#926);
#815=AXIS2_PLACEMENT_3D('',#1116,#929,#930);
#816=AXIS2_PLACEMENT_3D('',#1118,#931,#932);
#817=AXIS2_PLACEMENT_3D('',#1120,#933,#934);
#818=AXIS2_PLACEMENT_3D('',#1122,#935,#936);
#819=AXIS2_PLACEMENT_3D('',#1124,#937,#938);
#820=AXIS2_PLACEMENT_3D('',#1126,#939,#940);
#821=AXIS2_PLACEMENT_3D('',#1129,#941,#942);
#822=AXIS2_PLACEMENT_3D('',#1133,#944,#945);
#823=AXIS2_PLACEMENT_3D('',#1135,#946,#947);
#824=AXIS2_PLACEMENT_3D('',#1138,#949,#950);
#825=AXIS2_PLACEMENT_3D('',#1141,#952,#953);
#826=AXIS2_PLACEMENT_3D('',#1144,#955,#956);
#827=AXIS2_PLACEMENT_3D('',#1147,#958,#959);
#828=AXIS2_PLACEMENT_3D('',#1150,#961,#962);
#829=AXIS2_PLACEMENT_3D('',#1153,#964,#965);
#830=AXIS2_PLACEMENT_3D('',#1156,#967,#968);
#831=AXIS2_PLACEMENT_3D('',#1159,#970,$);
#832=AXIS2_PLACEMENT_3D('',#1161,#972,$);
#833=AXIS2_PLACEMENT_3D('',#1163,#974,#975);
#834=AXIS2_PLACEMENT_3D('',#1164,#976,#977);
#835=AXIS2_PLACEMENT_3D('',#1166,#978,#979);
#836=AXIS2_PLACEMENT_3D('',#1167,#980,#981);
#837=AXIS2_PLACEMENT_3D('',#1169,#982,#983);
#838=AXIS2_PLACEMENT_3D('',#1170,#984,#985);
#839=AXIS2_PLACEMENT_3D('',#1172,#986,#987);
#840=AXIS2_PLACEMENT_3D('',#1173,#988,#989);
#841=AXIS2_PLACEMENT_3D('',#1175,#990,#991);
#842=AXIS2_PLACEMENT_3D('',#1176,#992,#993);
#843=AXIS2_PLACEMENT_3D('',#1178,#994,$);
#844=AXIS2_PLACEMENT_3D('',#1187,#999,$);
#845=AXIS2_PLACEMENT_3D('',#1189,#1001,$);
#846=AXIS2_PLACEMENT_3D('',#1191,#1003,$);
#847=AXIS2_PLACEMENT_3D('',#1197,#1007,$);
#848=AXIS2_PLACEMENT_3D('',#1201,#1010,$);
#849=AXIS2_PLACEMENT_3D('',#1205,#1013,$);
#850=AXIS2_PLACEMENT_3D('',#1207,#1015,$);
#851=DIRECTION('',(0.,0.,1.));
#852=DIRECTION('',(3.25,0.,0.));
#853=DIRECTION('',(4.07688482046663E-32,-1.25620644405581E-48,-1.));
#854=DIRECTION('',(3.25,0.,0.));
#855=DIRECTION('',(4.07688482046663E-32,-1.25620644405581E-48,-1.));
#856=DIRECTION('',(3.25,0.,0.));
#857=DIRECTION('',(-4.07688482046663E-32,1.25620644405581E-48,1.));
#858=DIRECTION('',(-4.07688482046663E-32,1.25620644405581E-48,1.));
#859=DIRECTION('',(2.,0.,0.));
#860=DIRECTION('',(0.,0.,1.));
#861=DIRECTION('',(5.,0.,0.));
#862=DIRECTION('',(4.07688482046663E-32,-1.25620644405581E-48,-1.));
#863=DIRECTION('',(5.,0.,0.));
#864=DIRECTION('',(4.07688482046663E-32,-1.25620644405581E-48,-1.));
#865=DIRECTION('',(5.,0.,0.));
#866=DIRECTION('',(-4.07688482046663E-32,1.25620644405581E-48,1.));
#867=DIRECTION('',(0.,0.,-1.));
#868=DIRECTION('',(16.,0.,0.));
#869=DIRECTION('',(-4.07688482046663E-32,1.25620644405581E-48,1.));
#870=DIRECTION('',(16.,0.,0.));
#871=DIRECTION('',(4.07688482046663E-32,-1.25620644405581E-48,-1.));
#872=DIRECTION('',(16.,0.,0.));
#873=DIRECTION('',(-4.07688482046663E-32,1.25620644405581E-48,1.));
#874=DIRECTION('',(0.,0.,1.));
#875=DIRECTION('',(2.,0.,0.));
#876=DIRECTION('',(0.,0.,1.));
#877=DIRECTION('',(2.,0.,0.));
#878=DIRECTION('',(0.,-1.,0.));
#879=DIRECTION('',(1.,0.,0.));
#880=DIRECTION('',(0.,0.,-1.));
#881=DIRECTION('',(-1.,0.,-2.78675582520891E-33));
#882=DIRECTION('',(0.,0.,-1.));
#883=DIRECTION('',(1.,0.,0.));
#884=DIRECTION('',(0.,1.,0.));
#885=DIRECTION('',(0.,-1.,1.90817841442902E-50));
#886=DIRECTION('',(0.,0.,-1.));
#887=DIRECTION('',(0.,1.,0.));
#888=DIRECTION('',(-1.,0.,0.));
#889=DIRECTION('',(1.,0.,2.78675582520891E-33));
#890=DIRECTION('',(0.,0.,-1.));
#891=DIRECTION('',(-1.,0.,0.));
#892=DIRECTION('',(0.,-1.,0.));
#893=DIRECTION('',(0.,1.,-1.90817841442902E-50));
#894=DIRECTION('',(4.94509821183321E-30,-3.89224573934137E-31,1.));
#895=DIRECTION('',(0.,-1.,0.));
#896=DIRECTION('',(1.,0.,0.));
#897=DIRECTION('',(0.,0.,-1.));
#898=DIRECTION('',(-1.,0.,-2.78675582520891E-33));
#899=DIRECTION('',(0.,0.,-1.));
#900=DIRECTION('',(1.,0.,0.));
#901=DIRECTION('',(0.,1.,0.));
#902=DIRECTION('',(0.,-1.,1.90817841442902E-50));
#903=DIRECTION('',(0.,0.,-1.));
#904=DIRECTION('',(0.,1.,0.));
#905=DIRECTION('',(-1.,0.,0.));
#906=DIRECTION('',(1.,0.,2.78675582520891E-33));
#907=DIRECTION('',(0.,0.,-1.));
#908=DIRECTION('',(-7.45076181470406E-30,-3.11379659147308E-32,1.));
#909=DIRECTION('',(0.,-1.,0.));
#910=DIRECTION('',(1.,0.,0.));
#911=DIRECTION('',(0.,1.,0.));
#912=DIRECTION('',(0.,0.,-1.));
#913=DIRECTION('',(0.,-1.,1.90817841442902E-50));
#914=DIRECTION('',(0.,0.,-1.));
#915=DIRECTION('',(-1.,0.,0.));
#916=DIRECTION('',(0.,-1.,0.));
#917=DIRECTION('',(0.,0.,-1.));
#918=DIRECTION('',(0.,1.,-1.90817841442902E-50));
#919=DIRECTION('',(0.,0.,-1.));
#920=DIRECTION('',(-4.07688482046663E-32,1.25620644405581E-48,1.));
#921=DIRECTION('',(1.,0.,0.));
#922=DIRECTION('',(-1.,0.,0.));
#923=DIRECTION('',(-2.78675582520891E-33,1.90817841442902E-50,1.));
#924=DIRECTION('',(0.,-1.,0.));
#925=DIRECTION('',(-2.78675582520891E-33,1.90817841442902E-50,1.));
#926=DIRECTION('',(-1.41421356237309,-1.41421356237309,0.));
#927=DIRECTION('',(1.,0.,0.));
#928=DIRECTION('',(-1.,0.,0.));
#929=DIRECTION('',(-2.78675582520891E-33,1.90817841442902E-50,1.));
#930=DIRECTION('',(-1.41421356237309,1.41421356237309,0.));
#931=DIRECTION('',(2.78675582520891E-33,-1.90817841442902E-50,-1.));
#932=DIRECTION('',(1.425,0.,0.));
#933=DIRECTION('',(2.78675582520891E-33,-1.90817841442902E-50,-1.));
#934=DIRECTION('',(1.425,0.,0.));
#935=DIRECTION('',(2.78675582520891E-33,-1.90817841442902E-50,-1.));
#936=DIRECTION('',(1.425,0.,0.));
#937=DIRECTION('',(2.78675582520891E-33,-1.90817841442902E-50,-1.));
#938=DIRECTION('',(1.425,0.,0.));
#939=DIRECTION('',(2.78675582520891E-33,-1.90817841442902E-50,-1.));
#940=DIRECTION('',(1.425,0.,0.));
#941=DIRECTION('',(-2.78675582520891E-33,1.90817841442902E-50,1.));
#942=DIRECTION('',(1.41421356237309,-1.41421356237309,0.));
#943=DIRECTION('',(0.,1.,0.));
#944=DIRECTION('',(-2.78675582520891E-33,1.90817841442902E-50,1.));
#945=DIRECTION('',(1.41421356237309,1.41421356237309,0.));
#946=DIRECTION('',(0.,0.,-1.));
#947=DIRECTION('',(-1.41421356237309,1.41421356237309,0.));
#948=DIRECTION('',(0.,0.,1.));
#949=DIRECTION('',(0.,0.,1.));
#950=DIRECTION('',(-1.41421356237309,1.41421356237309,0.));
#951=DIRECTION('',(0.,0.,-1.));
#952=DIRECTION('',(0.,0.,-1.));
#953=DIRECTION('',(-1.41421356237309,-1.41421356237309,0.));
#954=DIRECTION('',(0.,0.,1.));
#955=DIRECTION('',(0.,0.,1.));
#956=DIRECTION('',(-1.41421356237309,-1.41421356237309,0.));
#957=DIRECTION('',(0.,0.,-1.));
#958=DIRECTION('',(0.,0.,-1.));
#959=DIRECTION('',(1.41421356237309,1.41421356237309,0.));
#960=DIRECTION('',(0.,0.,1.));
#961=DIRECTION('',(0.,0.,1.));
#962=DIRECTION('',(1.41421356237309,1.41421356237309,0.));
#963=DIRECTION('',(0.,0.,-1.));
#964=DIRECTION('',(0.,0.,-1.));
#965=DIRECTION('',(1.41421356237309,-1.41421356237309,0.));
#966=DIRECTION('',(0.,0.,1.));
#967=DIRECTION('',(0.,0.,1.));
#968=DIRECTION('',(1.41421356237309,-1.41421356237309,0.));
#969=DIRECTION('',(0.,0.,-1.));
#970=DIRECTION('',(0.,1.,0.));
#971=DIRECTION('',(1.,0.,0.));
#972=DIRECTION('',(1.,0.,0.));
#973=DIRECTION('',(0.,-1.,0.));
#974=DIRECTION('',(0.,0.,1.));
#975=DIRECTION('',(1.425,0.,0.));
#976=DIRECTION('',(0.,0.,1.));
#977=DIRECTION('',(1.425,0.,0.));
#978=DIRECTION('',(0.,0.,1.));
#979=DIRECTION('',(1.425,0.,0.));
#980=DIRECTION('',(0.,0.,1.));
#981=DIRECTION('',(1.425,0.,0.));
#982=DIRECTION('',(0.,0.,1.));
#983=DIRECTION('',(1.425,0.,0.));
#984=DIRECTION('',(0.,0.,1.));
#985=DIRECTION('',(1.425,0.,0.));
#986=DIRECTION('',(0.,0.,1.));
#987=DIRECTION('',(1.425,0.,0.));
#988=DIRECTION('',(0.,0.,1.));
#989=DIRECTION('',(1.425,0.,0.));
#990=DIRECTION('',(0.,0.,1.));
#991=DIRECTION('',(1.425,0.,0.));
#992=DIRECTION('',(0.,0.,1.));
#993=DIRECTION('',(1.425,0.,0.));
#994=DIRECTION('',(0.,0.,1.));
#995=DIRECTION('',(0.,-1.,0.));
#996=DIRECTION('',(-1.,0.,0.));
#997=DIRECTION('',(0.,1.,0.));
#998=DIRECTION('',(1.,0.,0.));
#999=DIRECTION('',(0.,-1.,0.));
#1000=DIRECTION('',(-1.,0.,0.));
#1001=DIRECTION('',(-1.,0.,0.));
#1002=DIRECTION('',(0.,1.,0.));
#1003=DIRECTION('',(0.,1.,0.));
#1004=DIRECTION('',(1.,0.,0.));
#1005=DIRECTION('',(0.,0.,1.));
#1006=DIRECTION('',(0.,0.,1.));
#1007=DIRECTION('',(1.,0.,0.));
#1008=DIRECTION('',(0.,-1.,0.));
#1009=DIRECTION('',(0.,0.,1.));
#1010=DIRECTION('',(0.,-1.,0.));
#1011=DIRECTION('',(-1.,0.,0.));
#1012=DIRECTION('',(0.,0.,1.));
#1013=DIRECTION('',(-1.,0.,0.));
#1014=DIRECTION('',(0.,1.,0.));
#1015=DIRECTION('',(0.,0.,1.));
#1016=CARTESIAN_POINT('',(4.5,-5.45,7.4));
#1017=CARTESIAN_POINT('',(4.5,-5.45,8.9));
#1018=CARTESIAN_POINT('',(7.75,-5.45,8.9));
#1019=CARTESIAN_POINT('',(4.5,-5.45,7.4));
#1020=CARTESIAN_POINT('',(7.75,-5.45,7.4));
#1021=CARTESIAN_POINT('',(4.5,-5.45,8.9));
#1022=CARTESIAN_POINT('',(4.5,-5.45,8.9));
#1023=CARTESIAN_POINT('',(6.5,-5.45,8.9));
#1024=CARTESIAN_POINT('',(4.5,-5.45,3.9));
#1025=CARTESIAN_POINT('',(4.5,-5.45,7.4));
#1026=CARTESIAN_POINT('',(9.5,-5.45,7.4));
#1027=CARTESIAN_POINT('',(4.5,-5.45,3.9));
#1028=CARTESIAN_POINT('',(9.5,-5.45,3.9));
#1029=CARTESIAN_POINT('',(4.5,-5.45,7.4));
#1030=CARTESIAN_POINT('',(4.5,-5.45,13.2));
#1031=CARTESIAN_POINT('',(4.5,-5.45,3.9));
#1032=CARTESIAN_POINT('',(20.5,-5.45,3.9));
#1033=CARTESIAN_POINT('',(4.5,-5.45,13.2));
#1034=CARTESIAN_POINT('',(20.5,-5.45,13.2));
#1035=CARTESIAN_POINT('',(4.5,-5.45,3.9));
#1036=CARTESIAN_POINT('',(4.5,-5.45,-66.5896254063197));
#1037=CARTESIAN_POINT('',(4.5,-5.45,0.));
#1038=CARTESIAN_POINT('',(2.5,-5.45,0.));
#1039=CARTESIAN_POINT('',(-19.,8.,14.8));
#1040=CARTESIAN_POINT('',(-21.5,8.,13.2));
#1041=CARTESIAN_POINT('',(-21.5,8.,13.2));
#1042=CARTESIAN_POINT('',(-16.5,8.,13.2));
#1043=CARTESIAN_POINT('',(-21.5,8.,14.8));
#1044=CARTESIAN_POINT('',(-21.5,8.,14.8));
#1045=CARTESIAN_POINT('',(-9.5,8.,14.8));
#1046=CARTESIAN_POINT('',(-16.5,8.,14.8));
#1047=CARTESIAN_POINT('',(-16.5,8.,14.8));
#1048=CARTESIAN_POINT('',(-16.5,13.5,14.8));
#1049=CARTESIAN_POINT('',(-16.5,8.,13.2));
#1050=CARTESIAN_POINT('',(-16.5,19.,13.2));
#1051=CARTESIAN_POINT('',(-16.5,6.75,14.8));
#1052=CARTESIAN_POINT('',(-16.5,19.,14.8));
#1053=CARTESIAN_POINT('',(-16.5,19.,14.8));
#1054=CARTESIAN_POINT('',(-19.,19.,14.8));
#1055=CARTESIAN_POINT('',(-16.5,19.,13.2));
#1056=CARTESIAN_POINT('',(-21.5,19.,13.2));
#1057=CARTESIAN_POINT('',(-9.5,19.,14.8));
#1058=CARTESIAN_POINT('',(-21.5,19.,14.8));
#1059=CARTESIAN_POINT('',(-21.5,19.,14.8));
#1060=CARTESIAN_POINT('',(-21.5,13.5,14.8));
#1061=CARTESIAN_POINT('',(-21.5,19.,13.2));
#1062=CARTESIAN_POINT('',(-21.5,6.75,14.8));
#1063=CARTESIAN_POINT('',(-19.,13.5,13.2));
#1064=CARTESIAN_POINT('',(-28.5,-8.,14.8));
#1065=CARTESIAN_POINT('',(-32.5,-8.,13.2));
#1066=CARTESIAN_POINT('',(-32.5,-8.,13.2));
#1067=CARTESIAN_POINT('',(-24.5,-8.,13.2));
#1068=CARTESIAN_POINT('',(-32.5,-8.,14.8));
#1069=CARTESIAN_POINT('',(-32.5,-8.,14.8));
#1070=CARTESIAN_POINT('',(-14.25,-8.,14.8));
#1071=CARTESIAN_POINT('',(-24.5,-8.,14.8));
#1072=CARTESIAN_POINT('',(-24.5,-8.,14.8));
#1073=CARTESIAN_POINT('',(-24.5,5.75,14.8));
#1074=CARTESIAN_POINT('',(-24.5,-8.,13.2));
#1075=CARTESIAN_POINT('',(-24.5,19.5,13.2));
#1076=CARTESIAN_POINT('',(-24.5,2.875,14.8));
#1077=CARTESIAN_POINT('',(-24.5,19.5,14.8));
#1078=CARTESIAN_POINT('',(-24.5,19.5,14.8));
#1079=CARTESIAN_POINT('',(-28.5,19.5,14.8));
#1080=CARTESIAN_POINT('',(-24.5,19.5,13.2));
#1081=CARTESIAN_POINT('',(-32.5,19.5,13.2));
#1082=CARTESIAN_POINT('',(-14.25,19.5,14.8));
#1083=CARTESIAN_POINT('',(-32.5,19.5,14.8));
#1084=CARTESIAN_POINT('',(-32.5,19.5,14.8));
#1085=CARTESIAN_POINT('',(-28.5,5.75,13.2));
#1086=CARTESIAN_POINT('',(-32.5,19.5,13.2));
#1087=CARTESIAN_POINT('',(24.5,0.,14.8));
#1088=CARTESIAN_POINT('',(24.5,-22.,13.2));
#1089=CARTESIAN_POINT('',(24.5,-22.,13.2));
#1090=CARTESIAN_POINT('',(24.5,22.,13.2));
#1091=CARTESIAN_POINT('',(24.5,-22.,14.8));
#1092=CARTESIAN_POINT('',(24.5,-22.,14.8));
#1093=CARTESIAN_POINT('',(24.5,0.,14.8));
#1094=CARTESIAN_POINT('',(24.5,22.,14.8));
#1095=CARTESIAN_POINT('',(24.5,22.,14.8));
#1096=CARTESIAN_POINT('',(-13.5,0.,14.8));
#1097=CARTESIAN_POINT('',(-13.5,22.,13.2));
#1098=CARTESIAN_POINT('',(-13.5,22.,13.2));
#1099=CARTESIAN_POINT('',(-13.5,-22.,13.2));
#1100=CARTESIAN_POINT('',(-13.5,22.,14.8));
#1101=CARTESIAN_POINT('',(-13.5,22.,14.8));
#1102=CARTESIAN_POINT('',(-13.5,0.,14.8));
#1103=CARTESIAN_POINT('',(-13.5,-22.,14.8));
#1104=CARTESIAN_POINT('',(-13.5,-22.,14.8));
#1105=CARTESIAN_POINT('',(5.5,0.,13.2));
#1106=CARTESIAN_POINT('',(-13.5,-22.,13.2));
#1107=CARTESIAN_POINT('',(24.5,22.,13.2));
#1108=CARTESIAN_POINT('',(-2.40748946123887E-16,0.,14.8));
#1109=CARTESIAN_POINT('',(-32.5,22.,14.8));
#1110=CARTESIAN_POINT('',(-32.5,-20.,14.8));
#1111=CARTESIAN_POINT('',(-30.5,-20.,14.8));
#1112=CARTESIAN_POINT('',(-30.5,-22.,14.8));
#1113=CARTESIAN_POINT('',(-32.5,-22.,14.8));
#1114=CARTESIAN_POINT('',(32.5,22.,14.8));
#1115=CARTESIAN_POINT('',(-30.5,22.,14.8));
#1116=CARTESIAN_POINT('',(-30.5,20.,14.8));
#1117=CARTESIAN_POINT('',(-32.5,20.,14.8));
#1118=CARTESIAN_POINT('',(-18.5,-15.5,14.8));
#1119=CARTESIAN_POINT('',(-19.925,-15.5,14.8));
#1120=CARTESIAN_POINT('',(-18.5,-8.5,14.8));
#1121=CARTESIAN_POINT('',(-19.925,-8.5,14.8));
#1122=CARTESIAN_POINT('',(27.5,14.8,14.8));
#1123=CARTESIAN_POINT('',(26.075,14.8,14.8));
#1124=CARTESIAN_POINT('',(27.5,-15.5,14.8));
#1125=CARTESIAN_POINT('',(26.075,-15.5,14.8));
#1126=CARTESIAN_POINT('',(27.5,-8.5,14.8));
#1127=CARTESIAN_POINT('',(26.075,-8.5,14.8));
#1128=CARTESIAN_POINT('',(30.5,-22.,14.8));
#1129=CARTESIAN_POINT('',(30.5,-20.,14.8));
#1130=CARTESIAN_POINT('',(32.5,-20.,14.8));
#1131=CARTESIAN_POINT('',(32.5,-22.,14.8));
#1132=CARTESIAN_POINT('',(32.5,20.,14.8));
#1133=CARTESIAN_POINT('',(30.5,20.,14.8));
#1134=CARTESIAN_POINT('',(30.5,22.,14.8));
#1135=CARTESIAN_POINT('',(-30.5,20.,16.3));
#1136=CARTESIAN_POINT('',(-30.5,22.,16.3));
#1137=CARTESIAN_POINT('',(-30.5,22.,16.3));
#1138=CARTESIAN_POINT('',(-30.5,20.,16.3));
#1139=CARTESIAN_POINT('',(-32.5,20.,16.3));
#1140=CARTESIAN_POINT('',(-32.5,20.,16.3));
#1141=CARTESIAN_POINT('',(-30.5,-20.,16.3));
#1142=CARTESIAN_POINT('',(-32.5,-20.,16.3));
#1143=CARTESIAN_POINT('',(-32.5,-20.,16.3));
#1144=CARTESIAN_POINT('',(-30.5,-20.,16.3));
#1145=CARTESIAN_POINT('',(-30.5,-22.,16.3));
#1146=CARTESIAN_POINT('',(-30.5,-22.,16.3));
#1147=CARTESIAN_POINT('',(30.5,20.,16.3));
#1148=CARTESIAN_POINT('',(32.5,20.,16.3));
#1149=CARTESIAN_POINT('',(32.5,20.,16.3));
#1150=CARTESIAN_POINT('',(30.5,20.,16.3));
#1151=CARTESIAN_POINT('',(30.5,22.,16.3));
#1152=CARTESIAN_POINT('',(30.5,22.,16.3));
#1153=CARTESIAN_POINT('',(30.5,-20.,16.3));
#1154=CARTESIAN_POINT('',(30.5,-22.,16.3));
#1155=CARTESIAN_POINT('',(30.5,-22.,16.3));
#1156=CARTESIAN_POINT('',(30.5,-20.,16.3));
#1157=CARTESIAN_POINT('',(32.5,-20.,16.3));
#1158=CARTESIAN_POINT('',(32.5,-20.,16.3));
#1159=CARTESIAN_POINT('',(0.,22.,16.3));
#1160=CARTESIAN_POINT('',(0.,22.,16.3));
#1161=CARTESIAN_POINT('',(32.5,0.,16.3));
#1162=CARTESIAN_POINT('',(32.5,0.,16.3));
#1163=CARTESIAN_POINT('',(27.5,-8.5,-68.0896254063197));
#1164=CARTESIAN_POINT('',(27.5,-8.5,0.));
#1165=CARTESIAN_POINT('',(26.075,-8.5,0.));
#1166=CARTESIAN_POINT('',(-18.5,-15.5,-68.0896254063197));
#1167=CARTESIAN_POINT('',(-18.5,-15.5,0.));
#1168=CARTESIAN_POINT('',(-19.925,-15.5,0.));
#1169=CARTESIAN_POINT('',(27.5,-15.5,-68.0896254063197));
#1170=CARTESIAN_POINT('',(27.5,-15.5,0.));
#1171=CARTESIAN_POINT('',(26.075,-15.5,0.));
#1172=CARTESIAN_POINT('',(-18.5,-8.5,-68.0896254063197));
#1173=CARTESIAN_POINT('',(-18.5,-8.5,0.));
#1174=CARTESIAN_POINT('',(-19.925,-8.5,0.));
#1175=CARTESIAN_POINT('',(27.5,14.8,-68.0896254063197));
#1176=CARTESIAN_POINT('',(27.5,14.8,0.));
#1177=CARTESIAN_POINT('',(26.075,14.8,0.));
#1178=CARTESIAN_POINT('',(-2.3937230136729E-16,0.,0.));
#1179=CARTESIAN_POINT('',(-33.5,23.,0.));
#1180=CARTESIAN_POINT('',(-33.5,23.,0.));
#1181=CARTESIAN_POINT('',(-33.5,-23.,0.));
#1182=CARTESIAN_POINT('',(33.5,23.,0.));
#1183=CARTESIAN_POINT('',(33.5,23.,0.));
#1184=CARTESIAN_POINT('',(33.5,-23.,0.));
#1185=CARTESIAN_POINT('',(33.5,-23.,0.));
#1186=CARTESIAN_POINT('',(-33.5,-23.,0.));
#1187=CARTESIAN_POINT('',(0.,-22.,16.3));
#1188=CARTESIAN_POINT('',(0.,-22.,16.3));
#1189=CARTESIAN_POINT('',(-32.5,0.,16.3));
#1190=CARTESIAN_POINT('',(-32.5,0.,16.3));
#1191=CARTESIAN_POINT('',(0.,23.,0.));
#1192=CARTESIAN_POINT('',(33.5,23.,16.3));
#1193=CARTESIAN_POINT('',(-33.5,23.,16.3));
#1194=CARTESIAN_POINT('',(33.5,23.,16.3));
#1195=CARTESIAN_POINT('',(33.5,23.,0.));
#1196=CARTESIAN_POINT('',(-33.5,23.,0.));
#1197=CARTESIAN_POINT('',(33.5,0.,0.));
#1198=CARTESIAN_POINT('',(33.5,-23.,16.3));
#1199=CARTESIAN_POINT('',(33.5,-23.,16.3));
#1200=CARTESIAN_POINT('',(33.5,-23.,0.));
#1201=CARTESIAN_POINT('',(0.,-23.,0.));
#1202=CARTESIAN_POINT('',(-33.5,-23.,16.3));
#1203=CARTESIAN_POINT('',(-33.5,-23.,16.3));
#1204=CARTESIAN_POINT('',(-33.5,-23.,0.));
#1205=CARTESIAN_POINT('',(-33.5,0.,0.));
#1206=CARTESIAN_POINT('',(-33.5,23.,16.3));
#1207=CARTESIAN_POINT('',(-2.3937230136729E-16,0.,16.3));
#1208=CYLINDRICAL_SURFACE('',#786,3.25);
#1209=CYLINDRICAL_SURFACE('',#791,5.);
#1210=CYLINDRICAL_SURFACE('',#795,16.);
#1211=CYLINDRICAL_SURFACE('',#799,2.);
#1212=CYLINDRICAL_SURFACE('',#823,2.);
#1213=CYLINDRICAL_SURFACE('',#825,2.);
#1214=CYLINDRICAL_SURFACE('',#827,2.);
#1215=CYLINDRICAL_SURFACE('',#829,2.);
#1216=CYLINDRICAL_SURFACE('',#833,1.425);
#1217=CYLINDRICAL_SURFACE('',#835,1.425);
#1218=CYLINDRICAL_SURFACE('',#837,1.425);
#1219=CYLINDRICAL_SURFACE('',#839,1.425);
#1220=CYLINDRICAL_SURFACE('',#841,1.425);
#1221=CLOSED_SHELL('',(#746,#747,#748,#749,#750,#751,#752,#753,#754,#755,
#756,#757,#758,#759,#760,#761,#762,#763,#764,#765,#766,#767,#768,#769,#770,
#771,#772,#773,#774,#775,#776,#777,#778,#779,#780,#781,#782,#783,#784,#785));
#1222=MANIFOLD_SOLID_BREP('',#1221);
#1223=ADVANCED_BREP_SHAPE_REPRESENTATION('',(#1222),#103);
ENDSEC;
END-ISO-10303-21;
